ISO-10303-21;
HEADER;
/* Generated by software containing ST-Developer
 * from STEP Tools, Inc. (www.steptools.com) 
 */

FILE_DESCRIPTION(
/* description */ (''),
/* implementation_level */ '2;1');

FILE_NAME(
/* name */ 'Phalange Connector.step',
/* time_stamp */ '2026-03-10T17:19:26Z',
/* author */ (''),
/* organization */ (''),
/* preprocessor_version */ 'ST-DEVELOPER v20.1',
/* originating_system */ 'Autodesk Translation Framework v14.21.0.0',
/* authorisation */ '');

FILE_SCHEMA (('AUTOMOTIVE_DESIGN { 1 0 10303 214 3 1 1 }'));
ENDSEC;

DATA;
#10=MECHANICAL_DESIGN_GEOMETRIC_PRESENTATION_REPRESENTATION('',(#13),#403);
#11=SHAPE_REPRESENTATION_RELATIONSHIP('SRR','None',#410,#12);
#12=ADVANCED_BREP_SHAPE_REPRESENTATION('',(#14),#402);
#13=STYLED_ITEM('',(#420),#14);
#14=MANIFOLD_SOLID_BREP('Body1',#227);
#15=FACE_BOUND('',#43,.T.);
#16=FACE_BOUND('',#45,.T.);
#17=FACE_BOUND('',#51,.T.);
#18=FACE_BOUND('',#52,.T.);
#19=PLANE('',#247);
#20=PLANE('',#250);
#21=PLANE('',#251);
#22=PLANE('',#252);
#23=PLANE('',#255);
#24=PLANE('',#266);
#25=FACE_OUTER_BOUND('',#37,.T.);
#26=FACE_OUTER_BOUND('',#38,.T.);
#27=FACE_OUTER_BOUND('',#39,.T.);
#28=FACE_OUTER_BOUND('',#40,.T.);
#29=FACE_OUTER_BOUND('',#41,.T.);
#30=FACE_OUTER_BOUND('',#42,.T.);
#31=FACE_OUTER_BOUND('',#44,.T.);
#32=FACE_OUTER_BOUND('',#46,.T.);
#33=FACE_OUTER_BOUND('',#47,.T.);
#34=FACE_OUTER_BOUND('',#48,.T.);
#35=FACE_OUTER_BOUND('',#49,.T.);
#36=FACE_OUTER_BOUND('',#50,.T.);
#37=EDGE_LOOP('',(#149,#150,#151,#152));
#38=EDGE_LOOP('',(#153,#154,#155,#156));
#39=EDGE_LOOP('',(#157,#158,#159,#160,#161,#162));
#40=EDGE_LOOP('',(#163,#164,#165,#166,#167,#168));
#41=EDGE_LOOP('',(#169,#170,#171,#172,#173,#174));
#42=EDGE_LOOP('',(#175,#176));
#43=EDGE_LOOP('',(#177));
#44=EDGE_LOOP('',(#178,#179,#180,#181));
#45=EDGE_LOOP('',(#182));
#46=EDGE_LOOP('',(#183,#184,#185,#186));
#47=EDGE_LOOP('',(#187,#188,#189,#190));
#48=EDGE_LOOP('',(#191,#192,#193,#194,#195,#196,#197,#198));
#49=EDGE_LOOP('',(#199,#200,#201,#202));
#50=EDGE_LOOP('',(#203,#204,#205,#206));
#51=EDGE_LOOP('',(#207));
#52=EDGE_LOOP('',(#208));
#53=LINE('',#343,#69);
#54=LINE('',#346,#70);
#55=LINE('',#352,#71);
#56=LINE('',#355,#72);
#57=LINE('',#359,#73);
#58=LINE('',#361,#74);
#59=LINE('',#365,#75);
#60=LINE('',#367,#76);
#61=LINE('',#369,#77);
#62=LINE('',#370,#78);
#63=LINE('',#373,#79);
#64=LINE('',#375,#80);
#65=LINE('',#377,#81);
#66=LINE('',#378,#82);
#67=LINE('',#389,#83);
#68=LINE('',#393,#84);
#69=VECTOR('',#273,10.);
#70=VECTOR('',#276,10.);
#71=VECTOR('',#281,10.);
#72=VECTOR('',#284,10.);
#73=VECTOR('',#289,10.);
#74=VECTOR('',#290,10.);
#75=VECTOR('',#295,10.);
#76=VECTOR('',#296,10.);
#77=VECTOR('',#297,10.);
#78=VECTOR('',#298,10.);
#79=VECTOR('',#301,10.);
#80=VECTOR('',#302,10.);
#81=VECTOR('',#303,10.);
#82=VECTOR('',#304,10.);
#83=VECTOR('',#319,1.05);
#84=VECTOR('',#324,1.05);
#85=CIRCLE('',#242,3.1);
#86=CIRCLE('',#243,3.1);
#87=CIRCLE('',#245,1.50000000000002);
#88=CIRCLE('',#246,1.50000000000002);
#89=CIRCLE('',#248,1.5);
#90=CIRCLE('',#249,1.5);
#91=CIRCLE('',#253,1.5);
#92=CIRCLE('',#254,1.05);
#93=CIRCLE('',#256,1.5);
#94=CIRCLE('',#257,1.05);
#95=CIRCLE('',#259,1.05);
#96=CIRCLE('',#261,1.05);
#97=CIRCLE('',#263,1.5);
#98=CIRCLE('',#265,1.5);
#99=VERTEX_POINT('',#339);
#100=VERTEX_POINT('',#340);
#101=VERTEX_POINT('',#342);
#102=VERTEX_POINT('',#344);
#103=VERTEX_POINT('',#348);
#104=VERTEX_POINT('',#349);
#105=VERTEX_POINT('',#351);
#106=VERTEX_POINT('',#353);
#107=VERTEX_POINT('',#357);
#108=VERTEX_POINT('',#360);
#109=VERTEX_POINT('',#364);
#110=VERTEX_POINT('',#366);
#111=VERTEX_POINT('',#368);
#112=VERTEX_POINT('',#372);
#113=VERTEX_POINT('',#374);
#114=VERTEX_POINT('',#376);
#115=VERTEX_POINT('',#381);
#116=VERTEX_POINT('',#385);
#117=VERTEX_POINT('',#388);
#118=VERTEX_POINT('',#392);
#119=EDGE_CURVE('',#99,#100,#85,.T.);
#120=EDGE_CURVE('',#101,#99,#53,.T.);
#121=EDGE_CURVE('',#101,#102,#86,.T.);
#122=EDGE_CURVE('',#100,#102,#54,.T.);
#123=EDGE_CURVE('',#103,#104,#87,.T.);
#124=EDGE_CURVE('',#105,#103,#55,.T.);
#125=EDGE_CURVE('',#105,#106,#88,.T.);
#126=EDGE_CURVE('',#104,#106,#56,.T.);
#127=EDGE_CURVE('',#107,#105,#89,.T.);
#128=EDGE_CURVE('',#102,#107,#57,.T.);
#129=EDGE_CURVE('',#108,#101,#58,.T.);
#130=EDGE_CURVE('',#106,#108,#90,.T.);
#131=EDGE_CURVE('',#109,#99,#59,.T.);
#132=EDGE_CURVE('',#110,#109,#60,.T.);
#133=EDGE_CURVE('',#111,#110,#61,.T.);
#134=EDGE_CURVE('',#111,#108,#62,.T.);
#135=EDGE_CURVE('',#112,#107,#63,.T.);
#136=EDGE_CURVE('',#112,#113,#64,.T.);
#137=EDGE_CURVE('',#113,#114,#65,.T.);
#138=EDGE_CURVE('',#100,#114,#66,.T.);
#139=EDGE_CURVE('',#104,#103,#91,.T.);
#140=EDGE_CURVE('',#115,#115,#92,.T.);
#141=EDGE_CURVE('',#114,#109,#93,.T.);
#142=EDGE_CURVE('',#116,#116,#94,.T.);
#143=EDGE_CURVE('',#116,#117,#67,.T.);
#144=EDGE_CURVE('',#117,#117,#95,.T.);
#145=EDGE_CURVE('',#115,#118,#68,.T.);
#146=EDGE_CURVE('',#118,#118,#96,.T.);
#147=EDGE_CURVE('',#111,#112,#97,.T.);
#148=EDGE_CURVE('',#113,#110,#98,.T.);
#149=ORIENTED_EDGE('',*,*,#119,.F.);
#150=ORIENTED_EDGE('',*,*,#120,.F.);
#151=ORIENTED_EDGE('',*,*,#121,.T.);
#152=ORIENTED_EDGE('',*,*,#122,.F.);
#153=ORIENTED_EDGE('',*,*,#123,.F.);
#154=ORIENTED_EDGE('',*,*,#124,.F.);
#155=ORIENTED_EDGE('',*,*,#125,.T.);
#156=ORIENTED_EDGE('',*,*,#126,.F.);
#157=ORIENTED_EDGE('',*,*,#127,.F.);
#158=ORIENTED_EDGE('',*,*,#128,.F.);
#159=ORIENTED_EDGE('',*,*,#121,.F.);
#160=ORIENTED_EDGE('',*,*,#129,.F.);
#161=ORIENTED_EDGE('',*,*,#130,.F.);
#162=ORIENTED_EDGE('',*,*,#125,.F.);
#163=ORIENTED_EDGE('',*,*,#129,.T.);
#164=ORIENTED_EDGE('',*,*,#120,.T.);
#165=ORIENTED_EDGE('',*,*,#131,.F.);
#166=ORIENTED_EDGE('',*,*,#132,.F.);
#167=ORIENTED_EDGE('',*,*,#133,.F.);
#168=ORIENTED_EDGE('',*,*,#134,.T.);
#169=ORIENTED_EDGE('',*,*,#122,.T.);
#170=ORIENTED_EDGE('',*,*,#128,.T.);
#171=ORIENTED_EDGE('',*,*,#135,.F.);
#172=ORIENTED_EDGE('',*,*,#136,.T.);
#173=ORIENTED_EDGE('',*,*,#137,.T.);
#174=ORIENTED_EDGE('',*,*,#138,.F.);
#175=ORIENTED_EDGE('',*,*,#123,.T.);
#176=ORIENTED_EDGE('',*,*,#139,.T.);
#177=ORIENTED_EDGE('',*,*,#140,.T.);
#178=ORIENTED_EDGE('',*,*,#119,.T.);
#179=ORIENTED_EDGE('',*,*,#138,.T.);
#180=ORIENTED_EDGE('',*,*,#141,.T.);
#181=ORIENTED_EDGE('',*,*,#131,.T.);
#182=ORIENTED_EDGE('',*,*,#142,.T.);
#183=ORIENTED_EDGE('',*,*,#142,.F.);
#184=ORIENTED_EDGE('',*,*,#143,.T.);
#185=ORIENTED_EDGE('',*,*,#144,.T.);
#186=ORIENTED_EDGE('',*,*,#143,.F.);
#187=ORIENTED_EDGE('',*,*,#140,.F.);
#188=ORIENTED_EDGE('',*,*,#145,.T.);
#189=ORIENTED_EDGE('',*,*,#146,.T.);
#190=ORIENTED_EDGE('',*,*,#145,.F.);
#191=ORIENTED_EDGE('',*,*,#130,.T.);
#192=ORIENTED_EDGE('',*,*,#134,.F.);
#193=ORIENTED_EDGE('',*,*,#147,.T.);
#194=ORIENTED_EDGE('',*,*,#135,.T.);
#195=ORIENTED_EDGE('',*,*,#127,.T.);
#196=ORIENTED_EDGE('',*,*,#124,.T.);
#197=ORIENTED_EDGE('',*,*,#139,.F.);
#198=ORIENTED_EDGE('',*,*,#126,.T.);
#199=ORIENTED_EDGE('',*,*,#148,.T.);
#200=ORIENTED_EDGE('',*,*,#132,.T.);
#201=ORIENTED_EDGE('',*,*,#141,.F.);
#202=ORIENTED_EDGE('',*,*,#137,.F.);
#203=ORIENTED_EDGE('',*,*,#136,.F.);
#204=ORIENTED_EDGE('',*,*,#147,.F.);
#205=ORIENTED_EDGE('',*,*,#133,.T.);
#206=ORIENTED_EDGE('',*,*,#148,.F.);
#207=ORIENTED_EDGE('',*,*,#146,.F.);
#208=ORIENTED_EDGE('',*,*,#144,.F.);
#209=CYLINDRICAL_SURFACE('',#241,3.1);
#210=CYLINDRICAL_SURFACE('',#244,1.50000000000002);
#211=CYLINDRICAL_SURFACE('',#258,1.05);
#212=CYLINDRICAL_SURFACE('',#260,1.05);
#213=CYLINDRICAL_SURFACE('',#262,1.5);
#214=CYLINDRICAL_SURFACE('',#264,1.5);
#215=ADVANCED_FACE('',(#25),#209,.F.);
#216=ADVANCED_FACE('',(#26),#210,.T.);
#217=ADVANCED_FACE('',(#27),#19,.T.);
#218=ADVANCED_FACE('',(#28),#20,.T.);
#219=ADVANCED_FACE('',(#29),#21,.T.);
#220=ADVANCED_FACE('',(#30,#15),#22,.T.);
#221=ADVANCED_FACE('',(#31,#16),#23,.T.);
#222=ADVANCED_FACE('',(#32),#211,.F.);
#223=ADVANCED_FACE('',(#33),#212,.F.);
#224=ADVANCED_FACE('',(#34),#213,.T.);
#225=ADVANCED_FACE('',(#35),#214,.T.);
#226=ADVANCED_FACE('',(#36,#17,#18),#24,.F.);
#227=CLOSED_SHELL('',(#215,#216,#217,#218,#219,#220,#221,#222,#223,#224,
#225,#226));
#228=DERIVED_UNIT_ELEMENT(#230,1.);
#229=DERIVED_UNIT_ELEMENT(#405,-3.);
#230=(
MASS_UNIT()
NAMED_UNIT(*)
SI_UNIT(.KILO.,.GRAM.)
);
#231=DERIVED_UNIT((#228,#229));
#232=MEASURE_REPRESENTATION_ITEM('density measure',
POSITIVE_RATIO_MEASURE(7850.),#231);
#233=PROPERTY_DEFINITION_REPRESENTATION(#238,#235);
#234=PROPERTY_DEFINITION_REPRESENTATION(#239,#236);
#235=REPRESENTATION('material name',(#237),#402);
#236=REPRESENTATION('density',(#232),#402);
#237=DESCRIPTIVE_REPRESENTATION_ITEM('Steel','Steel');
#238=PROPERTY_DEFINITION('material property','material name',#412);
#239=PROPERTY_DEFINITION('material property','density of part',#412);
#240=AXIS2_PLACEMENT_3D('',#337,#267,#268);
#241=AXIS2_PLACEMENT_3D('',#338,#269,#270);
#242=AXIS2_PLACEMENT_3D('',#341,#271,#272);
#243=AXIS2_PLACEMENT_3D('',#345,#274,#275);
#244=AXIS2_PLACEMENT_3D('',#347,#277,#278);
#245=AXIS2_PLACEMENT_3D('',#350,#279,#280);
#246=AXIS2_PLACEMENT_3D('',#354,#282,#283);
#247=AXIS2_PLACEMENT_3D('',#356,#285,#286);
#248=AXIS2_PLACEMENT_3D('',#358,#287,#288);
#249=AXIS2_PLACEMENT_3D('',#362,#291,#292);
#250=AXIS2_PLACEMENT_3D('',#363,#293,#294);
#251=AXIS2_PLACEMENT_3D('',#371,#299,#300);
#252=AXIS2_PLACEMENT_3D('',#379,#305,#306);
#253=AXIS2_PLACEMENT_3D('',#380,#307,#308);
#254=AXIS2_PLACEMENT_3D('',#382,#309,#310);
#255=AXIS2_PLACEMENT_3D('',#383,#311,#312);
#256=AXIS2_PLACEMENT_3D('',#384,#313,#314);
#257=AXIS2_PLACEMENT_3D('',#386,#315,#316);
#258=AXIS2_PLACEMENT_3D('',#387,#317,#318);
#259=AXIS2_PLACEMENT_3D('',#390,#320,#321);
#260=AXIS2_PLACEMENT_3D('',#391,#322,#323);
#261=AXIS2_PLACEMENT_3D('',#394,#325,#326);
#262=AXIS2_PLACEMENT_3D('',#395,#327,#328);
#263=AXIS2_PLACEMENT_3D('',#396,#329,#330);
#264=AXIS2_PLACEMENT_3D('',#397,#331,#332);
#265=AXIS2_PLACEMENT_3D('',#398,#333,#334);
#266=AXIS2_PLACEMENT_3D('',#399,#335,#336);
#267=DIRECTION('axis',(0.,0.,1.));
#268=DIRECTION('refdir',(1.,0.,0.));
#269=DIRECTION('center_axis',(0.,0.,-1.));
#270=DIRECTION('ref_axis',(1.,1.22464679914735E-16,0.));
#271=DIRECTION('center_axis',(0.,0.,-1.));
#272=DIRECTION('ref_axis',(-1.,0.,0.));
#273=DIRECTION('',(0.,0.,1.));
#274=DIRECTION('center_axis',(0.,0.,-1.));
#275=DIRECTION('ref_axis',(-1.,0.,0.));
#276=DIRECTION('',(0.,0.,-1.));
#277=DIRECTION('center_axis',(0.,0.,-1.));
#278=DIRECTION('ref_axis',(1.79254759184268E-16,-1.,0.));
#279=DIRECTION('center_axis',(0.,0.,1.));
#280=DIRECTION('ref_axis',(1.79254759184268E-16,-1.,0.));
#281=DIRECTION('',(0.,0.,1.));
#282=DIRECTION('center_axis',(0.,0.,1.));
#283=DIRECTION('ref_axis',(1.79254759184268E-16,-1.,0.));
#284=DIRECTION('',(0.,0.,-1.));
#285=DIRECTION('center_axis',(0.,0.,1.));
#286=DIRECTION('ref_axis',(-1.,0.,0.));
#287=DIRECTION('center_axis',(0.,0.,-1.));
#288=DIRECTION('ref_axis',(1.,0.,0.));
#289=DIRECTION('',(-1.,2.3521674250533E-17,0.));
#290=DIRECTION('',(1.,2.3521674250533E-17,0.));
#291=DIRECTION('center_axis',(0.,0.,-1.));
#292=DIRECTION('ref_axis',(1.,0.,0.));
#293=DIRECTION('center_axis',(-2.3521674250533E-17,1.,0.));
#294=DIRECTION('ref_axis',(-1.,-2.3521674250533E-17,0.));
#295=DIRECTION('',(-1.,-2.3521674250533E-17,0.));
#296=DIRECTION('',(0.,0.,1.));
#297=DIRECTION('',(1.,2.3521674250533E-17,0.));
#298=DIRECTION('',(0.,0.,1.));
#299=DIRECTION('center_axis',(-2.3521674250533E-17,-1.,0.));
#300=DIRECTION('ref_axis',(1.,-2.3521674250533E-17,0.));
#301=DIRECTION('',(0.,0.,1.));
#302=DIRECTION('',(1.,-2.3521674250533E-17,0.));
#303=DIRECTION('',(0.,0.,1.));
#304=DIRECTION('',(1.,-2.3521674250533E-17,0.));
#305=DIRECTION('center_axis',(0.,0.,1.));
#306=DIRECTION('ref_axis',(1.,0.,0.));
#307=DIRECTION('center_axis',(0.,0.,1.));
#308=DIRECTION('ref_axis',(1.,0.,0.));
#309=DIRECTION('center_axis',(0.,0.,-1.));
#310=DIRECTION('ref_axis',(1.,0.,0.));
#311=DIRECTION('center_axis',(0.,0.,1.));
#312=DIRECTION('ref_axis',(1.,0.,0.));
#313=DIRECTION('center_axis',(0.,0.,1.));
#314=DIRECTION('ref_axis',(1.,0.,0.));
#315=DIRECTION('center_axis',(0.,0.,-1.));
#316=DIRECTION('ref_axis',(1.,0.,0.));
#317=DIRECTION('center_axis',(0.,0.,1.));
#318=DIRECTION('ref_axis',(1.,0.,0.));
#319=DIRECTION('',(0.,0.,-1.));
#320=DIRECTION('center_axis',(0.,0.,-1.));
#321=DIRECTION('ref_axis',(1.,0.,0.));
#322=DIRECTION('center_axis',(0.,0.,1.));
#323=DIRECTION('ref_axis',(1.,0.,0.));
#324=DIRECTION('',(0.,0.,-1.));
#325=DIRECTION('center_axis',(0.,0.,-1.));
#326=DIRECTION('ref_axis',(1.,0.,0.));
#327=DIRECTION('center_axis',(0.,0.,1.));
#328=DIRECTION('ref_axis',(-1.,1.22464679914735E-16,0.));
#329=DIRECTION('center_axis',(0.,0.,1.));
#330=DIRECTION('ref_axis',(1.,0.,0.));
#331=DIRECTION('center_axis',(0.,0.,1.));
#332=DIRECTION('ref_axis',(1.,0.,0.));
#333=DIRECTION('center_axis',(0.,0.,1.));
#334=DIRECTION('ref_axis',(1.,0.,0.));
#335=DIRECTION('center_axis',(0.,0.,1.));
#336=DIRECTION('ref_axis',(1.,0.,0.));
#337=CARTESIAN_POINT('',(0.,0.,0.));
#338=CARTESIAN_POINT('Origin',(0.,0.,3.9));
#339=CARTESIAN_POINT('',(2.71293199325011,1.5,3.9));
#340=CARTESIAN_POINT('',(2.71293199325011,-1.5,3.9));
#341=CARTESIAN_POINT('Origin',(0.,0.,3.9));
#342=CARTESIAN_POINT('',(2.71293199325011,1.5,1.8));
#343=CARTESIAN_POINT('',(2.71293199325011,1.5,3.9));
#344=CARTESIAN_POINT('',(2.71293199325011,-1.5,1.8));
#345=CARTESIAN_POINT('Origin',(0.,0.,1.8));
#346=CARTESIAN_POINT('',(2.71293199325011,-1.5,3.9));
#347=CARTESIAN_POINT('Origin',(-0.0500000000000003,1.81705044237752E-14,
3.9));
#348=CARTESIAN_POINT('',(-0.0249999999999943,-1.49979165219706,3.9));
#349=CARTESIAN_POINT('',(-0.0249999999986319,1.49979165219708,3.9));
#350=CARTESIAN_POINT('Origin',(-0.0500000000000003,1.81705044237752E-14,
3.9));
#351=CARTESIAN_POINT('',(-0.0249999999999943,-1.49979165219706,1.8));
#352=CARTESIAN_POINT('',(-0.0250000000000039,-1.49979165219706,3.9));
#353=CARTESIAN_POINT('',(-0.0249999999986319,1.49979165219708,1.8));
#354=CARTESIAN_POINT('Origin',(-0.0500000000000003,1.81705044237752E-14,
1.8));
#355=CARTESIAN_POINT('',(-0.0249999999989139,1.49979165219708,3.9));
#356=CARTESIAN_POINT('Origin',(1.5375,0.,1.8));
#357=CARTESIAN_POINT('',(-9.10729824887824E-17,-1.5,1.8));
#358=CARTESIAN_POINT('Origin',(0.,0.,1.8));
#359=CARTESIAN_POINT('',(0.768750000000001,-1.5,1.8));
#360=CARTESIAN_POINT('',(2.77555756156289E-16,1.5,1.8));
#361=CARTESIAN_POINT('',(6.66875,1.5,1.8));
#362=CARTESIAN_POINT('Origin',(0.,0.,1.8));
#363=CARTESIAN_POINT('Origin',(11.8,1.5,0.));
#364=CARTESIAN_POINT('',(11.8,1.5,3.9));
#365=CARTESIAN_POINT('',(0.,1.5,3.9));
#366=CARTESIAN_POINT('',(11.8,1.5,0.));
#367=CARTESIAN_POINT('',(11.8,1.5,0.));
#368=CARTESIAN_POINT('',(0.,1.5,0.));
#369=CARTESIAN_POINT('',(0.,1.5,0.));
#370=CARTESIAN_POINT('',(0.,1.5,0.));
#371=CARTESIAN_POINT('Origin',(0.,-1.5,0.));
#372=CARTESIAN_POINT('',(0.,-1.5,0.));
#373=CARTESIAN_POINT('',(0.,-1.5,0.));
#374=CARTESIAN_POINT('',(11.8,-1.5,0.));
#375=CARTESIAN_POINT('',(0.,-1.5,0.));
#376=CARTESIAN_POINT('',(11.8,-1.5,3.9));
#377=CARTESIAN_POINT('',(11.8,-1.5,0.));
#378=CARTESIAN_POINT('',(0.,-1.5,3.9));
#379=CARTESIAN_POINT('Origin',(5.9,0.,3.9));
#380=CARTESIAN_POINT('Origin',(0.,0.,3.9));
#381=CARTESIAN_POINT('',(-1.05,-1.28587913910472E-16,3.9));
#382=CARTESIAN_POINT('Origin',(0.,0.,3.9));
#383=CARTESIAN_POINT('Origin',(5.9,0.,3.9));
#384=CARTESIAN_POINT('Origin',(11.8,-2.93704316519053E-32,3.9));
#385=CARTESIAN_POINT('',(10.75,-1.28587913910472E-16,3.9));
#386=CARTESIAN_POINT('Origin',(11.8,-2.93704316519053E-32,3.9));
#387=CARTESIAN_POINT('Origin',(11.8,-2.93704316519053E-32,0.));
#388=CARTESIAN_POINT('',(10.75,-1.28587913910472E-16,0.));
#389=CARTESIAN_POINT('',(10.75,-1.28587913910472E-16,0.));
#390=CARTESIAN_POINT('Origin',(11.8,-2.93704316519053E-32,0.));
#391=CARTESIAN_POINT('Origin',(0.,0.,0.));
#392=CARTESIAN_POINT('',(-1.05,-1.28587913910472E-16,0.));
#393=CARTESIAN_POINT('',(-1.05,-1.28587913910472E-16,0.));
#394=CARTESIAN_POINT('Origin',(0.,0.,0.));
#395=CARTESIAN_POINT('Origin',(0.,0.,0.));
#396=CARTESIAN_POINT('Origin',(0.,0.,0.));
#397=CARTESIAN_POINT('Origin',(11.8,-2.93704316519053E-32,0.));
#398=CARTESIAN_POINT('Origin',(11.8,-2.93704316519053E-32,0.));
#399=CARTESIAN_POINT('Origin',(5.9,0.,0.));
#400=UNCERTAINTY_MEASURE_WITH_UNIT(LENGTH_MEASURE(0.01),#404,
'DISTANCE_ACCURACY_VALUE',
'Maximum model space distance between geometric entities at asserted c
onnectivities');
#401=UNCERTAINTY_MEASURE_WITH_UNIT(LENGTH_MEASURE(0.01),#404,
'DISTANCE_ACCURACY_VALUE',
'Maximum model space distance between geometric entities at asserted c
onnectivities');
#402=(
GEOMETRIC_REPRESENTATION_CONTEXT(3)
GLOBAL_UNCERTAINTY_ASSIGNED_CONTEXT((#400))
GLOBAL_UNIT_ASSIGNED_CONTEXT((#404,#406,#407))
REPRESENTATION_CONTEXT('','3D')
);
#403=(
GEOMETRIC_REPRESENTATION_CONTEXT(3)
GLOBAL_UNCERTAINTY_ASSIGNED_CONTEXT((#401))
GLOBAL_UNIT_ASSIGNED_CONTEXT((#404,#406,#407))
REPRESENTATION_CONTEXT('','3D')
);
#404=(
LENGTH_UNIT()
NAMED_UNIT(*)
SI_UNIT(.MILLI.,.METRE.)
);
#405=(
LENGTH_UNIT()
NAMED_UNIT(*)
SI_UNIT($,.METRE.)
);
#406=(
NAMED_UNIT(*)
PLANE_ANGLE_UNIT()
SI_UNIT($,.RADIAN.)
);
#407=(
NAMED_UNIT(*)
SI_UNIT($,.STERADIAN.)
SOLID_ANGLE_UNIT()
);
#408=SHAPE_DEFINITION_REPRESENTATION(#409,#410);
#409=PRODUCT_DEFINITION_SHAPE('',$,#412);
#410=SHAPE_REPRESENTATION('',(#240),#402);
#411=PRODUCT_DEFINITION_CONTEXT('part definition',#416,'design');
#412=PRODUCT_DEFINITION('Phalange Connector','Phalange Connector v1',#413,
#411);
#413=PRODUCT_DEFINITION_FORMATION('',$,#418);
#414=PRODUCT_RELATED_PRODUCT_CATEGORY('Phalange Connector v1',
'Phalange Connector v1',(#418));
#415=APPLICATION_PROTOCOL_DEFINITION('international standard',
'automotive_design',2009,#416);
#416=APPLICATION_CONTEXT(
'Core Data for Automotive Mechanical Design Process');
#417=PRODUCT_CONTEXT('part definition',#416,'mechanical');
#418=PRODUCT('Phalange Connector','Phalange Connector v1',$,(#417));
#419=PRESENTATION_STYLE_ASSIGNMENT((#421));
#420=PRESENTATION_STYLE_ASSIGNMENT((#422));
#421=SURFACE_STYLE_USAGE(.BOTH.,#423);
#422=SURFACE_STYLE_USAGE(.BOTH.,#424);
#423=SURFACE_SIDE_STYLE('',(#425));
#424=SURFACE_SIDE_STYLE('',(#426));
#425=SURFACE_STYLE_FILL_AREA(#427);
#426=SURFACE_STYLE_FILL_AREA(#428);
#427=FILL_AREA_STYLE('Steel - Satin',(#429));
#428=FILL_AREA_STYLE('ABS (White)',(#430));
#429=FILL_AREA_STYLE_COLOUR('Steel - Satin',#431);
#430=FILL_AREA_STYLE_COLOUR('ABS (White)',#432);
#431=COLOUR_RGB('Steel - Satin',0.627450980392157,0.627450980392157,0.627450980392157);
#432=COLOUR_RGB('ABS (White)',1.,0.847058823529412,0.56078431372549);
ENDSEC;
END-ISO-10303-21;
