ISO-10303-21;
HEADER;
/* Generated by software containing ST-Developer
 * from STEP Tools, Inc. (www.steptools.com) 
 */

FILE_DESCRIPTION(
/* description */ (''),
/* implementation_level */ '2;1');

FILE_NAME(
/* name */ '16mmOD 8mmID Bearing.step',
/* time_stamp */ '2026-03-10T17:20:15Z',
/* author */ (''),
/* organization */ (''),
/* preprocessor_version */ 'ST-DEVELOPER v20.1',
/* originating_system */ 'Autodesk Translation Framework v14.21.0.0',
/* authorisation */ '');

FILE_SCHEMA (('AUTOMOTIVE_DESIGN { 1 0 10303 214 3 1 1 }'));
ENDSEC;

DATA;
#10=MECHANICAL_DESIGN_GEOMETRIC_PRESENTATION_REPRESENTATION('',(#23,#24),
#893);
#11=ITEM_DEFINED_TRANSFORMATION($,$,#499,#575);
#12=ITEM_DEFINED_TRANSFORMATION($,$,#553,#576);
#13=(
REPRESENTATION_RELATIONSHIP($,$,#907,#906)
REPRESENTATION_RELATIONSHIP_WITH_TRANSFORMATION(#11)
SHAPE_REPRESENTATION_RELATIONSHIP()
);
#14=(
REPRESENTATION_RELATIONSHIP($,$,#908,#906)
REPRESENTATION_RELATIONSHIP_WITH_TRANSFORMATION(#12)
SHAPE_REPRESENTATION_RELATIONSHIP()
);
#15=CONTEXT_DEPENDENT_SHAPE_REPRESENTATION(#13,#904);
#16=CONTEXT_DEPENDENT_SHAPE_REPRESENTATION(#14,#905);
#17=NEXT_ASSEMBLY_USAGE_OCCURRENCE('Outer Ring:1','Outer Ring:1',
'Outer Ring:1',#910,#911,'Outer Ring:1');
#18=NEXT_ASSEMBLY_USAGE_OCCURRENCE('Inner Ring:1','Inner Ring:1',
'Inner Ring:1',#910,#912,'Inner Ring:1');
#19=SHAPE_REPRESENTATION_RELATIONSHIP('SRR','None',#907,#21);
#20=SHAPE_REPRESENTATION_RELATIONSHIP('SRR','None',#908,#22);
#21=ADVANCED_BREP_SHAPE_REPRESENTATION('',(#25),#891);
#22=ADVANCED_BREP_SHAPE_REPRESENTATION('',(#26),#892);
#23=STYLED_ITEM('',(#925),#25);
#24=STYLED_ITEM('',(#925),#26);
#25=MANIFOLD_SOLID_BREP('Body1',#473);
#26=MANIFOLD_SOLID_BREP('Body1',#474);
#27=TOROIDAL_SURFACE('',#512,7.8,0.2);
#28=TOROIDAL_SURFACE('',#517,7.8,0.2);
#29=TOROIDAL_SURFACE('',#540,6.,1.);
#30=TOROIDAL_SURFACE('',#565,6.,1.);
#31=FACE_BOUND('',#106,.T.);
#32=FACE_BOUND('',#109,.T.);
#33=FACE_BOUND('',#114,.T.);
#34=FACE_BOUND('',#117,.T.);
#35=FACE_BOUND('',#121,.T.);
#36=FACE_BOUND('',#124,.T.);
#37=FACE_BOUND('',#131,.T.);
#38=FACE_BOUND('',#134,.T.);
#39=FACE_BOUND('',#137,.T.);
#40=FACE_BOUND('',#140,.T.);
#41=FACE_BOUND('',#145,.T.);
#42=FACE_BOUND('',#148,.T.);
#43=PLANE('',#506);
#44=PLANE('',#510);
#45=PLANE('',#520);
#46=PLANE('',#524);
#47=PLANE('',#530);
#48=PLANE('',#534);
#49=PLANE('',#548);
#50=PLANE('',#552);
#51=PLANE('',#557);
#52=PLANE('',#561);
#53=PLANE('',#570);
#54=PLANE('',#574);
#55=CYLINDRICAL_SURFACE('',#504,6.7);
#56=CYLINDRICAL_SURFACE('',#508,7.);
#57=CYLINDRICAL_SURFACE('',#515,8.);
#58=CYLINDRICAL_SURFACE('',#522,7.);
#59=CYLINDRICAL_SURFACE('',#526,6.7);
#60=CYLINDRICAL_SURFACE('',#532,5.20290790050683);
#61=CYLINDRICAL_SURFACE('',#538,6.7);
#62=CYLINDRICAL_SURFACE('',#543,6.7);
#63=CYLINDRICAL_SURFACE('',#550,5.20290790050684);
#64=CYLINDRICAL_SURFACE('',#554,4.);
#65=CYLINDRICAL_SURFACE('',#559,5.15);
#66=CYLINDRICAL_SURFACE('',#563,5.3);
#67=CYLINDRICAL_SURFACE('',#568,5.3);
#68=CYLINDRICAL_SURFACE('',#572,5.15);
#69=FACE_OUTER_BOUND('',#103,.T.);
#70=FACE_OUTER_BOUND('',#104,.T.);
#71=FACE_OUTER_BOUND('',#105,.T.);
#72=FACE_OUTER_BOUND('',#107,.T.);
#73=FACE_OUTER_BOUND('',#108,.T.);
#74=FACE_OUTER_BOUND('',#110,.T.);
#75=FACE_OUTER_BOUND('',#111,.T.);
#76=FACE_OUTER_BOUND('',#112,.T.);
#77=FACE_OUTER_BOUND('',#113,.T.);
#78=FACE_OUTER_BOUND('',#115,.T.);
#79=FACE_OUTER_BOUND('',#116,.T.);
#80=FACE_OUTER_BOUND('',#118,.T.);
#81=FACE_OUTER_BOUND('',#119,.T.);
#82=FACE_OUTER_BOUND('',#120,.T.);
#83=FACE_OUTER_BOUND('',#122,.T.);
#84=FACE_OUTER_BOUND('',#123,.T.);
#85=FACE_OUTER_BOUND('',#125,.T.);
#86=FACE_OUTER_BOUND('',#126,.T.);
#87=FACE_OUTER_BOUND('',#127,.T.);
#88=FACE_OUTER_BOUND('',#128,.T.);
#89=FACE_OUTER_BOUND('',#129,.T.);
#90=FACE_OUTER_BOUND('',#130,.T.);
#91=FACE_OUTER_BOUND('',#132,.T.);
#92=FACE_OUTER_BOUND('',#133,.T.);
#93=FACE_OUTER_BOUND('',#135,.T.);
#94=FACE_OUTER_BOUND('',#136,.T.);
#95=FACE_OUTER_BOUND('',#138,.T.);
#96=FACE_OUTER_BOUND('',#139,.T.);
#97=FACE_OUTER_BOUND('',#141,.T.);
#98=FACE_OUTER_BOUND('',#142,.T.);
#99=FACE_OUTER_BOUND('',#143,.T.);
#100=FACE_OUTER_BOUND('',#144,.T.);
#101=FACE_OUTER_BOUND('',#146,.T.);
#102=FACE_OUTER_BOUND('',#147,.T.);
#103=EDGE_LOOP('',(#319,#320,#321,#322,#323));
#104=EDGE_LOOP('',(#324,#325,#326,#327,#328));
#105=EDGE_LOOP('',(#329));
#106=EDGE_LOOP('',(#330));
#107=EDGE_LOOP('',(#331,#332,#333,#334));
#108=EDGE_LOOP('',(#335));
#109=EDGE_LOOP('',(#336));
#110=EDGE_LOOP('',(#337,#338,#339,#340));
#111=EDGE_LOOP('',(#341,#342,#343,#344));
#112=EDGE_LOOP('',(#345,#346,#347,#348));
#113=EDGE_LOOP('',(#349));
#114=EDGE_LOOP('',(#350));
#115=EDGE_LOOP('',(#351,#352,#353,#354));
#116=EDGE_LOOP('',(#355));
#117=EDGE_LOOP('',(#356));
#118=EDGE_LOOP('',(#357,#358,#359,#360));
#119=EDGE_LOOP('',(#361,#362,#363,#364));
#120=EDGE_LOOP('',(#365));
#121=EDGE_LOOP('',(#366));
#122=EDGE_LOOP('',(#367,#368,#369,#370));
#123=EDGE_LOOP('',(#371));
#124=EDGE_LOOP('',(#372));
#125=EDGE_LOOP('',(#373,#374,#375,#376));
#126=EDGE_LOOP('',(#377,#378,#379,#380));
#127=EDGE_LOOP('',(#381,#382,#383,#384));
#128=EDGE_LOOP('',(#385,#386,#387,#388,#389));
#129=EDGE_LOOP('',(#390,#391,#392,#393,#394));
#130=EDGE_LOOP('',(#395));
#131=EDGE_LOOP('',(#396));
#132=EDGE_LOOP('',(#397,#398,#399,#400));
#133=EDGE_LOOP('',(#401));
#134=EDGE_LOOP('',(#402));
#135=EDGE_LOOP('',(#403,#404,#405,#406));
#136=EDGE_LOOP('',(#407));
#137=EDGE_LOOP('',(#408));
#138=EDGE_LOOP('',(#409,#410,#411,#412));
#139=EDGE_LOOP('',(#413));
#140=EDGE_LOOP('',(#414));
#141=EDGE_LOOP('',(#415,#416,#417,#418));
#142=EDGE_LOOP('',(#419,#420,#421,#422));
#143=EDGE_LOOP('',(#423,#424,#425,#426));
#144=EDGE_LOOP('',(#427));
#145=EDGE_LOOP('',(#428));
#146=EDGE_LOOP('',(#429,#430,#431,#432));
#147=EDGE_LOOP('',(#433));
#148=EDGE_LOOP('',(#434));
#149=LINE('',#761,#167);
#150=LINE('',#765,#168);
#151=LINE('',#772,#169);
#152=LINE('',#783,#170);
#153=LINE('',#794,#171);
#154=LINE('',#801,#172);
#155=LINE('',#805,#173);
#156=LINE('',#812,#174);
#157=LINE('',#819,#175);
#158=LINE('',#823,#176);
#159=LINE('',#831,#177);
#160=LINE('',#838,#178);
#161=LINE('',#844,#179);
#162=LINE('',#852,#180);
#163=LINE('',#860,#181);
#164=LINE('',#867,#182);
#165=LINE('',#875,#183);
#166=LINE('',#882,#184);
#167=VECTOR('',#587,6.7);
#168=VECTOR('',#592,6.7);
#169=VECTOR('',#601,7.);
#170=VECTOR('',#616,8.);
#171=VECTOR('',#631,7.);
#172=VECTOR('',#640,6.7);
#173=VECTOR('',#645,6.4);
#174=VECTOR('',#654,5.20290790050683);
#175=VECTOR('',#663,6.7);
#176=VECTOR('',#668,6.7);
#177=VECTOR('',#679,6.7);
#178=VECTOR('',#688,6.35857864376269);
#179=VECTOR('',#695,5.20290790050684);
#180=VECTOR('',#706,4.);
#181=VECTOR('',#717,5.15);
#182=VECTOR('',#726,5.3);
#183=VECTOR('',#737,5.3);
#184=VECTOR('',#746,5.15);
#185=CIRCLE('',#501,6.7);
#186=CIRCLE('',#502,6.7);
#187=CIRCLE('',#503,6.4);
#188=CIRCLE('',#505,6.7);
#189=CIRCLE('',#507,7.);
#190=CIRCLE('',#509,7.);
#191=CIRCLE('',#511,7.8);
#192=CIRCLE('',#513,0.2);
#193=CIRCLE('',#514,8.);
#194=CIRCLE('',#516,8.);
#195=CIRCLE('',#518,0.2);
#196=CIRCLE('',#519,7.8);
#197=CIRCLE('',#521,7.);
#198=CIRCLE('',#523,7.);
#199=CIRCLE('',#525,6.7);
#200=CIRCLE('',#527,6.7);
#201=CIRCLE('',#529,6.4);
#202=CIRCLE('',#531,5.20290790050684);
#203=CIRCLE('',#533,5.20290790050683);
#204=CIRCLE('',#535,6.35857864376269);
#205=CIRCLE('',#537,6.7);
#206=CIRCLE('',#539,6.7);
#207=CIRCLE('',#541,1.);
#208=CIRCLE('',#542,6.7);
#209=CIRCLE('',#544,6.7);
#210=CIRCLE('',#545,6.7);
#211=CIRCLE('',#547,6.35857864376269);
#212=CIRCLE('',#549,5.20290790050684);
#213=CIRCLE('',#551,5.20290790050684);
#214=CIRCLE('',#555,4.);
#215=CIRCLE('',#556,4.);
#216=CIRCLE('',#558,5.15);
#217=CIRCLE('',#560,5.15);
#218=CIRCLE('',#562,5.3);
#219=CIRCLE('',#564,5.3);
#220=CIRCLE('',#566,5.3);
#221=CIRCLE('',#567,1.);
#222=CIRCLE('',#569,5.3);
#223=CIRCLE('',#571,5.15);
#224=CIRCLE('',#573,5.15);
#225=VERTEX_POINT('',#756);
#226=VERTEX_POINT('',#757);
#227=VERTEX_POINT('',#760);
#228=VERTEX_POINT('',#764);
#229=VERTEX_POINT('',#768);
#230=VERTEX_POINT('',#771);
#231=VERTEX_POINT('',#775);
#232=VERTEX_POINT('',#778);
#233=VERTEX_POINT('',#782);
#234=VERTEX_POINT('',#786);
#235=VERTEX_POINT('',#790);
#236=VERTEX_POINT('',#793);
#237=VERTEX_POINT('',#797);
#238=VERTEX_POINT('',#800);
#239=VERTEX_POINT('',#804);
#240=VERTEX_POINT('',#808);
#241=VERTEX_POINT('',#811);
#242=VERTEX_POINT('',#815);
#243=VERTEX_POINT('',#818);
#244=VERTEX_POINT('',#822);
#245=VERTEX_POINT('',#826);
#246=VERTEX_POINT('',#830);
#247=VERTEX_POINT('',#832);
#248=VERTEX_POINT('',#836);
#249=VERTEX_POINT('',#840);
#250=VERTEX_POINT('',#843);
#251=VERTEX_POINT('',#849);
#252=VERTEX_POINT('',#851);
#253=VERTEX_POINT('',#855);
#254=VERTEX_POINT('',#858);
#255=VERTEX_POINT('',#862);
#256=VERTEX_POINT('',#865);
#257=VERTEX_POINT('',#869);
#258=VERTEX_POINT('',#873);
#259=VERTEX_POINT('',#877);
#260=VERTEX_POINT('',#880);
#261=EDGE_CURVE('',#225,#226,#185,.T.);
#262=EDGE_CURVE('',#226,#225,#186,.T.);
#263=EDGE_CURVE('',#225,#227,#149,.T.);
#264=EDGE_CURVE('',#227,#227,#187,.T.);
#265=EDGE_CURVE('',#226,#228,#150,.T.);
#266=EDGE_CURVE('',#228,#228,#188,.T.);
#267=EDGE_CURVE('',#229,#229,#189,.T.);
#268=EDGE_CURVE('',#229,#230,#151,.T.);
#269=EDGE_CURVE('',#230,#230,#190,.T.);
#270=EDGE_CURVE('',#231,#231,#191,.T.);
#271=EDGE_CURVE('',#231,#232,#192,.T.);
#272=EDGE_CURVE('',#232,#232,#193,.T.);
#273=EDGE_CURVE('',#232,#233,#152,.T.);
#274=EDGE_CURVE('',#233,#233,#194,.T.);
#275=EDGE_CURVE('',#233,#234,#195,.T.);
#276=EDGE_CURVE('',#234,#234,#196,.T.);
#277=EDGE_CURVE('',#235,#235,#197,.T.);
#278=EDGE_CURVE('',#235,#236,#153,.T.);
#279=EDGE_CURVE('',#236,#236,#198,.T.);
#280=EDGE_CURVE('',#237,#237,#199,.T.);
#281=EDGE_CURVE('',#237,#238,#154,.T.);
#282=EDGE_CURVE('',#238,#238,#200,.T.);
#283=EDGE_CURVE('',#238,#239,#155,.T.);
#284=EDGE_CURVE('',#239,#239,#201,.T.);
#285=EDGE_CURVE('',#240,#240,#202,.T.);
#286=EDGE_CURVE('',#240,#241,#156,.T.);
#287=EDGE_CURVE('',#241,#241,#203,.T.);
#288=EDGE_CURVE('',#242,#242,#204,.T.);
#289=EDGE_CURVE('',#242,#243,#157,.T.);
#290=EDGE_CURVE('',#243,#243,#205,.T.);
#291=EDGE_CURVE('',#243,#244,#158,.T.);
#292=EDGE_CURVE('',#244,#244,#206,.T.);
#293=EDGE_CURVE('',#244,#245,#207,.T.);
#294=EDGE_CURVE('',#245,#245,#208,.T.);
#295=EDGE_CURVE('',#245,#246,#159,.T.);
#296=EDGE_CURVE('',#246,#247,#209,.T.);
#297=EDGE_CURVE('',#247,#246,#210,.T.);
#298=EDGE_CURVE('',#248,#248,#211,.T.);
#299=EDGE_CURVE('',#248,#247,#160,.T.);
#300=EDGE_CURVE('',#249,#249,#212,.T.);
#301=EDGE_CURVE('',#249,#250,#161,.T.);
#302=EDGE_CURVE('',#250,#250,#213,.T.);
#303=EDGE_CURVE('',#251,#251,#214,.T.);
#304=EDGE_CURVE('',#251,#252,#162,.T.);
#305=EDGE_CURVE('',#252,#252,#215,.T.);
#306=EDGE_CURVE('',#253,#253,#216,.T.);
#307=EDGE_CURVE('',#254,#254,#217,.T.);
#308=EDGE_CURVE('',#254,#253,#163,.T.);
#309=EDGE_CURVE('',#255,#255,#218,.T.);
#310=EDGE_CURVE('',#256,#256,#219,.T.);
#311=EDGE_CURVE('',#256,#255,#164,.T.);
#312=EDGE_CURVE('',#257,#257,#220,.T.);
#313=EDGE_CURVE('',#257,#256,#221,.T.);
#314=EDGE_CURVE('',#258,#258,#222,.T.);
#315=EDGE_CURVE('',#258,#257,#165,.T.);
#316=EDGE_CURVE('',#259,#259,#223,.T.);
#317=EDGE_CURVE('',#260,#260,#224,.T.);
#318=EDGE_CURVE('',#260,#259,#166,.T.);
#319=ORIENTED_EDGE('',*,*,#261,.T.);
#320=ORIENTED_EDGE('',*,*,#262,.T.);
#321=ORIENTED_EDGE('',*,*,#263,.T.);
#322=ORIENTED_EDGE('',*,*,#264,.F.);
#323=ORIENTED_EDGE('',*,*,#263,.F.);
#324=ORIENTED_EDGE('',*,*,#261,.F.);
#325=ORIENTED_EDGE('',*,*,#262,.F.);
#326=ORIENTED_EDGE('',*,*,#265,.T.);
#327=ORIENTED_EDGE('',*,*,#266,.T.);
#328=ORIENTED_EDGE('',*,*,#265,.F.);
#329=ORIENTED_EDGE('',*,*,#267,.T.);
#330=ORIENTED_EDGE('',*,*,#266,.F.);
#331=ORIENTED_EDGE('',*,*,#267,.F.);
#332=ORIENTED_EDGE('',*,*,#268,.T.);
#333=ORIENTED_EDGE('',*,*,#269,.T.);
#334=ORIENTED_EDGE('',*,*,#268,.F.);
#335=ORIENTED_EDGE('',*,*,#270,.T.);
#336=ORIENTED_EDGE('',*,*,#269,.F.);
#337=ORIENTED_EDGE('',*,*,#270,.F.);
#338=ORIENTED_EDGE('',*,*,#271,.T.);
#339=ORIENTED_EDGE('',*,*,#272,.T.);
#340=ORIENTED_EDGE('',*,*,#271,.F.);
#341=ORIENTED_EDGE('',*,*,#272,.F.);
#342=ORIENTED_EDGE('',*,*,#273,.T.);
#343=ORIENTED_EDGE('',*,*,#274,.T.);
#344=ORIENTED_EDGE('',*,*,#273,.F.);
#345=ORIENTED_EDGE('',*,*,#274,.F.);
#346=ORIENTED_EDGE('',*,*,#275,.T.);
#347=ORIENTED_EDGE('',*,*,#276,.T.);
#348=ORIENTED_EDGE('',*,*,#275,.F.);
#349=ORIENTED_EDGE('',*,*,#276,.F.);
#350=ORIENTED_EDGE('',*,*,#277,.T.);
#351=ORIENTED_EDGE('',*,*,#277,.F.);
#352=ORIENTED_EDGE('',*,*,#278,.T.);
#353=ORIENTED_EDGE('',*,*,#279,.T.);
#354=ORIENTED_EDGE('',*,*,#278,.F.);
#355=ORIENTED_EDGE('',*,*,#279,.F.);
#356=ORIENTED_EDGE('',*,*,#280,.T.);
#357=ORIENTED_EDGE('',*,*,#280,.F.);
#358=ORIENTED_EDGE('',*,*,#281,.T.);
#359=ORIENTED_EDGE('',*,*,#282,.T.);
#360=ORIENTED_EDGE('',*,*,#281,.F.);
#361=ORIENTED_EDGE('',*,*,#282,.F.);
#362=ORIENTED_EDGE('',*,*,#283,.T.);
#363=ORIENTED_EDGE('',*,*,#284,.T.);
#364=ORIENTED_EDGE('',*,*,#283,.F.);
#365=ORIENTED_EDGE('',*,*,#284,.F.);
#366=ORIENTED_EDGE('',*,*,#285,.T.);
#367=ORIENTED_EDGE('',*,*,#285,.F.);
#368=ORIENTED_EDGE('',*,*,#286,.T.);
#369=ORIENTED_EDGE('',*,*,#287,.T.);
#370=ORIENTED_EDGE('',*,*,#286,.F.);
#371=ORIENTED_EDGE('',*,*,#288,.T.);
#372=ORIENTED_EDGE('',*,*,#287,.F.);
#373=ORIENTED_EDGE('',*,*,#288,.F.);
#374=ORIENTED_EDGE('',*,*,#289,.T.);
#375=ORIENTED_EDGE('',*,*,#290,.T.);
#376=ORIENTED_EDGE('',*,*,#289,.F.);
#377=ORIENTED_EDGE('',*,*,#290,.F.);
#378=ORIENTED_EDGE('',*,*,#291,.T.);
#379=ORIENTED_EDGE('',*,*,#292,.T.);
#380=ORIENTED_EDGE('',*,*,#291,.F.);
#381=ORIENTED_EDGE('',*,*,#292,.F.);
#382=ORIENTED_EDGE('',*,*,#293,.T.);
#383=ORIENTED_EDGE('',*,*,#294,.T.);
#384=ORIENTED_EDGE('',*,*,#293,.F.);
#385=ORIENTED_EDGE('',*,*,#294,.F.);
#386=ORIENTED_EDGE('',*,*,#295,.T.);
#387=ORIENTED_EDGE('',*,*,#296,.T.);
#388=ORIENTED_EDGE('',*,*,#297,.T.);
#389=ORIENTED_EDGE('',*,*,#295,.F.);
#390=ORIENTED_EDGE('',*,*,#298,.T.);
#391=ORIENTED_EDGE('',*,*,#299,.T.);
#392=ORIENTED_EDGE('',*,*,#296,.F.);
#393=ORIENTED_EDGE('',*,*,#297,.F.);
#394=ORIENTED_EDGE('',*,*,#299,.F.);
#395=ORIENTED_EDGE('',*,*,#298,.F.);
#396=ORIENTED_EDGE('',*,*,#300,.T.);
#397=ORIENTED_EDGE('',*,*,#300,.F.);
#398=ORIENTED_EDGE('',*,*,#301,.T.);
#399=ORIENTED_EDGE('',*,*,#302,.T.);
#400=ORIENTED_EDGE('',*,*,#301,.F.);
#401=ORIENTED_EDGE('',*,*,#264,.T.);
#402=ORIENTED_EDGE('',*,*,#302,.F.);
#403=ORIENTED_EDGE('',*,*,#303,.F.);
#404=ORIENTED_EDGE('',*,*,#304,.T.);
#405=ORIENTED_EDGE('',*,*,#305,.T.);
#406=ORIENTED_EDGE('',*,*,#304,.F.);
#407=ORIENTED_EDGE('',*,*,#306,.F.);
#408=ORIENTED_EDGE('',*,*,#303,.T.);
#409=ORIENTED_EDGE('',*,*,#307,.F.);
#410=ORIENTED_EDGE('',*,*,#308,.T.);
#411=ORIENTED_EDGE('',*,*,#306,.T.);
#412=ORIENTED_EDGE('',*,*,#308,.F.);
#413=ORIENTED_EDGE('',*,*,#309,.F.);
#414=ORIENTED_EDGE('',*,*,#307,.T.);
#415=ORIENTED_EDGE('',*,*,#310,.F.);
#416=ORIENTED_EDGE('',*,*,#311,.T.);
#417=ORIENTED_EDGE('',*,*,#309,.T.);
#418=ORIENTED_EDGE('',*,*,#311,.F.);
#419=ORIENTED_EDGE('',*,*,#312,.F.);
#420=ORIENTED_EDGE('',*,*,#313,.T.);
#421=ORIENTED_EDGE('',*,*,#310,.T.);
#422=ORIENTED_EDGE('',*,*,#313,.F.);
#423=ORIENTED_EDGE('',*,*,#314,.F.);
#424=ORIENTED_EDGE('',*,*,#315,.T.);
#425=ORIENTED_EDGE('',*,*,#312,.T.);
#426=ORIENTED_EDGE('',*,*,#315,.F.);
#427=ORIENTED_EDGE('',*,*,#314,.T.);
#428=ORIENTED_EDGE('',*,*,#316,.F.);
#429=ORIENTED_EDGE('',*,*,#317,.F.);
#430=ORIENTED_EDGE('',*,*,#318,.T.);
#431=ORIENTED_EDGE('',*,*,#316,.T.);
#432=ORIENTED_EDGE('',*,*,#318,.F.);
#433=ORIENTED_EDGE('',*,*,#317,.T.);
#434=ORIENTED_EDGE('',*,*,#305,.F.);
#435=CONICAL_SURFACE('',#500,6.7,0.785398163397443);
#436=CONICAL_SURFACE('',#528,6.4,0.785398163397443);
#437=CONICAL_SURFACE('',#536,6.7,0.785398163397443);
#438=CONICAL_SURFACE('',#546,6.35857864376269,0.785398163397443);
#439=ADVANCED_FACE('',(#69),#435,.T.);
#440=ADVANCED_FACE('',(#70),#55,.F.);
#441=ADVANCED_FACE('',(#71,#31),#43,.F.);
#442=ADVANCED_FACE('',(#72),#56,.F.);
#443=ADVANCED_FACE('',(#73,#32),#44,.F.);
#444=ADVANCED_FACE('',(#74),#27,.T.);
#445=ADVANCED_FACE('',(#75),#57,.T.);
#446=ADVANCED_FACE('',(#76),#28,.T.);
#447=ADVANCED_FACE('',(#77,#33),#45,.F.);
#448=ADVANCED_FACE('',(#78),#58,.F.);
#449=ADVANCED_FACE('',(#79,#34),#46,.F.);
#450=ADVANCED_FACE('',(#80),#59,.F.);
#451=ADVANCED_FACE('',(#81),#436,.T.);
#452=ADVANCED_FACE('',(#82,#35),#47,.F.);
#453=ADVANCED_FACE('',(#83),#60,.F.);
#454=ADVANCED_FACE('',(#84,#36),#48,.F.);
#455=ADVANCED_FACE('',(#85),#437,.F.);
#456=ADVANCED_FACE('',(#86),#61,.F.);
#457=ADVANCED_FACE('',(#87),#29,.F.);
#458=ADVANCED_FACE('',(#88),#62,.F.);
#459=ADVANCED_FACE('',(#89),#438,.F.);
#460=ADVANCED_FACE('',(#90,#37),#49,.F.);
#461=ADVANCED_FACE('',(#91),#63,.F.);
#462=ADVANCED_FACE('',(#92,#38),#50,.F.);
#463=ADVANCED_FACE('',(#93),#64,.F.);
#464=ADVANCED_FACE('',(#94,#39),#51,.F.);
#465=ADVANCED_FACE('',(#95),#65,.T.);
#466=ADVANCED_FACE('',(#96,#40),#52,.F.);
#467=ADVANCED_FACE('',(#97),#66,.T.);
#468=ADVANCED_FACE('',(#98),#30,.F.);
#469=ADVANCED_FACE('',(#99),#67,.T.);
#470=ADVANCED_FACE('',(#100,#41),#53,.F.);
#471=ADVANCED_FACE('',(#101),#68,.T.);
#472=ADVANCED_FACE('',(#102,#42),#54,.F.);
#473=CLOSED_SHELL('',(#439,#440,#441,#442,#443,#444,#445,#446,#447,#448,
#449,#450,#451,#452,#453,#454,#455,#456,#457,#458,#459,#460,#461,#462));
#474=CLOSED_SHELL('',(#463,#464,#465,#466,#467,#468,#469,#470,#471,#472));
#475=DERIVED_UNIT_ELEMENT(#479,1.);
#476=DERIVED_UNIT_ELEMENT(#895,-3.);
#477=DERIVED_UNIT_ELEMENT(#479,1.);
#478=DERIVED_UNIT_ELEMENT(#895,-3.);
#479=(
MASS_UNIT()
NAMED_UNIT(*)
SI_UNIT(.KILO.,.GRAM.)
);
#480=DERIVED_UNIT((#475,#476));
#481=DERIVED_UNIT((#477,#478));
#482=MEASURE_REPRESENTATION_ITEM('density measure',
POSITIVE_RATIO_MEASURE(8000.000133),#480);
#483=MEASURE_REPRESENTATION_ITEM('density measure',
POSITIVE_RATIO_MEASURE(8000.000133),#481);
#484=PROPERTY_DEFINITION_REPRESENTATION(#494,#488);
#485=PROPERTY_DEFINITION_REPRESENTATION(#495,#489);
#486=PROPERTY_DEFINITION_REPRESENTATION(#496,#490);
#487=PROPERTY_DEFINITION_REPRESENTATION(#497,#491);
#488=REPRESENTATION('material name',(#492),#891);
#489=REPRESENTATION('density',(#482),#891);
#490=REPRESENTATION('material name',(#493),#892);
#491=REPRESENTATION('density',(#483),#892);
#492=DESCRIPTIVE_REPRESENTATION_ITEM(
'AISI 316 Stainless Steel Sheet (SS)',
'AISI 316 Stainless Steel Sheet (SS)');
#493=DESCRIPTIVE_REPRESENTATION_ITEM(
'AISI 316 Stainless Steel Sheet (SS)',
'AISI 316 Stainless Steel Sheet (SS)');
#494=PROPERTY_DEFINITION('material property','material name',#911);
#495=PROPERTY_DEFINITION('material property','density of part',#911);
#496=PROPERTY_DEFINITION('material property','material name',#912);
#497=PROPERTY_DEFINITION('material property','density of part',#912);
#498=AXIS2_PLACEMENT_3D('',#753,#577,#578);
#499=AXIS2_PLACEMENT_3D('',#754,#579,#580);
#500=AXIS2_PLACEMENT_3D('',#755,#581,#582);
#501=AXIS2_PLACEMENT_3D('',#758,#583,#584);
#502=AXIS2_PLACEMENT_3D('',#759,#585,#586);
#503=AXIS2_PLACEMENT_3D('',#762,#588,#589);
#504=AXIS2_PLACEMENT_3D('',#763,#590,#591);
#505=AXIS2_PLACEMENT_3D('',#766,#593,#594);
#506=AXIS2_PLACEMENT_3D('',#767,#595,#596);
#507=AXIS2_PLACEMENT_3D('',#769,#597,#598);
#508=AXIS2_PLACEMENT_3D('',#770,#599,#600);
#509=AXIS2_PLACEMENT_3D('',#773,#602,#603);
#510=AXIS2_PLACEMENT_3D('',#774,#604,#605);
#511=AXIS2_PLACEMENT_3D('',#776,#606,#607);
#512=AXIS2_PLACEMENT_3D('',#777,#608,#609);
#513=AXIS2_PLACEMENT_3D('',#779,#610,#611);
#514=AXIS2_PLACEMENT_3D('',#780,#612,#613);
#515=AXIS2_PLACEMENT_3D('',#781,#614,#615);
#516=AXIS2_PLACEMENT_3D('',#784,#617,#618);
#517=AXIS2_PLACEMENT_3D('',#785,#619,#620);
#518=AXIS2_PLACEMENT_3D('',#787,#621,#622);
#519=AXIS2_PLACEMENT_3D('',#788,#623,#624);
#520=AXIS2_PLACEMENT_3D('',#789,#625,#626);
#521=AXIS2_PLACEMENT_3D('',#791,#627,#628);
#522=AXIS2_PLACEMENT_3D('',#792,#629,#630);
#523=AXIS2_PLACEMENT_3D('',#795,#632,#633);
#524=AXIS2_PLACEMENT_3D('',#796,#634,#635);
#525=AXIS2_PLACEMENT_3D('',#798,#636,#637);
#526=AXIS2_PLACEMENT_3D('',#799,#638,#639);
#527=AXIS2_PLACEMENT_3D('',#802,#641,#642);
#528=AXIS2_PLACEMENT_3D('',#803,#643,#644);
#529=AXIS2_PLACEMENT_3D('',#806,#646,#647);
#530=AXIS2_PLACEMENT_3D('',#807,#648,#649);
#531=AXIS2_PLACEMENT_3D('',#809,#650,#651);
#532=AXIS2_PLACEMENT_3D('',#810,#652,#653);
#533=AXIS2_PLACEMENT_3D('',#813,#655,#656);
#534=AXIS2_PLACEMENT_3D('',#814,#657,#658);
#535=AXIS2_PLACEMENT_3D('',#816,#659,#660);
#536=AXIS2_PLACEMENT_3D('',#817,#661,#662);
#537=AXIS2_PLACEMENT_3D('',#820,#664,#665);
#538=AXIS2_PLACEMENT_3D('',#821,#666,#667);
#539=AXIS2_PLACEMENT_3D('',#824,#669,#670);
#540=AXIS2_PLACEMENT_3D('',#825,#671,#672);
#541=AXIS2_PLACEMENT_3D('',#827,#673,#674);
#542=AXIS2_PLACEMENT_3D('',#828,#675,#676);
#543=AXIS2_PLACEMENT_3D('',#829,#677,#678);
#544=AXIS2_PLACEMENT_3D('',#833,#680,#681);
#545=AXIS2_PLACEMENT_3D('',#834,#682,#683);
#546=AXIS2_PLACEMENT_3D('',#835,#684,#685);
#547=AXIS2_PLACEMENT_3D('',#837,#686,#687);
#548=AXIS2_PLACEMENT_3D('',#839,#689,#690);
#549=AXIS2_PLACEMENT_3D('',#841,#691,#692);
#550=AXIS2_PLACEMENT_3D('',#842,#693,#694);
#551=AXIS2_PLACEMENT_3D('',#845,#696,#697);
#552=AXIS2_PLACEMENT_3D('',#846,#698,#699);
#553=AXIS2_PLACEMENT_3D('',#847,#700,#701);
#554=AXIS2_PLACEMENT_3D('',#848,#702,#703);
#555=AXIS2_PLACEMENT_3D('',#850,#704,#705);
#556=AXIS2_PLACEMENT_3D('',#853,#707,#708);
#557=AXIS2_PLACEMENT_3D('',#854,#709,#710);
#558=AXIS2_PLACEMENT_3D('',#856,#711,#712);
#559=AXIS2_PLACEMENT_3D('',#857,#713,#714);
#560=AXIS2_PLACEMENT_3D('',#859,#715,#716);
#561=AXIS2_PLACEMENT_3D('',#861,#718,#719);
#562=AXIS2_PLACEMENT_3D('',#863,#720,#721);
#563=AXIS2_PLACEMENT_3D('',#864,#722,#723);
#564=AXIS2_PLACEMENT_3D('',#866,#724,#725);
#565=AXIS2_PLACEMENT_3D('',#868,#727,#728);
#566=AXIS2_PLACEMENT_3D('',#870,#729,#730);
#567=AXIS2_PLACEMENT_3D('',#871,#731,#732);
#568=AXIS2_PLACEMENT_3D('',#872,#733,#734);
#569=AXIS2_PLACEMENT_3D('',#874,#735,#736);
#570=AXIS2_PLACEMENT_3D('',#876,#738,#739);
#571=AXIS2_PLACEMENT_3D('',#878,#740,#741);
#572=AXIS2_PLACEMENT_3D('',#879,#742,#743);
#573=AXIS2_PLACEMENT_3D('',#881,#744,#745);
#574=AXIS2_PLACEMENT_3D('',#883,#747,#748);
#575=AXIS2_PLACEMENT_3D('',#884,#749,#750);
#576=AXIS2_PLACEMENT_3D('',#885,#751,#752);
#577=DIRECTION('axis',(0.,0.,1.));
#578=DIRECTION('refdir',(1.,0.,0.));
#579=DIRECTION('axis',(0.,0.,1.));
#580=DIRECTION('refdir',(1.,0.,0.));
#581=DIRECTION('center_axis',(0.,0.,-1.));
#582=DIRECTION('ref_axis',(-1.,0.,0.));
#583=DIRECTION('center_axis',(0.,0.,1.));
#584=DIRECTION('ref_axis',(1.,0.,0.));
#585=DIRECTION('center_axis',(0.,0.,1.));
#586=DIRECTION('ref_axis',(1.,0.,0.));
#587=DIRECTION('',(-0.707106781186543,8.65956056235488E-17,0.707106781186552));
#588=DIRECTION('center_axis',(0.,0.,1.));
#589=DIRECTION('ref_axis',(1.,0.,0.));
#590=DIRECTION('center_axis',(0.,0.,1.));
#591=DIRECTION('ref_axis',(1.,0.,0.));
#592=DIRECTION('',(0.,0.,1.));
#593=DIRECTION('center_axis',(0.,0.,1.));
#594=DIRECTION('ref_axis',(1.,0.,0.));
#595=DIRECTION('center_axis',(0.,0.,-1.));
#596=DIRECTION('ref_axis',(-1.,0.,0.));
#597=DIRECTION('center_axis',(0.,0.,1.));
#598=DIRECTION('ref_axis',(1.,0.,0.));
#599=DIRECTION('center_axis',(0.,0.,1.));
#600=DIRECTION('ref_axis',(1.,0.,0.));
#601=DIRECTION('',(0.,0.,1.));
#602=DIRECTION('center_axis',(0.,0.,1.));
#603=DIRECTION('ref_axis',(1.,0.,0.));
#604=DIRECTION('center_axis',(0.,0.,-1.));
#605=DIRECTION('ref_axis',(-1.,0.,0.));
#606=DIRECTION('center_axis',(0.,0.,1.));
#607=DIRECTION('ref_axis',(1.,0.,0.));
#608=DIRECTION('center_axis',(0.,0.,1.));
#609=DIRECTION('ref_axis',(1.,0.,0.));
#610=DIRECTION('center_axis',(1.22464679914735E-16,-1.,0.));
#611=DIRECTION('ref_axis',(-1.,-1.22464679914735E-16,0.));
#612=DIRECTION('center_axis',(0.,0.,1.));
#613=DIRECTION('ref_axis',(1.,0.,0.));
#614=DIRECTION('center_axis',(0.,0.,1.));
#615=DIRECTION('ref_axis',(1.,0.,0.));
#616=DIRECTION('',(0.,0.,-1.));
#617=DIRECTION('center_axis',(0.,0.,1.));
#618=DIRECTION('ref_axis',(1.,0.,0.));
#619=DIRECTION('center_axis',(0.,0.,1.));
#620=DIRECTION('ref_axis',(1.,0.,0.));
#621=DIRECTION('center_axis',(1.22464679914735E-16,-1.,0.));
#622=DIRECTION('ref_axis',(-1.,-1.22464679914735E-16,0.));
#623=DIRECTION('center_axis',(0.,0.,1.));
#624=DIRECTION('ref_axis',(1.,0.,0.));
#625=DIRECTION('center_axis',(0.,0.,1.));
#626=DIRECTION('ref_axis',(1.,0.,0.));
#627=DIRECTION('center_axis',(0.,0.,1.));
#628=DIRECTION('ref_axis',(1.,0.,0.));
#629=DIRECTION('center_axis',(0.,0.,1.));
#630=DIRECTION('ref_axis',(1.,0.,0.));
#631=DIRECTION('',(0.,0.,1.));
#632=DIRECTION('center_axis',(0.,0.,1.));
#633=DIRECTION('ref_axis',(1.,0.,0.));
#634=DIRECTION('center_axis',(0.,0.,1.));
#635=DIRECTION('ref_axis',(1.,0.,0.));
#636=DIRECTION('center_axis',(0.,0.,1.));
#637=DIRECTION('ref_axis',(1.,0.,0.));
#638=DIRECTION('center_axis',(0.,0.,1.));
#639=DIRECTION('ref_axis',(1.,0.,0.));
#640=DIRECTION('',(0.,0.,1.));
#641=DIRECTION('center_axis',(0.,0.,1.));
#642=DIRECTION('ref_axis',(1.,0.,0.));
#643=DIRECTION('center_axis',(0.,0.,1.));
#644=DIRECTION('ref_axis',(1.,0.,0.));
#645=DIRECTION('',(0.707106781186543,8.65956056235488E-17,-0.707106781186552));
#646=DIRECTION('center_axis',(0.,0.,1.));
#647=DIRECTION('ref_axis',(1.,0.,0.));
#648=DIRECTION('center_axis',(0.,0.,1.));
#649=DIRECTION('ref_axis',(1.,0.,0.));
#650=DIRECTION('center_axis',(0.,0.,1.));
#651=DIRECTION('ref_axis',(1.,0.,0.));
#652=DIRECTION('center_axis',(0.,0.,1.));
#653=DIRECTION('ref_axis',(1.,0.,0.));
#654=DIRECTION('',(0.,0.,1.));
#655=DIRECTION('center_axis',(0.,0.,1.));
#656=DIRECTION('ref_axis',(1.,0.,0.));
#657=DIRECTION('center_axis',(0.,0.,-1.));
#658=DIRECTION('ref_axis',(-1.,0.,0.));
#659=DIRECTION('center_axis',(0.,0.,1.));
#660=DIRECTION('ref_axis',(1.,0.,0.));
#661=DIRECTION('center_axis',(0.,0.,1.));
#662=DIRECTION('ref_axis',(1.,0.,0.));
#663=DIRECTION('',(-0.707106781186544,-8.65956056235489E-17,0.707106781186551));
#664=DIRECTION('center_axis',(0.,0.,1.));
#665=DIRECTION('ref_axis',(1.,0.,0.));
#666=DIRECTION('center_axis',(0.,0.,1.));
#667=DIRECTION('ref_axis',(1.,0.,0.));
#668=DIRECTION('',(0.,0.,1.));
#669=DIRECTION('center_axis',(0.,0.,1.));
#670=DIRECTION('ref_axis',(1.,0.,0.));
#671=DIRECTION('center_axis',(0.,0.,1.));
#672=DIRECTION('ref_axis',(1.,0.,0.));
#673=DIRECTION('center_axis',(-1.22464679914735E-16,1.,0.));
#674=DIRECTION('ref_axis',(-1.,-1.22464679914735E-16,0.));
#675=DIRECTION('center_axis',(0.,0.,1.));
#676=DIRECTION('ref_axis',(1.,0.,0.));
#677=DIRECTION('center_axis',(0.,0.,1.));
#678=DIRECTION('ref_axis',(1.,0.,0.));
#679=DIRECTION('',(0.,0.,1.));
#680=DIRECTION('center_axis',(0.,0.,1.));
#681=DIRECTION('ref_axis',(1.,0.,0.));
#682=DIRECTION('center_axis',(0.,0.,1.));
#683=DIRECTION('ref_axis',(1.,0.,0.));
#684=DIRECTION('center_axis',(0.,0.,-1.));
#685=DIRECTION('ref_axis',(-1.,0.,0.));
#686=DIRECTION('center_axis',(0.,0.,1.));
#687=DIRECTION('ref_axis',(1.,0.,0.));
#688=DIRECTION('',(0.707106781186544,-8.65956056235489E-17,-0.707106781186551));
#689=DIRECTION('center_axis',(0.,0.,1.));
#690=DIRECTION('ref_axis',(1.,0.,0.));
#691=DIRECTION('center_axis',(0.,0.,1.));
#692=DIRECTION('ref_axis',(1.,0.,0.));
#693=DIRECTION('center_axis',(0.,0.,1.));
#694=DIRECTION('ref_axis',(1.,0.,0.));
#695=DIRECTION('',(0.,0.,1.));
#696=DIRECTION('center_axis',(0.,0.,1.));
#697=DIRECTION('ref_axis',(1.,0.,0.));
#698=DIRECTION('center_axis',(0.,0.,-1.));
#699=DIRECTION('ref_axis',(-1.,0.,0.));
#700=DIRECTION('axis',(0.,0.,1.));
#701=DIRECTION('refdir',(1.,0.,0.));
#702=DIRECTION('center_axis',(0.,0.,1.));
#703=DIRECTION('ref_axis',(1.,0.,0.));
#704=DIRECTION('center_axis',(0.,0.,1.));
#705=DIRECTION('ref_axis',(1.,0.,0.));
#706=DIRECTION('',(0.,0.,1.));
#707=DIRECTION('center_axis',(0.,0.,1.));
#708=DIRECTION('ref_axis',(1.,0.,0.));
#709=DIRECTION('center_axis',(0.,0.,1.));
#710=DIRECTION('ref_axis',(1.,0.,0.));
#711=DIRECTION('center_axis',(0.,0.,1.));
#712=DIRECTION('ref_axis',(1.,0.,0.));
#713=DIRECTION('center_axis',(0.,0.,1.));
#714=DIRECTION('ref_axis',(1.,0.,0.));
#715=DIRECTION('center_axis',(0.,0.,1.));
#716=DIRECTION('ref_axis',(1.,0.,0.));
#717=DIRECTION('',(0.,0.,-1.));
#718=DIRECTION('center_axis',(0.,0.,1.));
#719=DIRECTION('ref_axis',(1.,0.,0.));
#720=DIRECTION('center_axis',(0.,0.,1.));
#721=DIRECTION('ref_axis',(1.,0.,0.));
#722=DIRECTION('center_axis',(0.,0.,1.));
#723=DIRECTION('ref_axis',(1.,0.,0.));
#724=DIRECTION('center_axis',(0.,0.,1.));
#725=DIRECTION('ref_axis',(1.,0.,0.));
#726=DIRECTION('',(0.,0.,-1.));
#727=DIRECTION('center_axis',(0.,0.,1.));
#728=DIRECTION('ref_axis',(1.,0.,0.));
#729=DIRECTION('center_axis',(0.,0.,1.));
#730=DIRECTION('ref_axis',(1.,0.,0.));
#731=DIRECTION('center_axis',(-1.22464679914735E-16,1.,0.));
#732=DIRECTION('ref_axis',(-1.,-1.22464679914735E-16,0.));
#733=DIRECTION('center_axis',(0.,0.,1.));
#734=DIRECTION('ref_axis',(1.,0.,0.));
#735=DIRECTION('center_axis',(0.,0.,1.));
#736=DIRECTION('ref_axis',(1.,0.,0.));
#737=DIRECTION('',(0.,0.,-1.));
#738=DIRECTION('center_axis',(0.,0.,-1.));
#739=DIRECTION('ref_axis',(-1.,0.,0.));
#740=DIRECTION('center_axis',(0.,0.,1.));
#741=DIRECTION('ref_axis',(1.,0.,0.));
#742=DIRECTION('center_axis',(0.,0.,1.));
#743=DIRECTION('ref_axis',(1.,0.,0.));
#744=DIRECTION('center_axis',(0.,0.,1.));
#745=DIRECTION('ref_axis',(1.,0.,0.));
#746=DIRECTION('',(0.,0.,-1.));
#747=DIRECTION('center_axis',(0.,0.,-1.));
#748=DIRECTION('ref_axis',(-1.,0.,0.));
#749=DIRECTION('',(0.,0.,1.));
#750=DIRECTION('',(1.,0.,0.));
#751=DIRECTION('',(-1.59046916786607E-16,-1.31018158075635E-16,1.));
#752=DIRECTION('',(-0.241564562433512,-0.970384749558806,-1.61025149459841E-16));
#753=CARTESIAN_POINT('',(0.,0.,0.));
#754=CARTESIAN_POINT('',(0.,0.,0.));
#755=CARTESIAN_POINT('Origin',(0.,0.,2.10000000000001));
#756=CARTESIAN_POINT('',(6.7,0.,2.10000000000001));
#757=CARTESIAN_POINT('',(-6.7,-8.20513355428727E-16,2.10000000000001));
#758=CARTESIAN_POINT('Origin',(0.,0.,2.10000000000001));
#759=CARTESIAN_POINT('Origin',(0.,0.,2.10000000000001));
#760=CARTESIAN_POINT('',(6.4,0.,2.40000000000001));
#761=CARTESIAN_POINT('',(6.7,-8.20513355428727E-16,2.10000000000001));
#762=CARTESIAN_POINT('Origin',(0.,0.,2.40000000000001));
#763=CARTESIAN_POINT('Origin',(0.,0.,6.75539907110854));
#764=CARTESIAN_POINT('',(-6.7,-8.20513355428727E-16,2.20000000000001));
#765=CARTESIAN_POINT('',(-6.7,-8.20513355428727E-16,6.75539907110854));
#766=CARTESIAN_POINT('Origin',(0.,0.,2.20000000000001));
#767=CARTESIAN_POINT('Origin',(0.,7.,2.20000000000001));
#768=CARTESIAN_POINT('',(-7.,-8.57252759403147E-16,2.20000000000001));
#769=CARTESIAN_POINT('Origin',(0.,0.,2.20000000000001));
#770=CARTESIAN_POINT('Origin',(0.,0.,6.75539907110854));
#771=CARTESIAN_POINT('',(-7.,-8.57252759403147E-16,2.50000000000001));
#772=CARTESIAN_POINT('',(-7.,-8.57252759403147E-16,6.75539907110854));
#773=CARTESIAN_POINT('Origin',(0.,0.,2.50000000000001));
#774=CARTESIAN_POINT('Origin',(0.,7.,2.50000000000001));
#775=CARTESIAN_POINT('',(-7.8,-9.55224503334935E-16,2.50000000000001));
#776=CARTESIAN_POINT('Origin',(0.,0.,2.50000000000001));
#777=CARTESIAN_POINT('Origin',(0.,0.,2.30000000000001));
#778=CARTESIAN_POINT('',(-8.,-9.79717439317883E-16,2.30000000000001));
#779=CARTESIAN_POINT('Origin',(-7.8,-9.55224503334935E-16,2.30000000000001));
#780=CARTESIAN_POINT('Origin',(0.,0.,2.30000000000001));
#781=CARTESIAN_POINT('Origin',(0.,0.,6.75539907110854));
#782=CARTESIAN_POINT('',(-8.,-9.79717439317883E-16,-2.30000000000001));
#783=CARTESIAN_POINT('',(-8.,-9.79717439317883E-16,6.75539907110854));
#784=CARTESIAN_POINT('Origin',(0.,0.,-2.30000000000001));
#785=CARTESIAN_POINT('Origin',(0.,0.,-2.30000000000001));
#786=CARTESIAN_POINT('',(-7.8,-9.55224503334935E-16,-2.50000000000001));
#787=CARTESIAN_POINT('Origin',(-7.8,-9.55224503334935E-16,-2.30000000000001));
#788=CARTESIAN_POINT('Origin',(0.,0.,-2.50000000000001));
#789=CARTESIAN_POINT('Origin',(0.,7.,-2.50000000000001));
#790=CARTESIAN_POINT('',(-7.,-8.57252759403147E-16,-2.50000000000001));
#791=CARTESIAN_POINT('Origin',(0.,0.,-2.50000000000001));
#792=CARTESIAN_POINT('Origin',(0.,0.,6.75539907110854));
#793=CARTESIAN_POINT('',(-7.,-8.57252759403147E-16,-2.20000000000001));
#794=CARTESIAN_POINT('',(-7.,-8.57252759403147E-16,6.75539907110854));
#795=CARTESIAN_POINT('Origin',(0.,0.,-2.20000000000001));
#796=CARTESIAN_POINT('Origin',(0.,7.,-2.20000000000001));
#797=CARTESIAN_POINT('',(-6.7,-8.20513355428726E-16,-2.20000000000001));
#798=CARTESIAN_POINT('Origin',(0.,0.,-2.20000000000001));
#799=CARTESIAN_POINT('Origin',(0.,0.,6.75539907110854));
#800=CARTESIAN_POINT('',(-6.7,-8.20513355428726E-16,-2.10000000000001));
#801=CARTESIAN_POINT('',(-6.7,-8.20513355428726E-16,6.75539907110854));
#802=CARTESIAN_POINT('Origin',(0.,0.,-2.10000000000001));
#803=CARTESIAN_POINT('Origin',(0.,0.,-2.40000000000001));
#804=CARTESIAN_POINT('',(-6.4,-7.83773951454306E-16,-2.40000000000001));
#805=CARTESIAN_POINT('',(-6.4,-7.83773951454306E-16,-2.40000000000001));
#806=CARTESIAN_POINT('Origin',(0.,0.,-2.40000000000001));
#807=CARTESIAN_POINT('Origin',(0.,6.4,-2.40000000000001));
#808=CARTESIAN_POINT('',(-5.20290790050683,-6.37172450661417E-16,-2.40000000000001));
#809=CARTESIAN_POINT('Origin',(0.,0.,-2.40000000000001));
#810=CARTESIAN_POINT('Origin',(0.,0.,6.75539907110854));
#811=CARTESIAN_POINT('',(-5.20290790050683,-6.37172450661417E-16,-2.30000000000001));
#812=CARTESIAN_POINT('',(-5.20290790050683,-6.37172450661417E-16,6.75539907110854));
#813=CARTESIAN_POINT('Origin',(0.,0.,-2.30000000000001));
#814=CARTESIAN_POINT('Origin',(0.,5.20290790050683,-2.30000000000001));
#815=CARTESIAN_POINT('',(-6.35857864376269,-7.7870129832107E-16,-2.30000000000001));
#816=CARTESIAN_POINT('Origin',(0.,0.,-2.30000000000001));
#817=CARTESIAN_POINT('Origin',(0.,0.,-1.9585786437627));
#818=CARTESIAN_POINT('',(-6.7,-8.20513355428726E-16,-1.9585786437627));
#819=CARTESIAN_POINT('',(-6.7,-8.20513355428726E-16,-1.9585786437627));
#820=CARTESIAN_POINT('Origin',(0.,0.,-1.9585786437627));
#821=CARTESIAN_POINT('Origin',(0.,0.,6.75539907110854));
#822=CARTESIAN_POINT('',(-6.7,-8.20513355428727E-16,-0.714142842854286));
#823=CARTESIAN_POINT('',(-6.7,-8.20513355428727E-16,6.75539907110854));
#824=CARTESIAN_POINT('Origin',(0.,0.,-0.714142842854286));
#825=CARTESIAN_POINT('Origin',(0.,0.,1.13925931405703E-15));
#826=CARTESIAN_POINT('',(-6.7,-8.20513355428727E-16,0.714142842854286));
#827=CARTESIAN_POINT('Origin',(-6.,-7.34788079488412E-16,1.13925931405703E-15));
#828=CARTESIAN_POINT('Origin',(0.,0.,0.714142842854286));
#829=CARTESIAN_POINT('Origin',(0.,0.,6.75539907110854));
#830=CARTESIAN_POINT('',(-6.7,-8.20513355428727E-16,1.9585786437627));
#831=CARTESIAN_POINT('',(-6.7,-8.20513355428727E-16,6.75539907110854));
#832=CARTESIAN_POINT('',(6.7,0.,1.9585786437627));
#833=CARTESIAN_POINT('Origin',(0.,0.,1.9585786437627));
#834=CARTESIAN_POINT('Origin',(0.,0.,1.9585786437627));
#835=CARTESIAN_POINT('Origin',(0.,0.,2.30000000000001));
#836=CARTESIAN_POINT('',(6.35857864376269,0.,2.30000000000001));
#837=CARTESIAN_POINT('Origin',(0.,0.,2.30000000000001));
#838=CARTESIAN_POINT('',(6.35857864376269,-7.7870129832107E-16,2.30000000000001));
#839=CARTESIAN_POINT('Origin',(0.,5.20290790050684,2.30000000000001));
#840=CARTESIAN_POINT('',(-5.20290790050684,-6.37172450661417E-16,2.30000000000001));
#841=CARTESIAN_POINT('Origin',(0.,0.,2.30000000000001));
#842=CARTESIAN_POINT('Origin',(0.,0.,6.75539907110854));
#843=CARTESIAN_POINT('',(-5.20290790050684,-6.37172450661417E-16,2.40000000000001));
#844=CARTESIAN_POINT('',(-5.20290790050684,-6.37172450661417E-16,6.75539907110854));
#845=CARTESIAN_POINT('Origin',(0.,0.,2.40000000000001));
#846=CARTESIAN_POINT('Origin',(0.,6.4,2.40000000000001));
#847=CARTESIAN_POINT('',(0.,0.,0.));
#848=CARTESIAN_POINT('Origin',(0.,0.,6.75539907110854));
#849=CARTESIAN_POINT('',(-4.,-4.89858719658941E-16,-2.5));
#850=CARTESIAN_POINT('Origin',(0.,0.,-2.5));
#851=CARTESIAN_POINT('',(-4.,-4.89858719658941E-16,2.5));
#852=CARTESIAN_POINT('',(-4.,-4.89858719658941E-16,6.75539907110854));
#853=CARTESIAN_POINT('Origin',(0.,0.,2.5));
#854=CARTESIAN_POINT('Origin',(0.,5.15,-2.5));
#855=CARTESIAN_POINT('',(-5.15,-6.30693101560887E-16,-2.5));
#856=CARTESIAN_POINT('Origin',(0.,0.,-2.5));
#857=CARTESIAN_POINT('Origin',(0.,0.,6.75539907110854));
#858=CARTESIAN_POINT('',(-5.15,-6.30693101560887E-16,-2.25000000000001));
#859=CARTESIAN_POINT('Origin',(0.,0.,-2.25000000000001));
#860=CARTESIAN_POINT('',(-5.15,-6.30693101560887E-16,6.75539907110854));
#861=CARTESIAN_POINT('Origin',(0.,5.3,-2.25000000000001));
#862=CARTESIAN_POINT('',(-5.3,-6.49062803548097E-16,-2.25000000000001));
#863=CARTESIAN_POINT('Origin',(0.,0.,-2.25000000000001));
#864=CARTESIAN_POINT('Origin',(0.,0.,6.75539907110854));
#865=CARTESIAN_POINT('',(-5.3,-6.49062803548097E-16,-0.714142842854286));
#866=CARTESIAN_POINT('Origin',(0.,0.,-0.714142842854286));
#867=CARTESIAN_POINT('',(-5.3,-6.49062803548097E-16,6.75539907110854));
#868=CARTESIAN_POINT('Origin',(0.,0.,1.13925931405703E-15));
#869=CARTESIAN_POINT('',(-5.3,-6.49062803548097E-16,0.714142842854288));
#870=CARTESIAN_POINT('Origin',(0.,0.,0.714142842854288));
#871=CARTESIAN_POINT('Origin',(-6.,-7.34788079488412E-16,1.13925931405703E-15));
#872=CARTESIAN_POINT('Origin',(0.,0.,6.75539907110854));
#873=CARTESIAN_POINT('',(-5.3,-6.49062803548097E-16,2.25000000000001));
#874=CARTESIAN_POINT('Origin',(0.,0.,2.25000000000001));
#875=CARTESIAN_POINT('',(-5.3,-6.49062803548097E-16,6.75539907110854));
#876=CARTESIAN_POINT('Origin',(0.,5.3,2.25000000000001));
#877=CARTESIAN_POINT('',(-5.15,-6.30693101560887E-16,2.25000000000001));
#878=CARTESIAN_POINT('Origin',(0.,0.,2.25000000000001));
#879=CARTESIAN_POINT('Origin',(0.,0.,6.75539907110854));
#880=CARTESIAN_POINT('',(-5.15,-6.30693101560887E-16,2.5));
#881=CARTESIAN_POINT('Origin',(0.,0.,2.5));
#882=CARTESIAN_POINT('',(-5.15,-6.30693101560887E-16,6.75539907110854));
#883=CARTESIAN_POINT('Origin',(0.,5.15,2.5));
#884=CARTESIAN_POINT('',(0.,0.,0.));
#885=CARTESIAN_POINT('',(0.,0.,0.));
#886=UNCERTAINTY_MEASURE_WITH_UNIT(LENGTH_MEASURE(0.01),#894,
'DISTANCE_ACCURACY_VALUE',
'Maximum model space distance between geometric entities at asserted c
onnectivities');
#887=UNCERTAINTY_MEASURE_WITH_UNIT(LENGTH_MEASURE(0.01),#894,
'DISTANCE_ACCURACY_VALUE',
'Maximum model space distance between geometric entities at asserted c
onnectivities');
#888=UNCERTAINTY_MEASURE_WITH_UNIT(LENGTH_MEASURE(0.01),#894,
'DISTANCE_ACCURACY_VALUE',
'Maximum model space distance between geometric entities at asserted c
onnectivities');
#889=UNCERTAINTY_MEASURE_WITH_UNIT(LENGTH_MEASURE(0.01),#894,
'DISTANCE_ACCURACY_VALUE',
'Maximum model space distance between geometric entities at asserted c
onnectivities');
#890=(
GEOMETRIC_REPRESENTATION_CONTEXT(3)
GLOBAL_UNCERTAINTY_ASSIGNED_CONTEXT((#886))
GLOBAL_UNIT_ASSIGNED_CONTEXT((#894,#896,#897))
REPRESENTATION_CONTEXT('','3D')
);
#891=(
GEOMETRIC_REPRESENTATION_CONTEXT(3)
GLOBAL_UNCERTAINTY_ASSIGNED_CONTEXT((#887))
GLOBAL_UNIT_ASSIGNED_CONTEXT((#894,#896,#897))
REPRESENTATION_CONTEXT('','3D')
);
#892=(
GEOMETRIC_REPRESENTATION_CONTEXT(3)
GLOBAL_UNCERTAINTY_ASSIGNED_CONTEXT((#888))
GLOBAL_UNIT_ASSIGNED_CONTEXT((#894,#896,#897))
REPRESENTATION_CONTEXT('','3D')
);
#893=(
GEOMETRIC_REPRESENTATION_CONTEXT(3)
GLOBAL_UNCERTAINTY_ASSIGNED_CONTEXT((#889))
GLOBAL_UNIT_ASSIGNED_CONTEXT((#894,#896,#897))
REPRESENTATION_CONTEXT('','3D')
);
#894=(
LENGTH_UNIT()
NAMED_UNIT(*)
SI_UNIT(.MILLI.,.METRE.)
);
#895=(
LENGTH_UNIT()
NAMED_UNIT(*)
SI_UNIT($,.METRE.)
);
#896=(
NAMED_UNIT(*)
PLANE_ANGLE_UNIT()
SI_UNIT($,.RADIAN.)
);
#897=(
NAMED_UNIT(*)
SI_UNIT($,.STERADIAN.)
SOLID_ANGLE_UNIT()
);
#898=SHAPE_DEFINITION_REPRESENTATION(#901,#906);
#899=SHAPE_DEFINITION_REPRESENTATION(#902,#907);
#900=SHAPE_DEFINITION_REPRESENTATION(#903,#908);
#901=PRODUCT_DEFINITION_SHAPE('',$,#910);
#902=PRODUCT_DEFINITION_SHAPE('',$,#911);
#903=PRODUCT_DEFINITION_SHAPE('',$,#912);
#904=PRODUCT_DEFINITION_SHAPE($,$,#17);
#905=PRODUCT_DEFINITION_SHAPE($,$,#18);
#906=SHAPE_REPRESENTATION('',(#498,#575,#576),#890);
#907=SHAPE_REPRESENTATION('',(#499),#891);
#908=SHAPE_REPRESENTATION('',(#553),#892);
#909=PRODUCT_DEFINITION_CONTEXT('part definition',#920,'design');
#910=PRODUCT_DEFINITION('688ZZ Bearing Assembly',
'16mmOD 8mmID Bearing v3',#913,#909);
#911=PRODUCT_DEFINITION('Outer Ring','Outer Ring',#914,#909);
#912=PRODUCT_DEFINITION('Inner Ring','Inner Ring',#915,#909);
#913=PRODUCT_DEFINITION_FORMATION('',$,#922);
#914=PRODUCT_DEFINITION_FORMATION('',$,#923);
#915=PRODUCT_DEFINITION_FORMATION('',$,#924);
#916=PRODUCT_RELATED_PRODUCT_CATEGORY('16mmOD 8mmID Bearing v3',
'16mmOD 8mmID Bearing v3',(#922));
#917=PRODUCT_RELATED_PRODUCT_CATEGORY('Outer Ring','Outer Ring',(#923));
#918=PRODUCT_RELATED_PRODUCT_CATEGORY('Inner Ring','Inner Ring',(#924));
#919=APPLICATION_PROTOCOL_DEFINITION('international standard',
'automotive_design',2009,#920);
#920=APPLICATION_CONTEXT(
'Core Data for Automotive Mechanical Design Process');
#921=PRODUCT_CONTEXT('part definition',#920,'mechanical');
#922=PRODUCT('688ZZ Bearing Assembly','16mmOD 8mmID Bearing v3',$,(#921));
#923=PRODUCT('Outer Ring','Outer Ring',$,(#921));
#924=PRODUCT('Inner Ring','Inner Ring',$,(#921));
#925=PRESENTATION_STYLE_ASSIGNMENT((#926));
#926=SURFACE_STYLE_USAGE(.BOTH.,#927);
#927=SURFACE_SIDE_STYLE('',(#928));
#928=SURFACE_STYLE_FILL_AREA(#929);
#929=FILL_AREA_STYLE('Steel - Satin',(#930));
#930=FILL_AREA_STYLE_COLOUR('Steel - Satin',#931);
#931=COLOUR_RGB('Steel - Satin',0.627450980392157,0.627450980392157,0.627450980392157);
ENDSEC;
END-ISO-10303-21;
