ISO-10303-21;
HEADER;
/* Generated by software containing ST-Developer
 * from STEP Tools, Inc. (www.steptools.com) 
 */

FILE_DESCRIPTION(
/* description */ (''),
/* implementation_level */ '2;1');

FILE_NAME(
/* name */ '7mm OD 2mm ID Bearing.step',
/* time_stamp */ '2026-03-10T17:19:07Z',
/* author */ (''),
/* organization */ (''),
/* preprocessor_version */ 'ST-DEVELOPER v20.1',
/* originating_system */ 'Autodesk Translation Framework v14.21.0.0',
/* authorisation */ '');

FILE_SCHEMA (('AUTOMOTIVE_DESIGN { 1 0 10303 214 3 1 1 }'));
ENDSEC;

DATA;
#10=MECHANICAL_DESIGN_GEOMETRIC_PRESENTATION_REPRESENTATION('',(#13),#741);
#11=SHAPE_REPRESENTATION_RELATIONSHIP('SRR','None',#748,#12);
#12=ADVANCED_BREP_SHAPE_REPRESENTATION('',(#14),#740);
#13=STYLED_ITEM('',(#757),#14);
#14=MANIFOLD_SOLID_BREP('Body1',#301);
#15=FACE_BOUND('',#64,.T.);
#16=FACE_BOUND('',#67,.T.);
#17=FACE_BOUND('',#69,.T.);
#18=FACE_BOUND('',#74,.T.);
#19=FACE_BOUND('',#76,.T.);
#20=FACE_BOUND('',#78,.T.);
#21=FACE_BOUND('',#81,.T.);
#22=FACE_BOUND('',#85,.T.);
#23=FACE_BOUND('',#88,.T.);
#24=FACE_BOUND('',#92,.T.);
#25=PLANE('',#320);
#26=PLANE('',#324);
#27=PLANE('',#326);
#28=PLANE('',#335);
#29=PLANE('',#337);
#30=PLANE('',#339);
#31=PLANE('',#343);
#32=PLANE('',#349);
#33=PLANE('',#352);
#34=PLANE('',#358);
#35=(
BOUNDED_CURVE()
B_SPLINE_CURVE(5,(#559,#560,#561,#562,#563,#564,#565,#566,#567,#568),
 .UNSPECIFIED.,.F.,.F.)
B_SPLINE_CURVE_WITH_KNOTS((6,1,1,1,1,6),(0.,0.2,0.4,0.6,0.8,1.),
 .UNSPECIFIED.)
CURVE()
GEOMETRIC_REPRESENTATION_ITEM()
RATIONAL_B_SPLINE_CURVE((1.,1.,1.,1.,1.,1.,1.,1.,1.,1.))
REPRESENTATION_ITEM('')
);
#36=(
BOUNDED_CURVE()
B_SPLINE_CURVE(5,(#676,#677,#678,#679,#680,#681,#682,#683,#684,#685),
 .UNSPECIFIED.,.F.,.F.)
B_SPLINE_CURVE_WITH_KNOTS((6,1,1,1,1,6),(0.,0.2,0.4,0.6,0.8,1.),
 .UNSPECIFIED.)
CURVE()
GEOMETRIC_REPRESENTATION_ITEM()
RATIONAL_B_SPLINE_CURVE((1.,1.,1.,1.,1.,1.,1.,1.,1.,1.))
REPRESENTATION_ITEM('')
);
#37=(
BOUNDED_SURFACE()
B_SPLINE_SURFACE(5,2,((#468,#469,#470,#471,#472,#473,#474,#475,#476),(#477,
#478,#479,#480,#481,#482,#483,#484,#485),(#486,#487,#488,#489,#490,#491,
#492,#493,#494),(#495,#496,#497,#498,#499,#500,#501,#502,#503),(#504,#505,
#506,#507,#508,#509,#510,#511,#512),(#513,#514,#515,#516,#517,#518,#519,
#520,#521),(#522,#523,#524,#525,#526,#527,#528,#529,#530),(#531,#532,#533,
#534,#535,#536,#537,#538,#539),(#540,#541,#542,#543,#544,#545,#546,#547,
#548),(#549,#550,#551,#552,#553,#554,#555,#556,#557)),.UNSPECIFIED.,.F.,
 .T.,.F.)
B_SPLINE_SURFACE_WITH_KNOTS((6,1,1,1,1,6),(3,2,2,2,3),(-1.,-0.8,-0.6,-0.4,
-0.2,0.),(0.,1.5707963267949,3.14159265358979,4.71238898038469,6.28318530717959),
 .UNSPECIFIED.)
GEOMETRIC_REPRESENTATION_ITEM()
RATIONAL_B_SPLINE_SURFACE(((1.,0.707106781186548,1.,0.707106781186548,1.,
0.707106781186548,1.,0.707106781186548,1.),(1.,0.707106781186548,1.,0.707106781186548,
1.,0.707106781186548,1.,0.707106781186548,1.),(1.,0.707106781186548,1.,
0.707106781186548,1.,0.707106781186548,1.,0.707106781186548,1.),(1.,0.707106781186548,
1.,0.707106781186548,1.,0.707106781186548,1.,0.707106781186548,1.),(1.,
0.707106781186548,1.,0.707106781186548,1.,0.707106781186548,1.,0.707106781186548,
1.),(1.,0.707106781186548,1.,0.707106781186548,1.,0.707106781186548,1.,
0.707106781186548,1.),(1.,0.707106781186548,1.,0.707106781186548,1.,0.707106781186548,
1.,0.707106781186548,1.),(1.,0.707106781186548,1.,0.707106781186548,1.,
0.707106781186548,1.,0.707106781186548,1.),(1.,0.707106781186548,1.,0.707106781186548,
1.,0.707106781186548,1.,0.707106781186548,1.),(1.,0.707106781186548,1.,
0.707106781186548,1.,0.707106781186548,1.,0.707106781186548,1.)))
REPRESENTATION_ITEM('')
SURFACE()
);
#38=(
BOUNDED_SURFACE()
B_SPLINE_SURFACE(5,2,((#585,#586,#587,#588,#589,#590,#591,#592,#593),(#594,
#595,#596,#597,#598,#599,#600,#601,#602),(#603,#604,#605,#606,#607,#608,
#609,#610,#611),(#612,#613,#614,#615,#616,#617,#618,#619,#620),(#621,#622,
#623,#624,#625,#626,#627,#628,#629),(#630,#631,#632,#633,#634,#635,#636,
#637,#638),(#639,#640,#641,#642,#643,#644,#645,#646,#647),(#648,#649,#650,
#651,#652,#653,#654,#655,#656),(#657,#658,#659,#660,#661,#662,#663,#664,
#665),(#666,#667,#668,#669,#670,#671,#672,#673,#674)),.UNSPECIFIED.,.F.,
 .T.,.F.)
B_SPLINE_SURFACE_WITH_KNOTS((6,1,1,1,1,6),(3,2,2,2,3),(0.,0.2,0.4,0.6,0.8,
1.),(0.,1.5707963267949,3.14159265358979,4.71238898038469,6.28318530717959),
 .UNSPECIFIED.)
GEOMETRIC_REPRESENTATION_ITEM()
RATIONAL_B_SPLINE_SURFACE(((1.,0.707106781186548,1.,0.707106781186548,1.,
0.707106781186548,1.,0.707106781186548,1.),(1.,0.707106781186548,1.,0.707106781186548,
1.,0.707106781186548,1.,0.707106781186548,1.),(1.,0.707106781186548,1.,
0.707106781186548,1.,0.707106781186548,1.,0.707106781186548,1.),(1.,0.707106781186548,
1.,0.707106781186548,1.,0.707106781186548,1.,0.707106781186548,1.),(1.,
0.707106781186548,1.,0.707106781186548,1.,0.707106781186548,1.,0.707106781186548,
1.),(1.,0.707106781186548,1.,0.707106781186548,1.,0.707106781186548,1.,
0.707106781186548,1.),(1.,0.707106781186548,1.,0.707106781186548,1.,0.707106781186548,
1.,0.707106781186548,1.),(1.,0.707106781186548,1.,0.707106781186548,1.,
0.707106781186548,1.,0.707106781186548,1.),(1.,0.707106781186548,1.,0.707106781186548,
1.,0.707106781186548,1.,0.707106781186548,1.),(1.,0.707106781186548,1.,
0.707106781186548,1.,0.707106781186548,1.,0.707106781186548,1.)))
REPRESENTATION_ITEM('')
SURFACE()
);
#39=FACE_OUTER_BOUND('',#61,.T.);
#40=FACE_OUTER_BOUND('',#62,.T.);
#41=FACE_OUTER_BOUND('',#63,.T.);
#42=FACE_OUTER_BOUND('',#65,.T.);
#43=FACE_OUTER_BOUND('',#66,.T.);
#44=FACE_OUTER_BOUND('',#68,.T.);
#45=FACE_OUTER_BOUND('',#70,.T.);
#46=FACE_OUTER_BOUND('',#71,.T.);
#47=FACE_OUTER_BOUND('',#72,.T.);
#48=FACE_OUTER_BOUND('',#73,.T.);
#49=FACE_OUTER_BOUND('',#75,.T.);
#50=FACE_OUTER_BOUND('',#77,.T.);
#51=FACE_OUTER_BOUND('',#79,.T.);
#52=FACE_OUTER_BOUND('',#80,.T.);
#53=FACE_OUTER_BOUND('',#82,.T.);
#54=FACE_OUTER_BOUND('',#83,.T.);
#55=FACE_OUTER_BOUND('',#84,.T.);
#56=FACE_OUTER_BOUND('',#86,.T.);
#57=FACE_OUTER_BOUND('',#87,.T.);
#58=FACE_OUTER_BOUND('',#89,.T.);
#59=FACE_OUTER_BOUND('',#90,.T.);
#60=FACE_OUTER_BOUND('',#91,.T.);
#61=EDGE_LOOP('',(#197,#198,#199,#200,#201));
#62=EDGE_LOOP('',(#202,#203,#204,#205,#206));
#63=EDGE_LOOP('',(#207));
#64=EDGE_LOOP('',(#208));
#65=EDGE_LOOP('',(#209,#210,#211,#212));
#66=EDGE_LOOP('',(#213));
#67=EDGE_LOOP('',(#214));
#68=EDGE_LOOP('',(#215));
#69=EDGE_LOOP('',(#216));
#70=EDGE_LOOP('',(#217,#218,#219,#220,#221));
#71=EDGE_LOOP('',(#222,#223,#224,#225,#226));
#72=EDGE_LOOP('',(#227,#228,#229,#230));
#73=EDGE_LOOP('',(#231));
#74=EDGE_LOOP('',(#232));
#75=EDGE_LOOP('',(#233));
#76=EDGE_LOOP('',(#234));
#77=EDGE_LOOP('',(#235));
#78=EDGE_LOOP('',(#236));
#79=EDGE_LOOP('',(#237,#238,#239,#240));
#80=EDGE_LOOP('',(#241));
#81=EDGE_LOOP('',(#242));
#82=EDGE_LOOP('',(#243,#244,#245,#246));
#83=EDGE_LOOP('',(#247,#248,#249,#250));
#84=EDGE_LOOP('',(#251));
#85=EDGE_LOOP('',(#252));
#86=EDGE_LOOP('',(#253,#254,#255,#256));
#87=EDGE_LOOP('',(#257));
#88=EDGE_LOOP('',(#258));
#89=EDGE_LOOP('',(#259,#260,#261,#262));
#90=EDGE_LOOP('',(#263,#264,#265,#266));
#91=EDGE_LOOP('',(#267));
#92=EDGE_LOOP('',(#268));
#93=LINE('',#464,#103);
#94=LINE('',#576,#104);
#95=LINE('',#691,#105);
#96=LINE('',#695,#106);
#97=LINE('',#709,#107);
#98=LINE('',#718,#108);
#99=LINE('',#720,#109);
#100=LINE('',#725,#110);
#101=LINE('',#732,#111);
#102=LINE('',#736,#112);
#103=VECTOR('',#365,1.45);
#104=VECTOR('',#380,2.39999994635582);
#105=VECTOR('',#397,1.45);
#106=VECTOR('',#402,2.39999994635582);
#107=VECTOR('',#421,1.35);
#108=VECTOR('',#432,1.);
#109=VECTOR('',#435,1.35);
#110=VECTOR('',#442,2.5);
#111=VECTOR('',#451,2.5);
#112=VECTOR('',#456,3.5);
#113=CIRCLE('',#316,1.45);
#114=CIRCLE('',#317,1.45);
#115=CIRCLE('',#318,1.45);
#116=CIRCLE('',#319,2.19999995082617);
#117=CIRCLE('',#321,2.39999994635582);
#118=CIRCLE('',#323,2.39999994635582);
#119=CIRCLE('',#325,2.5);
#120=CIRCLE('',#327,2.39999994635582);
#121=CIRCLE('',#328,2.19999995082617);
#122=CIRCLE('',#329,1.45);
#123=CIRCLE('',#330,1.45);
#124=CIRCLE('',#332,1.45);
#125=CIRCLE('',#334,2.39999994635582);
#126=CIRCLE('',#336,2.5);
#127=CIRCLE('',#338,1.35);
#128=CIRCLE('',#340,1.35);
#129=CIRCLE('',#342,1.35);
#130=CIRCLE('',#344,1.35);
#131=CIRCLE('',#345,1.);
#132=CIRCLE('',#347,1.);
#133=CIRCLE('',#351,2.5);
#134=CIRCLE('',#353,3.5);
#135=CIRCLE('',#354,2.5);
#136=CIRCLE('',#357,3.5);
#137=VERTEX_POINT('',#461);
#138=VERTEX_POINT('',#463);
#139=VERTEX_POINT('',#465);
#140=VERTEX_POINT('',#558);
#141=VERTEX_POINT('',#571);
#142=VERTEX_POINT('',#574);
#143=VERTEX_POINT('',#578);
#144=VERTEX_POINT('',#581);
#145=VERTEX_POINT('',#583);
#146=VERTEX_POINT('',#675);
#147=VERTEX_POINT('',#686);
#148=VERTEX_POINT('',#690);
#149=VERTEX_POINT('',#694);
#150=VERTEX_POINT('',#698);
#151=VERTEX_POINT('',#701);
#152=VERTEX_POINT('',#704);
#153=VERTEX_POINT('',#707);
#154=VERTEX_POINT('',#711);
#155=VERTEX_POINT('',#713);
#156=VERTEX_POINT('',#716);
#157=VERTEX_POINT('',#723);
#158=VERTEX_POINT('',#727);
#159=VERTEX_POINT('',#729);
#160=VERTEX_POINT('',#734);
#161=EDGE_CURVE('',#137,#137,#113,.T.);
#162=EDGE_CURVE('',#137,#138,#93,.T.);
#163=EDGE_CURVE('',#139,#138,#114,.T.);
#164=EDGE_CURVE('',#138,#139,#115,.T.);
#165=EDGE_CURVE('',#139,#140,#35,.T.);
#166=EDGE_CURVE('',#140,#140,#116,.T.);
#167=EDGE_CURVE('',#141,#141,#117,.T.);
#168=EDGE_CURVE('',#142,#142,#118,.T.);
#169=EDGE_CURVE('',#142,#141,#94,.T.);
#170=EDGE_CURVE('',#143,#143,#119,.T.);
#171=EDGE_CURVE('',#144,#144,#120,.T.);
#172=EDGE_CURVE('',#145,#145,#121,.T.);
#173=EDGE_CURVE('',#146,#145,#36,.T.);
#174=EDGE_CURVE('',#147,#146,#122,.T.);
#175=EDGE_CURVE('',#146,#147,#123,.T.);
#176=EDGE_CURVE('',#147,#148,#95,.T.);
#177=EDGE_CURVE('',#148,#148,#124,.T.);
#178=EDGE_CURVE('',#144,#149,#96,.T.);
#179=EDGE_CURVE('',#149,#149,#125,.T.);
#180=EDGE_CURVE('',#150,#150,#126,.T.);
#181=EDGE_CURVE('',#151,#151,#127,.T.);
#182=EDGE_CURVE('',#152,#152,#128,.T.);
#183=EDGE_CURVE('',#153,#153,#129,.T.);
#184=EDGE_CURVE('',#153,#152,#97,.T.);
#185=EDGE_CURVE('',#154,#154,#130,.T.);
#186=EDGE_CURVE('',#155,#155,#131,.T.);
#187=EDGE_CURVE('',#156,#156,#132,.T.);
#188=EDGE_CURVE('',#156,#155,#98,.T.);
#189=EDGE_CURVE('',#151,#154,#99,.T.);
#190=EDGE_CURVE('',#157,#157,#133,.T.);
#191=EDGE_CURVE('',#157,#150,#100,.T.);
#192=EDGE_CURVE('',#158,#158,#134,.T.);
#193=EDGE_CURVE('',#159,#159,#135,.T.);
#194=EDGE_CURVE('',#143,#159,#101,.T.);
#195=EDGE_CURVE('',#160,#160,#136,.T.);
#196=EDGE_CURVE('',#160,#158,#102,.T.);
#197=ORIENTED_EDGE('',*,*,#161,.F.);
#198=ORIENTED_EDGE('',*,*,#162,.T.);
#199=ORIENTED_EDGE('',*,*,#163,.F.);
#200=ORIENTED_EDGE('',*,*,#164,.F.);
#201=ORIENTED_EDGE('',*,*,#162,.F.);
#202=ORIENTED_EDGE('',*,*,#165,.F.);
#203=ORIENTED_EDGE('',*,*,#163,.T.);
#204=ORIENTED_EDGE('',*,*,#164,.T.);
#205=ORIENTED_EDGE('',*,*,#165,.T.);
#206=ORIENTED_EDGE('',*,*,#166,.F.);
#207=ORIENTED_EDGE('',*,*,#167,.F.);
#208=ORIENTED_EDGE('',*,*,#166,.T.);
#209=ORIENTED_EDGE('',*,*,#168,.F.);
#210=ORIENTED_EDGE('',*,*,#169,.T.);
#211=ORIENTED_EDGE('',*,*,#167,.T.);
#212=ORIENTED_EDGE('',*,*,#169,.F.);
#213=ORIENTED_EDGE('',*,*,#170,.F.);
#214=ORIENTED_EDGE('',*,*,#168,.T.);
#215=ORIENTED_EDGE('',*,*,#171,.T.);
#216=ORIENTED_EDGE('',*,*,#172,.F.);
#217=ORIENTED_EDGE('',*,*,#173,.T.);
#218=ORIENTED_EDGE('',*,*,#172,.T.);
#219=ORIENTED_EDGE('',*,*,#173,.F.);
#220=ORIENTED_EDGE('',*,*,#174,.F.);
#221=ORIENTED_EDGE('',*,*,#175,.F.);
#222=ORIENTED_EDGE('',*,*,#175,.T.);
#223=ORIENTED_EDGE('',*,*,#176,.T.);
#224=ORIENTED_EDGE('',*,*,#177,.F.);
#225=ORIENTED_EDGE('',*,*,#176,.F.);
#226=ORIENTED_EDGE('',*,*,#174,.T.);
#227=ORIENTED_EDGE('',*,*,#171,.F.);
#228=ORIENTED_EDGE('',*,*,#178,.T.);
#229=ORIENTED_EDGE('',*,*,#179,.F.);
#230=ORIENTED_EDGE('',*,*,#178,.F.);
#231=ORIENTED_EDGE('',*,*,#180,.F.);
#232=ORIENTED_EDGE('',*,*,#179,.T.);
#233=ORIENTED_EDGE('',*,*,#161,.T.);
#234=ORIENTED_EDGE('',*,*,#181,.F.);
#235=ORIENTED_EDGE('',*,*,#177,.T.);
#236=ORIENTED_EDGE('',*,*,#182,.F.);
#237=ORIENTED_EDGE('',*,*,#183,.F.);
#238=ORIENTED_EDGE('',*,*,#184,.T.);
#239=ORIENTED_EDGE('',*,*,#182,.T.);
#240=ORIENTED_EDGE('',*,*,#184,.F.);
#241=ORIENTED_EDGE('',*,*,#185,.T.);
#242=ORIENTED_EDGE('',*,*,#186,.T.);
#243=ORIENTED_EDGE('',*,*,#187,.F.);
#244=ORIENTED_EDGE('',*,*,#188,.T.);
#245=ORIENTED_EDGE('',*,*,#186,.F.);
#246=ORIENTED_EDGE('',*,*,#188,.F.);
#247=ORIENTED_EDGE('',*,*,#181,.T.);
#248=ORIENTED_EDGE('',*,*,#189,.T.);
#249=ORIENTED_EDGE('',*,*,#185,.F.);
#250=ORIENTED_EDGE('',*,*,#189,.F.);
#251=ORIENTED_EDGE('',*,*,#183,.T.);
#252=ORIENTED_EDGE('',*,*,#187,.T.);
#253=ORIENTED_EDGE('',*,*,#190,.F.);
#254=ORIENTED_EDGE('',*,*,#191,.T.);
#255=ORIENTED_EDGE('',*,*,#180,.T.);
#256=ORIENTED_EDGE('',*,*,#191,.F.);
#257=ORIENTED_EDGE('',*,*,#192,.T.);
#258=ORIENTED_EDGE('',*,*,#193,.T.);
#259=ORIENTED_EDGE('',*,*,#170,.T.);
#260=ORIENTED_EDGE('',*,*,#194,.T.);
#261=ORIENTED_EDGE('',*,*,#193,.F.);
#262=ORIENTED_EDGE('',*,*,#194,.F.);
#263=ORIENTED_EDGE('',*,*,#195,.F.);
#264=ORIENTED_EDGE('',*,*,#196,.T.);
#265=ORIENTED_EDGE('',*,*,#192,.F.);
#266=ORIENTED_EDGE('',*,*,#196,.F.);
#267=ORIENTED_EDGE('',*,*,#195,.T.);
#268=ORIENTED_EDGE('',*,*,#190,.T.);
#269=CYLINDRICAL_SURFACE('',#315,1.45);
#270=CYLINDRICAL_SURFACE('',#322,2.39999994635582);
#271=CYLINDRICAL_SURFACE('',#331,1.45);
#272=CYLINDRICAL_SURFACE('',#333,2.39999994635582);
#273=CYLINDRICAL_SURFACE('',#341,1.35);
#274=CYLINDRICAL_SURFACE('',#346,1.);
#275=CYLINDRICAL_SURFACE('',#348,1.35);
#276=CYLINDRICAL_SURFACE('',#350,2.5);
#277=CYLINDRICAL_SURFACE('',#355,2.5);
#278=CYLINDRICAL_SURFACE('',#356,3.5);
#279=ADVANCED_FACE('',(#39),#269,.F.);
#280=ADVANCED_FACE('',(#40),#37,.T.);
#281=ADVANCED_FACE('',(#41,#15),#25,.T.);
#282=ADVANCED_FACE('',(#42),#270,.T.);
#283=ADVANCED_FACE('',(#43,#16),#26,.F.);
#284=ADVANCED_FACE('',(#44,#17),#27,.T.);
#285=ADVANCED_FACE('',(#45),#38,.T.);
#286=ADVANCED_FACE('',(#46),#271,.F.);
#287=ADVANCED_FACE('',(#47),#272,.T.);
#288=ADVANCED_FACE('',(#48,#18),#28,.T.);
#289=ADVANCED_FACE('',(#49,#19),#29,.F.);
#290=ADVANCED_FACE('',(#50,#20),#30,.T.);
#291=ADVANCED_FACE('',(#51),#273,.T.);
#292=ADVANCED_FACE('',(#52,#21),#31,.F.);
#293=ADVANCED_FACE('',(#53),#274,.F.);
#294=ADVANCED_FACE('',(#54),#275,.T.);
#295=ADVANCED_FACE('',(#55,#22),#32,.T.);
#296=ADVANCED_FACE('',(#56),#276,.F.);
#297=ADVANCED_FACE('',(#57,#23),#33,.F.);
#298=ADVANCED_FACE('',(#58),#277,.F.);
#299=ADVANCED_FACE('',(#59),#278,.T.);
#300=ADVANCED_FACE('',(#60,#24),#34,.T.);
#301=CLOSED_SHELL('',(#279,#280,#281,#282,#283,#284,#285,#286,#287,#288,
#289,#290,#291,#292,#293,#294,#295,#296,#297,#298,#299,#300));
#302=DERIVED_UNIT_ELEMENT(#304,1.);
#303=DERIVED_UNIT_ELEMENT(#743,-3.);
#304=(
MASS_UNIT()
NAMED_UNIT(*)
SI_UNIT(.KILO.,.GRAM.)
);
#305=DERIVED_UNIT((#302,#303));
#306=MEASURE_REPRESENTATION_ITEM('density measure',
POSITIVE_RATIO_MEASURE(7850.),#305);
#307=PROPERTY_DEFINITION_REPRESENTATION(#312,#309);
#308=PROPERTY_DEFINITION_REPRESENTATION(#313,#310);
#309=REPRESENTATION('material name',(#311),#740);
#310=REPRESENTATION('density',(#306),#740);
#311=DESCRIPTIVE_REPRESENTATION_ITEM('Steel','Steel');
#312=PROPERTY_DEFINITION('material property','material name',#750);
#313=PROPERTY_DEFINITION('material property','density of part',#750);
#314=AXIS2_PLACEMENT_3D('',#459,#359,#360);
#315=AXIS2_PLACEMENT_3D('',#460,#361,#362);
#316=AXIS2_PLACEMENT_3D('',#462,#363,#364);
#317=AXIS2_PLACEMENT_3D('',#466,#366,#367);
#318=AXIS2_PLACEMENT_3D('',#467,#368,#369);
#319=AXIS2_PLACEMENT_3D('',#569,#370,#371);
#320=AXIS2_PLACEMENT_3D('',#570,#372,#373);
#321=AXIS2_PLACEMENT_3D('',#572,#374,#375);
#322=AXIS2_PLACEMENT_3D('',#573,#376,#377);
#323=AXIS2_PLACEMENT_3D('',#575,#378,#379);
#324=AXIS2_PLACEMENT_3D('',#577,#381,#382);
#325=AXIS2_PLACEMENT_3D('',#579,#383,#384);
#326=AXIS2_PLACEMENT_3D('',#580,#385,#386);
#327=AXIS2_PLACEMENT_3D('',#582,#387,#388);
#328=AXIS2_PLACEMENT_3D('',#584,#389,#390);
#329=AXIS2_PLACEMENT_3D('',#687,#391,#392);
#330=AXIS2_PLACEMENT_3D('',#688,#393,#394);
#331=AXIS2_PLACEMENT_3D('',#689,#395,#396);
#332=AXIS2_PLACEMENT_3D('',#692,#398,#399);
#333=AXIS2_PLACEMENT_3D('',#693,#400,#401);
#334=AXIS2_PLACEMENT_3D('',#696,#403,#404);
#335=AXIS2_PLACEMENT_3D('',#697,#405,#406);
#336=AXIS2_PLACEMENT_3D('',#699,#407,#408);
#337=AXIS2_PLACEMENT_3D('',#700,#409,#410);
#338=AXIS2_PLACEMENT_3D('',#702,#411,#412);
#339=AXIS2_PLACEMENT_3D('',#703,#413,#414);
#340=AXIS2_PLACEMENT_3D('',#705,#415,#416);
#341=AXIS2_PLACEMENT_3D('',#706,#417,#418);
#342=AXIS2_PLACEMENT_3D('',#708,#419,#420);
#343=AXIS2_PLACEMENT_3D('',#710,#422,#423);
#344=AXIS2_PLACEMENT_3D('',#712,#424,#425);
#345=AXIS2_PLACEMENT_3D('',#714,#426,#427);
#346=AXIS2_PLACEMENT_3D('',#715,#428,#429);
#347=AXIS2_PLACEMENT_3D('',#717,#430,#431);
#348=AXIS2_PLACEMENT_3D('',#719,#433,#434);
#349=AXIS2_PLACEMENT_3D('',#721,#436,#437);
#350=AXIS2_PLACEMENT_3D('',#722,#438,#439);
#351=AXIS2_PLACEMENT_3D('',#724,#440,#441);
#352=AXIS2_PLACEMENT_3D('',#726,#443,#444);
#353=AXIS2_PLACEMENT_3D('',#728,#445,#446);
#354=AXIS2_PLACEMENT_3D('',#730,#447,#448);
#355=AXIS2_PLACEMENT_3D('',#731,#449,#450);
#356=AXIS2_PLACEMENT_3D('',#733,#452,#453);
#357=AXIS2_PLACEMENT_3D('',#735,#454,#455);
#358=AXIS2_PLACEMENT_3D('',#737,#457,#458);
#359=DIRECTION('axis',(0.,0.,1.));
#360=DIRECTION('refdir',(1.,0.,0.));
#361=DIRECTION('center_axis',(1.,0.,0.));
#362=DIRECTION('ref_axis',(0.,1.,0.));
#363=DIRECTION('center_axis',(-1.,0.,0.));
#364=DIRECTION('ref_axis',(0.,1.,0.));
#365=DIRECTION('',(-1.,0.,0.));
#366=DIRECTION('center_axis',(1.,0.,0.));
#367=DIRECTION('ref_axis',(0.,0.,-1.));
#368=DIRECTION('center_axis',(1.,0.,0.));
#369=DIRECTION('ref_axis',(0.,0.,-1.));
#370=DIRECTION('center_axis',(1.,0.,0.));
#371=DIRECTION('ref_axis',(0.,0.,-1.));
#372=DIRECTION('center_axis',(-1.,0.,0.));
#373=DIRECTION('ref_axis',(0.,0.,1.));
#374=DIRECTION('center_axis',(1.,0.,0.));
#375=DIRECTION('ref_axis',(0.,0.,-1.));
#376=DIRECTION('center_axis',(1.,0.,0.));
#377=DIRECTION('ref_axis',(0.,1.,0.));
#378=DIRECTION('center_axis',(1.,0.,0.));
#379=DIRECTION('ref_axis',(0.,1.,0.));
#380=DIRECTION('',(-1.,0.,0.));
#381=DIRECTION('center_axis',(1.,0.,0.));
#382=DIRECTION('ref_axis',(0.,0.,-1.));
#383=DIRECTION('center_axis',(1.,0.,0.));
#384=DIRECTION('ref_axis',(0.,0.,-1.));
#385=DIRECTION('center_axis',(1.,0.,0.));
#386=DIRECTION('ref_axis',(0.,0.,-1.));
#387=DIRECTION('center_axis',(1.,0.,0.));
#388=DIRECTION('ref_axis',(0.,0.,-1.));
#389=DIRECTION('center_axis',(1.,0.,0.));
#390=DIRECTION('ref_axis',(0.,0.,-1.));
#391=DIRECTION('center_axis',(1.,0.,0.));
#392=DIRECTION('ref_axis',(0.,0.,-1.));
#393=DIRECTION('center_axis',(1.,0.,0.));
#394=DIRECTION('ref_axis',(0.,0.,-1.));
#395=DIRECTION('center_axis',(1.,0.,0.));
#396=DIRECTION('ref_axis',(0.,1.,0.));
#397=DIRECTION('',(-1.,0.,0.));
#398=DIRECTION('center_axis',(1.,0.,0.));
#399=DIRECTION('ref_axis',(0.,1.,0.));
#400=DIRECTION('center_axis',(1.,0.,0.));
#401=DIRECTION('ref_axis',(0.,1.,0.));
#402=DIRECTION('',(-1.,0.,0.));
#403=DIRECTION('center_axis',(-1.,0.,0.));
#404=DIRECTION('ref_axis',(0.,1.,0.));
#405=DIRECTION('center_axis',(1.,0.,0.));
#406=DIRECTION('ref_axis',(0.,0.,-1.));
#407=DIRECTION('center_axis',(-1.,0.,0.));
#408=DIRECTION('ref_axis',(0.,0.,-1.));
#409=DIRECTION('center_axis',(1.,0.,0.));
#410=DIRECTION('ref_axis',(0.,0.,-1.));
#411=DIRECTION('center_axis',(-1.,0.,0.));
#412=DIRECTION('ref_axis',(0.,0.,-1.));
#413=DIRECTION('center_axis',(1.,0.,0.));
#414=DIRECTION('ref_axis',(0.,0.,-1.));
#415=DIRECTION('center_axis',(1.,0.,0.));
#416=DIRECTION('ref_axis',(0.,0.,-1.));
#417=DIRECTION('center_axis',(1.,0.,0.));
#418=DIRECTION('ref_axis',(0.,0.,-1.));
#419=DIRECTION('center_axis',(1.,0.,0.));
#420=DIRECTION('ref_axis',(0.,0.,-1.));
#421=DIRECTION('',(-1.,0.,0.));
#422=DIRECTION('center_axis',(1.,0.,0.));
#423=DIRECTION('ref_axis',(0.,0.,-1.));
#424=DIRECTION('center_axis',(-1.,0.,0.));
#425=DIRECTION('ref_axis',(0.,0.,-1.));
#426=DIRECTION('center_axis',(1.,0.,0.));
#427=DIRECTION('ref_axis',(0.,0.,-1.));
#428=DIRECTION('center_axis',(1.,0.,0.));
#429=DIRECTION('ref_axis',(0.,0.,-1.));
#430=DIRECTION('center_axis',(-1.,0.,0.));
#431=DIRECTION('ref_axis',(0.,0.,-1.));
#432=DIRECTION('',(-1.,0.,0.));
#433=DIRECTION('center_axis',(1.,0.,0.));
#434=DIRECTION('ref_axis',(0.,0.,-1.));
#435=DIRECTION('',(-1.,0.,0.));
#436=DIRECTION('center_axis',(1.,0.,0.));
#437=DIRECTION('ref_axis',(0.,0.,-1.));
#438=DIRECTION('center_axis',(1.,0.,0.));
#439=DIRECTION('ref_axis',(0.,0.,-1.));
#440=DIRECTION('center_axis',(-1.,0.,0.));
#441=DIRECTION('ref_axis',(0.,0.,-1.));
#442=DIRECTION('',(-1.,0.,0.));
#443=DIRECTION('center_axis',(1.,0.,0.));
#444=DIRECTION('ref_axis',(0.,0.,-1.));
#445=DIRECTION('center_axis',(-1.,0.,0.));
#446=DIRECTION('ref_axis',(0.,0.,-1.));
#447=DIRECTION('center_axis',(1.,0.,0.));
#448=DIRECTION('ref_axis',(0.,0.,-1.));
#449=DIRECTION('center_axis',(1.,0.,0.));
#450=DIRECTION('ref_axis',(0.,0.,-1.));
#451=DIRECTION('',(-1.,0.,0.));
#452=DIRECTION('center_axis',(1.,0.,0.));
#453=DIRECTION('ref_axis',(0.,0.,-1.));
#454=DIRECTION('center_axis',(1.,0.,0.));
#455=DIRECTION('ref_axis',(0.,0.,-1.));
#456=DIRECTION('',(-1.,0.,0.));
#457=DIRECTION('center_axis',(1.,0.,0.));
#458=DIRECTION('ref_axis',(0.,0.,-1.));
#459=CARTESIAN_POINT('',(0.,0.,0.));
#460=CARTESIAN_POINT('Origin',(-1.25,0.,0.));
#461=CARTESIAN_POINT('',(-1.,-1.45,-1.77573785876366E-16));
#462=CARTESIAN_POINT('Origin',(-1.,0.,0.));
#463=CARTESIAN_POINT('',(-1.5,-1.45,-1.77573785876366E-16));
#464=CARTESIAN_POINT('',(-1.25,-1.45,-1.77573785876366E-16));
#465=CARTESIAN_POINT('',(-1.5,1.45,0.));
#466=CARTESIAN_POINT('Origin',(-1.5,0.,0.));
#467=CARTESIAN_POINT('Origin',(-1.5,0.,0.));
#468=CARTESIAN_POINT('Ctrl Pts',(-1.24999997206032,2.19999995082617,0.));
#469=CARTESIAN_POINT('Ctrl Pts',(-1.24999997206032,2.19999995082617,2.19999995082617));
#470=CARTESIAN_POINT('Ctrl Pts',(-1.24999997206032,0.,2.19999995082617));
#471=CARTESIAN_POINT('Ctrl Pts',(-1.24999997206032,-2.19999995082617,2.19999995082617));
#472=CARTESIAN_POINT('Ctrl Pts',(-1.24999997206032,-2.19999995082617,0.));
#473=CARTESIAN_POINT('Ctrl Pts',(-1.24999997206032,-2.19999995082617,-2.19999995082617));
#474=CARTESIAN_POINT('Ctrl Pts',(-1.24999997206032,0.,-2.19999995082617));
#475=CARTESIAN_POINT('Ctrl Pts',(-1.24999997206032,2.19999995082617,-2.19999995082617));
#476=CARTESIAN_POINT('Ctrl Pts',(-1.24999997206032,2.19999995082617,0.));
#477=CARTESIAN_POINT('Ctrl Pts',(-1.26554589859141,2.17134992271953,0.));
#478=CARTESIAN_POINT('Ctrl Pts',(-1.26554589859141,2.17134992271953,2.17134992271953));
#479=CARTESIAN_POINT('Ctrl Pts',(-1.26554589859141,0.,2.17134992271953));
#480=CARTESIAN_POINT('Ctrl Pts',(-1.26554589859141,-2.17134992271953,2.17134992271953));
#481=CARTESIAN_POINT('Ctrl Pts',(-1.26554589859141,-2.17134992271953,0.));
#482=CARTESIAN_POINT('Ctrl Pts',(-1.26554589859141,-2.17134992271953,-2.17134992271953));
#483=CARTESIAN_POINT('Ctrl Pts',(-1.26554589859141,0.,-2.17134992271953));
#484=CARTESIAN_POINT('Ctrl Pts',(-1.26554589859141,2.17134992271953,-2.17134992271953));
#485=CARTESIAN_POINT('Ctrl Pts',(-1.26554589859141,2.17134992271953,0.));
#486=CARTESIAN_POINT('Ctrl Pts',(-1.29599300977476,2.11389292567461,0.));
#487=CARTESIAN_POINT('Ctrl Pts',(-1.29599300977476,2.11389292567461,2.11389292567461));
#488=CARTESIAN_POINT('Ctrl Pts',(-1.29599300977476,0.,2.11389292567461));
#489=CARTESIAN_POINT('Ctrl Pts',(-1.29599300977476,-2.11389292567461,2.11389292567461));
#490=CARTESIAN_POINT('Ctrl Pts',(-1.29599300977476,-2.11389292567461,0.));
#491=CARTESIAN_POINT('Ctrl Pts',(-1.29599300977476,-2.11389292567461,-2.11389292567461));
#492=CARTESIAN_POINT('Ctrl Pts',(-1.29599300977476,0.,-2.11389292567461));
#493=CARTESIAN_POINT('Ctrl Pts',(-1.29599300977476,2.11389292567461,-2.11389292567461));
#494=CARTESIAN_POINT('Ctrl Pts',(-1.29599300977476,2.11389292567461,0.));
#495=CARTESIAN_POINT('Ctrl Pts',(-1.3397302641323,2.02723680556322,0.));
#496=CARTESIAN_POINT('Ctrl Pts',(-1.3397302641323,2.02723680556322,2.02723680556322));
#497=CARTESIAN_POINT('Ctrl Pts',(-1.3397302641323,0.,2.02723680556322));
#498=CARTESIAN_POINT('Ctrl Pts',(-1.3397302641323,-2.02723680556322,2.02723680556322));
#499=CARTESIAN_POINT('Ctrl Pts',(-1.3397302641323,-2.02723680556322,0.));
#500=CARTESIAN_POINT('Ctrl Pts',(-1.3397302641323,-2.02723680556322,-2.02723680556322));
#501=CARTESIAN_POINT('Ctrl Pts',(-1.3397302641323,0.,-2.02723680556322));
#502=CARTESIAN_POINT('Ctrl Pts',(-1.3397302641323,2.02723680556322,-2.02723680556322));
#503=CARTESIAN_POINT('Ctrl Pts',(-1.3397302641323,2.02723680556322,0.));
#504=CARTESIAN_POINT('Ctrl Pts',(-1.39391106524074,1.91068865375832,0.));
#505=CARTESIAN_POINT('Ctrl Pts',(-1.39391106524074,1.91068865375832,1.91068865375832));
#506=CARTESIAN_POINT('Ctrl Pts',(-1.39391106524074,0.,1.91068865375832));
#507=CARTESIAN_POINT('Ctrl Pts',(-1.39391106524074,-1.91068865375832,1.91068865375832));
#508=CARTESIAN_POINT('Ctrl Pts',(-1.39391106524074,-1.91068865375832,0.));
#509=CARTESIAN_POINT('Ctrl Pts',(-1.39391106524074,-1.91068865375832,-1.91068865375832));
#510=CARTESIAN_POINT('Ctrl Pts',(-1.39391106524074,0.,-1.91068865375832));
#511=CARTESIAN_POINT('Ctrl Pts',(-1.39391106524074,1.91068865375832,-1.91068865375832));
#512=CARTESIAN_POINT('Ctrl Pts',(-1.39391106524074,1.91068865375832,0.));
#513=CARTESIAN_POINT('Ctrl Pts',(-1.45137249290643,1.76250489707309,0.));
#514=CARTESIAN_POINT('Ctrl Pts',(-1.45137249290643,1.76250489707309,1.76250489707309));
#515=CARTESIAN_POINT('Ctrl Pts',(-1.45137249290643,0.,1.76250489707309));
#516=CARTESIAN_POINT('Ctrl Pts',(-1.45137249290643,-1.76250489707309,1.76250489707309));
#517=CARTESIAN_POINT('Ctrl Pts',(-1.45137249290643,-1.76250489707309,0.));
#518=CARTESIAN_POINT('Ctrl Pts',(-1.45137249290643,-1.76250489707309,-1.76250489707309));
#519=CARTESIAN_POINT('Ctrl Pts',(-1.45137249290643,0.,-1.76250489707309));
#520=CARTESIAN_POINT('Ctrl Pts',(-1.45137249290643,1.76250489707309,-1.76250489707309));
#521=CARTESIAN_POINT('Ctrl Pts',(-1.45137249290643,1.76250489707309,0.));
#522=CARTESIAN_POINT('Ctrl Pts',(-1.48395568826693,1.64069953099485,0.));
#523=CARTESIAN_POINT('Ctrl Pts',(-1.48395568826693,1.64069953099485,1.64069953099485));
#524=CARTESIAN_POINT('Ctrl Pts',(-1.48395568826693,0.,1.64069953099485));
#525=CARTESIAN_POINT('Ctrl Pts',(-1.48395568826693,-1.64069953099485,1.64069953099485));
#526=CARTESIAN_POINT('Ctrl Pts',(-1.48395568826693,-1.64069953099485,0.));
#527=CARTESIAN_POINT('Ctrl Pts',(-1.48395568826693,-1.64069953099485,-1.64069953099485));
#528=CARTESIAN_POINT('Ctrl Pts',(-1.48395568826693,0.,-1.64069953099485));
#529=CARTESIAN_POINT('Ctrl Pts',(-1.48395568826693,1.64069953099485,-1.64069953099485));
#530=CARTESIAN_POINT('Ctrl Pts',(-1.48395568826693,1.64069953099485,0.));
#531=CARTESIAN_POINT('Ctrl Pts',(-1.4970814203121,1.54659206030752,0.));
#532=CARTESIAN_POINT('Ctrl Pts',(-1.4970814203121,1.54659206030752,1.54659206030752));
#533=CARTESIAN_POINT('Ctrl Pts',(-1.4970814203121,0.,1.54659206030752));
#534=CARTESIAN_POINT('Ctrl Pts',(-1.4970814203121,-1.54659206030752,1.54659206030752));
#535=CARTESIAN_POINT('Ctrl Pts',(-1.4970814203121,-1.54659206030752,0.));
#536=CARTESIAN_POINT('Ctrl Pts',(-1.4970814203121,-1.54659206030752,-1.54659206030752));
#537=CARTESIAN_POINT('Ctrl Pts',(-1.4970814203121,0.,-1.54659206030752));
#538=CARTESIAN_POINT('Ctrl Pts',(-1.4970814203121,1.54659206030752,-1.54659206030752));
#539=CARTESIAN_POINT('Ctrl Pts',(-1.4970814203121,1.54659206030752,0.));
#540=CARTESIAN_POINT('Ctrl Pts',(-1.5,1.48243416361706,0.));
#541=CARTESIAN_POINT('Ctrl Pts',(-1.5,1.48243416361706,1.48243416361706));
#542=CARTESIAN_POINT('Ctrl Pts',(-1.5,0.,1.48243416361706));
#543=CARTESIAN_POINT('Ctrl Pts',(-1.5,-1.48243416361706,1.48243416361706));
#544=CARTESIAN_POINT('Ctrl Pts',(-1.5,-1.48243416361706,0.));
#545=CARTESIAN_POINT('Ctrl Pts',(-1.5,-1.48243416361706,-1.48243416361706));
#546=CARTESIAN_POINT('Ctrl Pts',(-1.5,0.,-1.48243416361706));
#547=CARTESIAN_POINT('Ctrl Pts',(-1.5,1.48243416361706,-1.48243416361706));
#548=CARTESIAN_POINT('Ctrl Pts',(-1.5,1.48243416361706,0.));
#549=CARTESIAN_POINT('Ctrl Pts',(-1.5,1.45,0.));
#550=CARTESIAN_POINT('Ctrl Pts',(-1.5,1.45,1.45));
#551=CARTESIAN_POINT('Ctrl Pts',(-1.5,0.,1.45));
#552=CARTESIAN_POINT('Ctrl Pts',(-1.5,-1.45,1.45));
#553=CARTESIAN_POINT('Ctrl Pts',(-1.5,-1.45,0.));
#554=CARTESIAN_POINT('Ctrl Pts',(-1.5,-1.45,-1.45));
#555=CARTESIAN_POINT('Ctrl Pts',(-1.5,0.,-1.45));
#556=CARTESIAN_POINT('Ctrl Pts',(-1.5,1.45,-1.45));
#557=CARTESIAN_POINT('Ctrl Pts',(-1.5,1.45,0.));
#558=CARTESIAN_POINT('',(-1.24999997206032,2.19999995082617,0.));
#559=CARTESIAN_POINT('Ctrl Pts',(-1.5,1.45,0.));
#560=CARTESIAN_POINT('Ctrl Pts',(-1.5,1.48243416361706,0.));
#561=CARTESIAN_POINT('Ctrl Pts',(-1.4970814203121,1.54659206030752,0.));
#562=CARTESIAN_POINT('Ctrl Pts',(-1.48395568826693,1.64069953099485,0.));
#563=CARTESIAN_POINT('Ctrl Pts',(-1.45137249290643,1.76250489707309,0.));
#564=CARTESIAN_POINT('Ctrl Pts',(-1.39391106524074,1.91068865375832,0.));
#565=CARTESIAN_POINT('Ctrl Pts',(-1.3397302641323,2.02723680556322,0.));
#566=CARTESIAN_POINT('Ctrl Pts',(-1.29599300977476,2.11389292567461,0.));
#567=CARTESIAN_POINT('Ctrl Pts',(-1.26554589859141,2.17134992271953,0.));
#568=CARTESIAN_POINT('Ctrl Pts',(-1.24999997206032,2.19999995082617,0.));
#569=CARTESIAN_POINT('Origin',(-1.24999997206032,0.,0.));
#570=CARTESIAN_POINT('Origin',(-1.24999997206032,2.39999994635582,0.));
#571=CARTESIAN_POINT('',(-1.24999997206032,-2.39999994635582,-2.93915225225847E-16));
#572=CARTESIAN_POINT('Origin',(-1.24999997206032,0.,0.));
#573=CARTESIAN_POINT('Origin',(-1.12499997485429,0.,0.));
#574=CARTESIAN_POINT('',(-1.,-2.39999994635582,-2.93915225225847E-16));
#575=CARTESIAN_POINT('Origin',(-1.,0.,0.));
#576=CARTESIAN_POINT('',(-1.12499997485429,-2.39999994635582,-2.93915225225847E-16));
#577=CARTESIAN_POINT('Origin',(-1.,0.,0.));
#578=CARTESIAN_POINT('',(-1.,-3.06161699786838E-16,2.5));
#579=CARTESIAN_POINT('Origin',(-1.,0.,0.));
#580=CARTESIAN_POINT('Origin',(1.24999997206032,2.19999995082617,0.));
#581=CARTESIAN_POINT('',(1.24999997206032,-2.39999994635582,-2.93915225225847E-16));
#582=CARTESIAN_POINT('Origin',(1.24999997206032,0.,0.));
#583=CARTESIAN_POINT('',(1.24999997206032,2.19999995082617,0.));
#584=CARTESIAN_POINT('Origin',(1.24999997206032,0.,0.));
#585=CARTESIAN_POINT('Ctrl Pts',(1.5,1.45,0.));
#586=CARTESIAN_POINT('Ctrl Pts',(1.5,1.45,1.45));
#587=CARTESIAN_POINT('Ctrl Pts',(1.5,0.,1.45));
#588=CARTESIAN_POINT('Ctrl Pts',(1.5,-1.45,1.45));
#589=CARTESIAN_POINT('Ctrl Pts',(1.5,-1.45,0.));
#590=CARTESIAN_POINT('Ctrl Pts',(1.5,-1.45,-1.45));
#591=CARTESIAN_POINT('Ctrl Pts',(1.5,0.,-1.45));
#592=CARTESIAN_POINT('Ctrl Pts',(1.5,1.45,-1.45));
#593=CARTESIAN_POINT('Ctrl Pts',(1.5,1.45,0.));
#594=CARTESIAN_POINT('Ctrl Pts',(1.5,1.48243416361706,0.));
#595=CARTESIAN_POINT('Ctrl Pts',(1.5,1.48243416361706,1.48243416361706));
#596=CARTESIAN_POINT('Ctrl Pts',(1.5,0.,1.48243416361706));
#597=CARTESIAN_POINT('Ctrl Pts',(1.5,-1.48243416361706,1.48243416361706));
#598=CARTESIAN_POINT('Ctrl Pts',(1.5,-1.48243416361706,0.));
#599=CARTESIAN_POINT('Ctrl Pts',(1.5,-1.48243416361706,-1.48243416361706));
#600=CARTESIAN_POINT('Ctrl Pts',(1.5,0.,-1.48243416361706));
#601=CARTESIAN_POINT('Ctrl Pts',(1.5,1.48243416361706,-1.48243416361706));
#602=CARTESIAN_POINT('Ctrl Pts',(1.5,1.48243416361706,0.));
#603=CARTESIAN_POINT('Ctrl Pts',(1.4970814203121,1.54659206030752,0.));
#604=CARTESIAN_POINT('Ctrl Pts',(1.4970814203121,1.54659206030752,1.54659206030752));
#605=CARTESIAN_POINT('Ctrl Pts',(1.4970814203121,0.,1.54659206030752));
#606=CARTESIAN_POINT('Ctrl Pts',(1.4970814203121,-1.54659206030752,1.54659206030752));
#607=CARTESIAN_POINT('Ctrl Pts',(1.4970814203121,-1.54659206030752,0.));
#608=CARTESIAN_POINT('Ctrl Pts',(1.4970814203121,-1.54659206030752,-1.54659206030752));
#609=CARTESIAN_POINT('Ctrl Pts',(1.4970814203121,0.,-1.54659206030752));
#610=CARTESIAN_POINT('Ctrl Pts',(1.4970814203121,1.54659206030752,-1.54659206030752));
#611=CARTESIAN_POINT('Ctrl Pts',(1.4970814203121,1.54659206030752,0.));
#612=CARTESIAN_POINT('Ctrl Pts',(1.48395568826693,1.64069953099485,0.));
#613=CARTESIAN_POINT('Ctrl Pts',(1.48395568826693,1.64069953099485,1.64069953099485));
#614=CARTESIAN_POINT('Ctrl Pts',(1.48395568826693,0.,1.64069953099485));
#615=CARTESIAN_POINT('Ctrl Pts',(1.48395568826693,-1.64069953099485,1.64069953099485));
#616=CARTESIAN_POINT('Ctrl Pts',(1.48395568826693,-1.64069953099485,0.));
#617=CARTESIAN_POINT('Ctrl Pts',(1.48395568826693,-1.64069953099485,-1.64069953099485));
#618=CARTESIAN_POINT('Ctrl Pts',(1.48395568826693,0.,-1.64069953099485));
#619=CARTESIAN_POINT('Ctrl Pts',(1.48395568826693,1.64069953099485,-1.64069953099485));
#620=CARTESIAN_POINT('Ctrl Pts',(1.48395568826693,1.64069953099485,0.));
#621=CARTESIAN_POINT('Ctrl Pts',(1.45137249290643,1.76250489707309,0.));
#622=CARTESIAN_POINT('Ctrl Pts',(1.45137249290643,1.76250489707309,1.76250489707309));
#623=CARTESIAN_POINT('Ctrl Pts',(1.45137249290643,0.,1.76250489707309));
#624=CARTESIAN_POINT('Ctrl Pts',(1.45137249290643,-1.76250489707309,1.76250489707309));
#625=CARTESIAN_POINT('Ctrl Pts',(1.45137249290643,-1.76250489707309,0.));
#626=CARTESIAN_POINT('Ctrl Pts',(1.45137249290643,-1.76250489707309,-1.76250489707309));
#627=CARTESIAN_POINT('Ctrl Pts',(1.45137249290643,0.,-1.76250489707309));
#628=CARTESIAN_POINT('Ctrl Pts',(1.45137249290643,1.76250489707309,-1.76250489707309));
#629=CARTESIAN_POINT('Ctrl Pts',(1.45137249290643,1.76250489707309,0.));
#630=CARTESIAN_POINT('Ctrl Pts',(1.39391106524074,1.91068865375832,0.));
#631=CARTESIAN_POINT('Ctrl Pts',(1.39391106524074,1.91068865375832,1.91068865375832));
#632=CARTESIAN_POINT('Ctrl Pts',(1.39391106524074,0.,1.91068865375832));
#633=CARTESIAN_POINT('Ctrl Pts',(1.39391106524074,-1.91068865375832,1.91068865375832));
#634=CARTESIAN_POINT('Ctrl Pts',(1.39391106524074,-1.91068865375832,0.));
#635=CARTESIAN_POINT('Ctrl Pts',(1.39391106524074,-1.91068865375832,-1.91068865375832));
#636=CARTESIAN_POINT('Ctrl Pts',(1.39391106524074,0.,-1.91068865375832));
#637=CARTESIAN_POINT('Ctrl Pts',(1.39391106524074,1.91068865375832,-1.91068865375832));
#638=CARTESIAN_POINT('Ctrl Pts',(1.39391106524074,1.91068865375832,0.));
#639=CARTESIAN_POINT('Ctrl Pts',(1.3397302641323,2.02723680556322,0.));
#640=CARTESIAN_POINT('Ctrl Pts',(1.3397302641323,2.02723680556322,2.02723680556322));
#641=CARTESIAN_POINT('Ctrl Pts',(1.3397302641323,0.,2.02723680556322));
#642=CARTESIAN_POINT('Ctrl Pts',(1.3397302641323,-2.02723680556322,2.02723680556322));
#643=CARTESIAN_POINT('Ctrl Pts',(1.3397302641323,-2.02723680556322,0.));
#644=CARTESIAN_POINT('Ctrl Pts',(1.3397302641323,-2.02723680556322,-2.02723680556322));
#645=CARTESIAN_POINT('Ctrl Pts',(1.3397302641323,0.,-2.02723680556322));
#646=CARTESIAN_POINT('Ctrl Pts',(1.3397302641323,2.02723680556322,-2.02723680556322));
#647=CARTESIAN_POINT('Ctrl Pts',(1.3397302641323,2.02723680556322,0.));
#648=CARTESIAN_POINT('Ctrl Pts',(1.29599300977476,2.11389292567461,0.));
#649=CARTESIAN_POINT('Ctrl Pts',(1.29599300977476,2.11389292567461,2.11389292567461));
#650=CARTESIAN_POINT('Ctrl Pts',(1.29599300977476,0.,2.11389292567461));
#651=CARTESIAN_POINT('Ctrl Pts',(1.29599300977476,-2.11389292567461,2.11389292567461));
#652=CARTESIAN_POINT('Ctrl Pts',(1.29599300977476,-2.11389292567461,0.));
#653=CARTESIAN_POINT('Ctrl Pts',(1.29599300977476,-2.11389292567461,-2.11389292567461));
#654=CARTESIAN_POINT('Ctrl Pts',(1.29599300977476,0.,-2.11389292567461));
#655=CARTESIAN_POINT('Ctrl Pts',(1.29599300977476,2.11389292567461,-2.11389292567461));
#656=CARTESIAN_POINT('Ctrl Pts',(1.29599300977476,2.11389292567461,0.));
#657=CARTESIAN_POINT('Ctrl Pts',(1.26554589859141,2.17134992271953,0.));
#658=CARTESIAN_POINT('Ctrl Pts',(1.26554589859141,2.17134992271953,2.17134992271953));
#659=CARTESIAN_POINT('Ctrl Pts',(1.26554589859141,0.,2.17134992271953));
#660=CARTESIAN_POINT('Ctrl Pts',(1.26554589859141,-2.17134992271953,2.17134992271953));
#661=CARTESIAN_POINT('Ctrl Pts',(1.26554589859141,-2.17134992271953,0.));
#662=CARTESIAN_POINT('Ctrl Pts',(1.26554589859141,-2.17134992271953,-2.17134992271953));
#663=CARTESIAN_POINT('Ctrl Pts',(1.26554589859141,0.,-2.17134992271953));
#664=CARTESIAN_POINT('Ctrl Pts',(1.26554589859141,2.17134992271953,-2.17134992271953));
#665=CARTESIAN_POINT('Ctrl Pts',(1.26554589859141,2.17134992271953,0.));
#666=CARTESIAN_POINT('Ctrl Pts',(1.24999997206032,2.19999995082617,0.));
#667=CARTESIAN_POINT('Ctrl Pts',(1.24999997206032,2.19999995082617,2.19999995082617));
#668=CARTESIAN_POINT('Ctrl Pts',(1.24999997206032,0.,2.19999995082617));
#669=CARTESIAN_POINT('Ctrl Pts',(1.24999997206032,-2.19999995082617,2.19999995082617));
#670=CARTESIAN_POINT('Ctrl Pts',(1.24999997206032,-2.19999995082617,0.));
#671=CARTESIAN_POINT('Ctrl Pts',(1.24999997206032,-2.19999995082617,-2.19999995082617));
#672=CARTESIAN_POINT('Ctrl Pts',(1.24999997206032,0.,-2.19999995082617));
#673=CARTESIAN_POINT('Ctrl Pts',(1.24999997206032,2.19999995082617,-2.19999995082617));
#674=CARTESIAN_POINT('Ctrl Pts',(1.24999997206032,2.19999995082617,0.));
#675=CARTESIAN_POINT('',(1.5,1.45,0.));
#676=CARTESIAN_POINT('Ctrl Pts',(1.5,1.45,0.));
#677=CARTESIAN_POINT('Ctrl Pts',(1.5,1.48243416361706,0.));
#678=CARTESIAN_POINT('Ctrl Pts',(1.4970814203121,1.54659206030752,0.));
#679=CARTESIAN_POINT('Ctrl Pts',(1.48395568826693,1.64069953099485,0.));
#680=CARTESIAN_POINT('Ctrl Pts',(1.45137249290643,1.76250489707309,0.));
#681=CARTESIAN_POINT('Ctrl Pts',(1.39391106524074,1.91068865375832,0.));
#682=CARTESIAN_POINT('Ctrl Pts',(1.3397302641323,2.02723680556322,0.));
#683=CARTESIAN_POINT('Ctrl Pts',(1.29599300977476,2.11389292567461,0.));
#684=CARTESIAN_POINT('Ctrl Pts',(1.26554589859141,2.17134992271953,0.));
#685=CARTESIAN_POINT('Ctrl Pts',(1.24999997206032,2.19999995082617,0.));
#686=CARTESIAN_POINT('',(1.5,-1.45,-1.77573785876366E-16));
#687=CARTESIAN_POINT('Origin',(1.5,0.,0.));
#688=CARTESIAN_POINT('Origin',(1.5,0.,0.));
#689=CARTESIAN_POINT('Origin',(1.25,0.,0.));
#690=CARTESIAN_POINT('',(1.,-1.45,-1.77573785876366E-16));
#691=CARTESIAN_POINT('',(1.25,-1.45,-1.77573785876366E-16));
#692=CARTESIAN_POINT('Origin',(1.,0.,0.));
#693=CARTESIAN_POINT('Origin',(1.12499997485429,0.,0.));
#694=CARTESIAN_POINT('',(1.,-2.39999994635582,-2.93915225225847E-16));
#695=CARTESIAN_POINT('',(1.12499997485429,-2.39999994635582,-2.93915225225847E-16));
#696=CARTESIAN_POINT('Origin',(1.,0.,0.));
#697=CARTESIAN_POINT('Origin',(1.,0.,0.));
#698=CARTESIAN_POINT('',(1.,-3.06161699786838E-16,2.5));
#699=CARTESIAN_POINT('Origin',(1.,0.,0.));
#700=CARTESIAN_POINT('Origin',(-1.,0.,0.));
#701=CARTESIAN_POINT('',(-1.,-1.65327317884893E-16,1.35));
#702=CARTESIAN_POINT('Origin',(-1.,0.,0.));
#703=CARTESIAN_POINT('Origin',(1.,0.,0.));
#704=CARTESIAN_POINT('',(1.,-1.65327317884893E-16,1.35));
#705=CARTESIAN_POINT('Origin',(1.,0.,0.));
#706=CARTESIAN_POINT('Origin',(0.,0.,0.));
#707=CARTESIAN_POINT('',(1.5,-1.65327317884893E-16,1.35));
#708=CARTESIAN_POINT('Origin',(1.5,0.,0.));
#709=CARTESIAN_POINT('',(0.,-1.65327317884893E-16,1.35));
#710=CARTESIAN_POINT('Origin',(-1.5,0.,0.));
#711=CARTESIAN_POINT('',(-1.5,-1.65327317884893E-16,1.35));
#712=CARTESIAN_POINT('Origin',(-1.5,0.,0.));
#713=CARTESIAN_POINT('',(-1.5,-1.22464679914735E-16,1.));
#714=CARTESIAN_POINT('Origin',(-1.5,0.,0.));
#715=CARTESIAN_POINT('Origin',(0.,0.,0.));
#716=CARTESIAN_POINT('',(1.5,-1.22464679914735E-16,1.));
#717=CARTESIAN_POINT('Origin',(1.5,0.,0.));
#718=CARTESIAN_POINT('',(0.,-1.22464679914735E-16,1.));
#719=CARTESIAN_POINT('Origin',(0.,0.,0.));
#720=CARTESIAN_POINT('',(0.,-1.65327317884893E-16,1.35));
#721=CARTESIAN_POINT('Origin',(1.5,0.,0.));
#722=CARTESIAN_POINT('Origin',(0.,0.,0.));
#723=CARTESIAN_POINT('',(1.5,-3.06161699786838E-16,2.5));
#724=CARTESIAN_POINT('Origin',(1.5,0.,0.));
#725=CARTESIAN_POINT('',(0.,-3.06161699786838E-16,2.5));
#726=CARTESIAN_POINT('Origin',(-1.5,0.,0.));
#727=CARTESIAN_POINT('',(-1.5,-4.28626379701574E-16,3.5));
#728=CARTESIAN_POINT('Origin',(-1.5,0.,0.));
#729=CARTESIAN_POINT('',(-1.5,-3.06161699786838E-16,2.5));
#730=CARTESIAN_POINT('Origin',(-1.5,0.,0.));
#731=CARTESIAN_POINT('Origin',(0.,0.,0.));
#732=CARTESIAN_POINT('',(0.,-3.06161699786838E-16,2.5));
#733=CARTESIAN_POINT('Origin',(0.,0.,0.));
#734=CARTESIAN_POINT('',(1.5,-4.28626379701574E-16,3.5));
#735=CARTESIAN_POINT('Origin',(1.5,0.,0.));
#736=CARTESIAN_POINT('',(0.,-4.28626379701574E-16,3.5));
#737=CARTESIAN_POINT('Origin',(1.5,0.,0.));
#738=UNCERTAINTY_MEASURE_WITH_UNIT(LENGTH_MEASURE(0.01),#742,
'DISTANCE_ACCURACY_VALUE',
'Maximum model space distance between geometric entities at asserted c
onnectivities');
#739=UNCERTAINTY_MEASURE_WITH_UNIT(LENGTH_MEASURE(0.01),#742,
'DISTANCE_ACCURACY_VALUE',
'Maximum model space distance between geometric entities at asserted c
onnectivities');
#740=(
GEOMETRIC_REPRESENTATION_CONTEXT(3)
GLOBAL_UNCERTAINTY_ASSIGNED_CONTEXT((#738))
GLOBAL_UNIT_ASSIGNED_CONTEXT((#742,#744,#745))
REPRESENTATION_CONTEXT('','3D')
);
#741=(
GEOMETRIC_REPRESENTATION_CONTEXT(3)
GLOBAL_UNCERTAINTY_ASSIGNED_CONTEXT((#739))
GLOBAL_UNIT_ASSIGNED_CONTEXT((#742,#744,#745))
REPRESENTATION_CONTEXT('','3D')
);
#742=(
LENGTH_UNIT()
NAMED_UNIT(*)
SI_UNIT(.MILLI.,.METRE.)
);
#743=(
LENGTH_UNIT()
NAMED_UNIT(*)
SI_UNIT($,.METRE.)
);
#744=(
NAMED_UNIT(*)
PLANE_ANGLE_UNIT()
SI_UNIT($,.RADIAN.)
);
#745=(
NAMED_UNIT(*)
SI_UNIT($,.STERADIAN.)
SOLID_ANGLE_UNIT()
);
#746=SHAPE_DEFINITION_REPRESENTATION(#747,#748);
#747=PRODUCT_DEFINITION_SHAPE('',$,#750);
#748=SHAPE_REPRESENTATION('',(#314),#740);
#749=PRODUCT_DEFINITION_CONTEXT('part definition',#754,'design');
#750=PRODUCT_DEFINITION('7mm OD 2mm ID Bearing',
'7mm OD 2mm ID Bearing v3',#751,#749);
#751=PRODUCT_DEFINITION_FORMATION('',$,#756);
#752=PRODUCT_RELATED_PRODUCT_CATEGORY('7mm OD 2mm ID Bearing v3',
'7mm OD 2mm ID Bearing v3',(#756));
#753=APPLICATION_PROTOCOL_DEFINITION('international standard',
'automotive_design',2009,#754);
#754=APPLICATION_CONTEXT(
'Core Data for Automotive Mechanical Design Process');
#755=PRODUCT_CONTEXT('part definition',#754,'mechanical');
#756=PRODUCT('7mm OD 2mm ID Bearing','7mm OD 2mm ID Bearing v3',$,(#755));
#757=PRESENTATION_STYLE_ASSIGNMENT((#758));
#758=SURFACE_STYLE_USAGE(.BOTH.,#759);
#759=SURFACE_SIDE_STYLE('',(#760));
#760=SURFACE_STYLE_FILL_AREA(#761);
#761=FILL_AREA_STYLE('Steel - Satin',(#762));
#762=FILL_AREA_STYLE_COLOUR('Steel - Satin',#763);
#763=COLOUR_RGB('Steel - Satin',0.627450980392157,0.627450980392157,0.627450980392157);
ENDSEC;
END-ISO-10303-21;
