ISO-10303-21;
HEADER;
/* Generated by software containing ST-Developer
 * from STEP Tools, Inc. (www.steptools.com) 
 */

FILE_DESCRIPTION(
/* description */ (''),
/* implementation_level */ '2;1');

FILE_NAME(
/* name */ 'Servo - Feetech STS3215.step',
/* time_stamp */ '2026-03-10T17:19:10Z',
/* author */ (''),
/* organization */ (''),
/* preprocessor_version */ 'ST-DEVELOPER v20.1',
/* originating_system */ 'Autodesk Translation Framework v14.21.0.0',
/* authorisation */ '');

FILE_SCHEMA (('AUTOMOTIVE_DESIGN { 1 0 10303 214 3 1 1 }'));
ENDSEC;

DATA;
#10=MECHANICAL_DESIGN_GEOMETRIC_PRESENTATION_REPRESENTATION('',(#1115,#1116,
#1117,#1118,#1119,#1120,#1121,#1122,#1123,#1124,#1125,#1126,#1127,#1128,
#1129,#1130,#1131,#1132,#1133,#1134,#1135,#1136,#1137,#1138,#1139,#1140,
#1141,#1142,#1143,#1144,#1145,#1146,#1147,#1148,#1149,#1150,#1151,#1152,
#1153,#1154,#1155,#1156,#1157,#1158,#1159,#1160,#1161,#1162),#2061);
#11=SHAPE_REPRESENTATION_RELATIONSHIP('SRR','None',#2068,#12);
#12=ADVANCED_BREP_SHAPE_REPRESENTATION('',(#13),#2060);
#13=MANIFOLD_SOLID_BREP('Body1',#1236);
#14=CONICAL_SURFACE('',#1299,1.,1.0471975511966);
#15=CONICAL_SURFACE('',#1304,1.42264973081037,0.523598775598295);
#16=FACE_BOUND('',#156,.T.);
#17=FACE_BOUND('',#157,.T.);
#18=FACE_BOUND('',#158,.T.);
#19=FACE_BOUND('',#159,.T.);
#20=FACE_BOUND('',#162,.T.);
#21=FACE_BOUND('',#186,.T.);
#22=FACE_BOUND('',#201,.T.);
#23=FACE_BOUND('',#224,.T.);
#24=FACE_BOUND('',#225,.T.);
#25=FACE_BOUND('',#226,.T.);
#26=FACE_BOUND('',#232,.T.);
#27=FACE_BOUND('',#233,.T.);
#28=FACE_BOUND('',#234,.T.);
#29=FACE_BOUND('',#236,.T.);
#30=FACE_BOUND('',#237,.T.);
#31=PLANE('',#1253);
#32=PLANE('',#1261);
#33=PLANE('',#1262);
#34=PLANE('',#1265);
#35=PLANE('',#1267);
#36=PLANE('',#1268);
#37=PLANE('',#1269);
#38=PLANE('',#1270);
#39=PLANE('',#1271);
#40=PLANE('',#1272);
#41=PLANE('',#1273);
#42=PLANE('',#1274);
#43=PLANE('',#1275);
#44=PLANE('',#1276);
#45=PLANE('',#1277);
#46=PLANE('',#1278);
#47=PLANE('',#1281);
#48=PLANE('',#1284);
#49=PLANE('',#1287);
#50=PLANE('',#1290);
#51=PLANE('',#1291);
#52=PLANE('',#1297);
#53=PLANE('',#1298);
#54=PLANE('',#1302);
#55=PLANE('',#1303);
#56=PLANE('',#1307);
#57=PLANE('',#1308);
#58=PLANE('',#1309);
#59=PLANE('',#1313);
#60=PLANE('',#1314);
#61=PLANE('',#1318);
#62=PLANE('',#1322);
#63=PLANE('',#1326);
#64=PLANE('',#1330);
#65=PLANE('',#1334);
#66=PLANE('',#1338);
#67=PLANE('',#1342);
#68=PLANE('',#1346);
#69=PLANE('',#1350);
#70=PLANE('',#1352);
#71=PLANE('',#1353);
#72=PLANE('',#1358);
#73=PLANE('',#1359);
#74=PLANE('',#1360);
#75=PLANE('',#1361);
#76=PLANE('',#1362);
#77=PLANE('',#1363);
#78=PLANE('',#1364);
#79=PLANE('',#1365);
#80=PLANE('',#1367);
#81=FACE_OUTER_BOUND('',#154,.T.);
#82=FACE_OUTER_BOUND('',#155,.T.);
#83=FACE_OUTER_BOUND('',#160,.T.);
#84=FACE_OUTER_BOUND('',#161,.T.);
#85=FACE_OUTER_BOUND('',#163,.T.);
#86=FACE_OUTER_BOUND('',#164,.T.);
#87=FACE_OUTER_BOUND('',#165,.T.);
#88=FACE_OUTER_BOUND('',#166,.T.);
#89=FACE_OUTER_BOUND('',#167,.T.);
#90=FACE_OUTER_BOUND('',#168,.T.);
#91=FACE_OUTER_BOUND('',#169,.T.);
#92=FACE_OUTER_BOUND('',#170,.T.);
#93=FACE_OUTER_BOUND('',#171,.T.);
#94=FACE_OUTER_BOUND('',#172,.T.);
#95=FACE_OUTER_BOUND('',#173,.T.);
#96=FACE_OUTER_BOUND('',#174,.T.);
#97=FACE_OUTER_BOUND('',#175,.T.);
#98=FACE_OUTER_BOUND('',#176,.T.);
#99=FACE_OUTER_BOUND('',#177,.T.);
#100=FACE_OUTER_BOUND('',#178,.T.);
#101=FACE_OUTER_BOUND('',#179,.T.);
#102=FACE_OUTER_BOUND('',#180,.T.);
#103=FACE_OUTER_BOUND('',#181,.T.);
#104=FACE_OUTER_BOUND('',#182,.T.);
#105=FACE_OUTER_BOUND('',#183,.T.);
#106=FACE_OUTER_BOUND('',#184,.T.);
#107=FACE_OUTER_BOUND('',#185,.T.);
#108=FACE_OUTER_BOUND('',#187,.T.);
#109=FACE_OUTER_BOUND('',#188,.T.);
#110=FACE_OUTER_BOUND('',#189,.T.);
#111=FACE_OUTER_BOUND('',#190,.T.);
#112=FACE_OUTER_BOUND('',#191,.T.);
#113=FACE_OUTER_BOUND('',#192,.T.);
#114=FACE_OUTER_BOUND('',#193,.T.);
#115=FACE_OUTER_BOUND('',#194,.T.);
#116=FACE_OUTER_BOUND('',#195,.T.);
#117=FACE_OUTER_BOUND('',#196,.T.);
#118=FACE_OUTER_BOUND('',#197,.T.);
#119=FACE_OUTER_BOUND('',#198,.T.);
#120=FACE_OUTER_BOUND('',#199,.T.);
#121=FACE_OUTER_BOUND('',#200,.T.);
#122=FACE_OUTER_BOUND('',#202,.T.);
#123=FACE_OUTER_BOUND('',#203,.T.);
#124=FACE_OUTER_BOUND('',#204,.T.);
#125=FACE_OUTER_BOUND('',#205,.T.);
#126=FACE_OUTER_BOUND('',#206,.T.);
#127=FACE_OUTER_BOUND('',#207,.T.);
#128=FACE_OUTER_BOUND('',#208,.T.);
#129=FACE_OUTER_BOUND('',#209,.T.);
#130=FACE_OUTER_BOUND('',#210,.T.);
#131=FACE_OUTER_BOUND('',#211,.T.);
#132=FACE_OUTER_BOUND('',#212,.T.);
#133=FACE_OUTER_BOUND('',#213,.T.);
#134=FACE_OUTER_BOUND('',#214,.T.);
#135=FACE_OUTER_BOUND('',#215,.T.);
#136=FACE_OUTER_BOUND('',#216,.T.);
#137=FACE_OUTER_BOUND('',#217,.T.);
#138=FACE_OUTER_BOUND('',#218,.T.);
#139=FACE_OUTER_BOUND('',#219,.T.);
#140=FACE_OUTER_BOUND('',#220,.T.);
#141=FACE_OUTER_BOUND('',#221,.T.);
#142=FACE_OUTER_BOUND('',#222,.T.);
#143=FACE_OUTER_BOUND('',#223,.T.);
#144=FACE_OUTER_BOUND('',#227,.T.);
#145=FACE_OUTER_BOUND('',#228,.T.);
#146=FACE_OUTER_BOUND('',#229,.T.);
#147=FACE_OUTER_BOUND('',#230,.T.);
#148=FACE_OUTER_BOUND('',#231,.T.);
#149=FACE_OUTER_BOUND('',#235,.T.);
#150=FACE_OUTER_BOUND('',#238,.T.);
#151=FACE_OUTER_BOUND('',#239,.T.);
#152=FACE_OUTER_BOUND('',#240,.T.);
#153=FACE_OUTER_BOUND('',#241,.T.);
#154=EDGE_LOOP('',(#776,#777,#778,#779));
#155=EDGE_LOOP('',(#780,#781,#782,#783,#784,#785,#786,#787,#788,#789,#790,
#791,#792,#793,#794,#795,#796,#797,#798,#799));
#156=EDGE_LOOP('',(#800));
#157=EDGE_LOOP('',(#801));
#158=EDGE_LOOP('',(#802));
#159=EDGE_LOOP('',(#803));
#160=EDGE_LOOP('',(#804,#805,#806,#807));
#161=EDGE_LOOP('',(#808,#809,#810,#811,#812,#813,#814,#815,#816,#817,#818,
#819));
#162=EDGE_LOOP('',(#820));
#163=EDGE_LOOP('',(#821,#822,#823,#824));
#164=EDGE_LOOP('',(#825,#826,#827,#828));
#165=EDGE_LOOP('',(#829,#830,#831,#832));
#166=EDGE_LOOP('',(#833,#834,#835,#836));
#167=EDGE_LOOP('',(#837,#838,#839,#840));
#168=EDGE_LOOP('',(#841,#842,#843,#844));
#169=EDGE_LOOP('',(#845,#846,#847,#848));
#170=EDGE_LOOP('',(#849,#850,#851,#852,#853,#854));
#171=EDGE_LOOP('',(#855,#856,#857,#858));
#172=EDGE_LOOP('',(#859,#860,#861,#862,#863,#864,#865,#866));
#173=EDGE_LOOP('',(#867,#868,#869,#870));
#174=EDGE_LOOP('',(#871,#872,#873,#874));
#175=EDGE_LOOP('',(#875,#876,#877,#878));
#176=EDGE_LOOP('',(#879,#880,#881,#882));
#177=EDGE_LOOP('',(#883,#884,#885,#886));
#178=EDGE_LOOP('',(#887));
#179=EDGE_LOOP('',(#888,#889,#890,#891));
#180=EDGE_LOOP('',(#892));
#181=EDGE_LOOP('',(#893,#894,#895,#896));
#182=EDGE_LOOP('',(#897));
#183=EDGE_LOOP('',(#898,#899,#900,#901));
#184=EDGE_LOOP('',(#902));
#185=EDGE_LOOP('',(#903));
#186=EDGE_LOOP('',(#904));
#187=EDGE_LOOP('',(#905,#906,#907,#908));
#188=EDGE_LOOP('',(#909,#910,#911,#912));
#189=EDGE_LOOP('',(#913));
#190=EDGE_LOOP('',(#914,#915,#916,#917));
#191=EDGE_LOOP('',(#918,#919,#920,#921));
#192=EDGE_LOOP('',(#922,#923,#924,#925));
#193=EDGE_LOOP('',(#926,#927,#928,#929));
#194=EDGE_LOOP('',(#930,#931,#932,#933));
#195=EDGE_LOOP('',(#934,#935,#936,#937));
#196=EDGE_LOOP('',(#938,#939,#940,#941));
#197=EDGE_LOOP('',(#942,#943,#944,#945));
#198=EDGE_LOOP('',(#946,#947,#948,#949));
#199=EDGE_LOOP('',(#950));
#200=EDGE_LOOP('',(#951));
#201=EDGE_LOOP('',(#952));
#202=EDGE_LOOP('',(#953,#954,#955,#956));
#203=EDGE_LOOP('',(#957));
#204=EDGE_LOOP('',(#958,#959,#960,#961));
#205=EDGE_LOOP('',(#962));
#206=EDGE_LOOP('',(#963,#964,#965,#966));
#207=EDGE_LOOP('',(#967));
#208=EDGE_LOOP('',(#968,#969,#970,#971));
#209=EDGE_LOOP('',(#972));
#210=EDGE_LOOP('',(#973,#974,#975,#976));
#211=EDGE_LOOP('',(#977));
#212=EDGE_LOOP('',(#978,#979,#980,#981));
#213=EDGE_LOOP('',(#982));
#214=EDGE_LOOP('',(#983,#984,#985,#986));
#215=EDGE_LOOP('',(#987));
#216=EDGE_LOOP('',(#988,#989,#990,#991,#992));
#217=EDGE_LOOP('',(#993));
#218=EDGE_LOOP('',(#994,#995,#996,#997));
#219=EDGE_LOOP('',(#998,#999,#1000,#1001));
#220=EDGE_LOOP('',(#1002,#1003,#1004,#1005,#1006));
#221=EDGE_LOOP('',(#1007,#1008,#1009,#1010,#1011));
#222=EDGE_LOOP('',(#1012,#1013,#1014,#1015,#1016,#1017,#1018,#1019));
#223=EDGE_LOOP('',(#1020,#1021,#1022,#1023,#1024,#1025,#1026,#1027));
#224=EDGE_LOOP('',(#1028));
#225=EDGE_LOOP('',(#1029));
#226=EDGE_LOOP('',(#1030));
#227=EDGE_LOOP('',(#1031,#1032,#1033,#1034,#1035,#1036,#1037,#1038));
#228=EDGE_LOOP('',(#1039,#1040,#1041,#1042));
#229=EDGE_LOOP('',(#1043,#1044,#1045,#1046,#1047));
#230=EDGE_LOOP('',(#1048,#1049,#1050,#1051,#1052));
#231=EDGE_LOOP('',(#1053,#1054,#1055,#1056,#1057,#1058));
#232=EDGE_LOOP('',(#1059));
#233=EDGE_LOOP('',(#1060));
#234=EDGE_LOOP('',(#1061));
#235=EDGE_LOOP('',(#1062,#1063,#1064,#1065,#1066,#1067));
#236=EDGE_LOOP('',(#1068));
#237=EDGE_LOOP('',(#1069));
#238=EDGE_LOOP('',(#1070,#1071,#1072,#1073,#1074,#1075,#1076,#1077));
#239=EDGE_LOOP('',(#1078,#1079,#1080,#1081));
#240=EDGE_LOOP('',(#1082,#1083,#1084,#1085,#1086,#1087,#1088,#1089));
#241=EDGE_LOOP('',(#1090,#1091,#1092,#1093));
#242=LINE('',#1728,#355);
#243=LINE('',#1731,#356);
#244=LINE('',#1735,#357);
#245=LINE('',#1739,#358);
#246=LINE('',#1743,#359);
#247=LINE('',#1745,#360);
#248=LINE('',#1749,#361);
#249=LINE('',#1751,#362);
#250=LINE('',#1753,#363);
#251=LINE('',#1755,#364);
#252=LINE('',#1757,#365);
#253=LINE('',#1759,#366);
#254=LINE('',#1761,#367);
#255=LINE('',#1763,#368);
#256=LINE('',#1765,#369);
#257=LINE('',#1767,#370);
#258=LINE('',#1768,#371);
#259=LINE('',#1769,#372);
#260=LINE('',#1780,#373);
#261=LINE('',#1781,#374);
#262=LINE('',#1785,#375);
#263=LINE('',#1787,#376);
#264=LINE('',#1788,#377);
#265=LINE('',#1790,#378);
#266=LINE('',#1792,#379);
#267=LINE('',#1794,#380);
#268=LINE('',#1798,#381);
#269=LINE('',#1800,#382);
#270=LINE('',#1801,#383);
#271=LINE('',#1805,#384);
#272=LINE('',#1806,#385);
#273=LINE('',#1808,#386);
#274=LINE('',#1812,#387);
#275=LINE('',#1813,#388);
#276=LINE('',#1814,#389);
#277=LINE('',#1817,#390);
#278=LINE('',#1818,#391);
#279=LINE('',#1821,#392);
#280=LINE('',#1822,#393);
#281=LINE('',#1824,#394);
#282=LINE('',#1826,#395);
#283=LINE('',#1829,#396);
#284=LINE('',#1831,#397);
#285=LINE('',#1832,#398);
#286=LINE('',#1835,#399);
#287=LINE('',#1836,#400);
#288=LINE('',#1839,#401);
#289=LINE('',#1840,#402);
#290=LINE('',#1841,#403);
#291=LINE('',#1842,#404);
#292=LINE('',#1846,#405);
#293=LINE('',#1851,#406);
#294=LINE('',#1856,#407);
#295=LINE('',#1861,#408);
#296=LINE('',#1866,#409);
#297=LINE('',#1874,#410);
#298=LINE('',#1877,#411);
#299=LINE('',#1883,#412);
#300=LINE('',#1885,#413);
#301=LINE('',#1887,#414);
#302=LINE('',#1888,#415);
#303=LINE('',#1892,#416);
#304=LINE('',#1898,#417);
#305=LINE('',#1899,#418);
#306=LINE('',#1900,#419);
#307=LINE('',#1904,#420);
#308=LINE('',#1906,#421);
#309=LINE('',#1908,#422);
#310=LINE('',#1909,#423);
#311=LINE('',#1913,#424);
#312=LINE('',#1919,#425);
#313=LINE('',#1920,#426);
#314=LINE('',#1921,#427);
#315=LINE('',#1924,#428);
#316=LINE('',#1926,#429);
#317=LINE('',#1927,#430);
#318=LINE('',#1930,#431);
#319=LINE('',#1932,#432);
#320=LINE('',#1933,#433);
#321=LINE('',#1938,#434);
#322=LINE('',#1947,#435);
#323=LINE('',#1953,#436);
#324=LINE('',#1960,#437);
#325=LINE('',#1967,#438);
#326=LINE('',#1974,#439);
#327=LINE('',#1981,#440);
#328=LINE('',#1988,#441);
#329=LINE('',#1994,#442);
#330=LINE('',#2001,#443);
#331=LINE('',#2006,#444);
#332=LINE('',#2008,#445);
#333=LINE('',#2011,#446);
#334=LINE('',#2014,#447);
#335=LINE('',#2015,#448);
#336=LINE('',#2016,#449);
#337=LINE('',#2018,#450);
#338=LINE('',#2020,#451);
#339=LINE('',#2021,#452);
#340=LINE('',#2027,#453);
#341=LINE('',#2031,#454);
#342=LINE('',#2034,#455);
#343=LINE('',#2035,#456);
#344=LINE('',#2037,#457);
#345=LINE('',#2038,#458);
#346=LINE('',#2039,#459);
#347=LINE('',#2041,#460);
#348=LINE('',#2042,#461);
#349=LINE('',#2045,#462);
#350=LINE('',#2047,#463);
#351=LINE('',#2048,#464);
#352=LINE('',#2052,#465);
#353=LINE('',#2054,#466);
#354=LINE('',#2056,#467);
#355=VECTOR('',#1375,1.5);
#356=VECTOR('',#1378,1.5);
#357=VECTOR('',#1381,27.);
#358=VECTOR('',#1384,20.);
#359=VECTOR('',#1387,27.);
#360=VECTOR('',#1388,1.97802414690596);
#361=VECTOR('',#1391,2.);
#362=VECTOR('',#1392,3.52003086427105);
#363=VECTOR('',#1393,6.);
#364=VECTOR('',#1394,0.999999999999998);
#365=VECTOR('',#1395,12.);
#366=VECTOR('',#1396,18.);
#367=VECTOR('',#1397,12.);
#368=VECTOR('',#1398,0.999999999999999);
#369=VECTOR('',#1399,6.);
#370=VECTOR('',#1400,3.52003086427104);
#371=VECTOR('',#1401,2.);
#372=VECTOR('',#1402,1.97802414690596);
#373=VECTOR('',#1413,1.97802414690596);
#374=VECTOR('',#1414,1.5);
#375=VECTOR('',#1417,20.);
#376=VECTOR('',#1418,2.82842712474621);
#377=VECTOR('',#1419,14.6);
#378=VECTOR('',#1420,2.);
#379=VECTOR('',#1421,12.9599382714579);
#380=VECTOR('',#1422,2.);
#381=VECTOR('',#1425,1.97802414690596);
#382=VECTOR('',#1426,14.6);
#383=VECTOR('',#1427,2.8284271247462);
#384=VECTOR('',#1432,1.5);
#385=VECTOR('',#1433,1.5);
#386=VECTOR('',#1436,1.5);
#387=VECTOR('',#1439,10.);
#388=VECTOR('',#1440,2.5);
#389=VECTOR('',#1441,1.5);
#390=VECTOR('',#1444,1.5);
#391=VECTOR('',#1445,18.);
#392=VECTOR('',#1448,2.5);
#393=VECTOR('',#1449,10.);
#394=VECTOR('',#1452,18.);
#395=VECTOR('',#1455,18.);
#396=VECTOR('',#1458,6.5);
#397=VECTOR('',#1459,20.);
#398=VECTOR('',#1460,6.5);
#399=VECTOR('',#1463,6.);
#400=VECTOR('',#1464,6.5);
#401=VECTOR('',#1467,20.);
#402=VECTOR('',#1468,6.5);
#403=VECTOR('',#1469,1.5);
#404=VECTOR('',#1470,1.5);
#405=VECTOR('',#1477,6.);
#406=VECTOR('',#1484,0.750000000000002);
#407=VECTOR('',#1491,0.750000000000001);
#408=VECTOR('',#1498,0.750000000000001);
#409=VECTOR('',#1505,0.750000000000002);
#410=VECTOR('',#1516,3.);
#411=VECTOR('',#1519,1.25);
#412=VECTOR('',#1526,1.15470053837925);
#413=VECTOR('',#1527,3.);
#414=VECTOR('',#1528,1.15470053837924);
#415=VECTOR('',#1529,2.99999999999999);
#416=VECTOR('',#1532,1.15470053837924);
#417=VECTOR('',#1539,1.15470053837924);
#418=VECTOR('',#1540,27.);
#419=VECTOR('',#1541,27.);
#420=VECTOR('',#1544,1.15470053837927);
#421=VECTOR('',#1545,3.);
#422=VECTOR('',#1546,1.15470053837927);
#423=VECTOR('',#1547,3.);
#424=VECTOR('',#1550,1.15470053837927);
#425=VECTOR('',#1557,1.15470053837927);
#426=VECTOR('',#1558,27.);
#427=VECTOR('',#1559,27.);
#428=VECTOR('',#1562,10.);
#429=VECTOR('',#1563,2.82842712474621);
#430=VECTOR('',#1564,10.);
#431=VECTOR('',#1567,10.);
#432=VECTOR('',#1568,2.82842712474621);
#433=VECTOR('',#1569,10.);
#434=VECTOR('',#1574,1.5);
#435=VECTOR('',#1587,3.);
#436=VECTOR('',#1594,1.);
#437=VECTOR('',#1603,1.);
#438=VECTOR('',#1612,0.750000000000002);
#439=VECTOR('',#1621,0.750000000000002);
#440=VECTOR('',#1630,0.750000000000001);
#441=VECTOR('',#1639,0.750000000000001);
#442=VECTOR('',#1648,1.);
#443=VECTOR('',#1657,1.);
#444=VECTOR('',#1662,14.);
#445=VECTOR('',#1663,25.853205655191);
#446=VECTOR('',#1666,25.853205655191);
#447=VECTOR('',#1669,24.853205655191);
#448=VECTOR('',#1670,1.57735026918961);
#449=VECTOR('',#1671,0.999999999999996);
#450=VECTOR('',#1674,2.00000000000002);
#451=VECTOR('',#1675,25.2758553860014);
#452=VECTOR('',#1676,1.);
#453=VECTOR('',#1681,1.5);
#454=VECTOR('',#1686,1.5);
#455=VECTOR('',#1689,14.6);
#456=VECTOR('',#1690,20.);
#457=VECTOR('',#1691,14.6);
#458=VECTOR('',#1692,1.97802414690596);
#459=VECTOR('',#1693,1.97802414690596);
#460=VECTOR('',#1696,28.2226497308104);
#461=VECTOR('',#1697,0.922649730810385);
#462=VECTOR('',#1702,0.978024146905967);
#463=VECTOR('',#1705,1.40067387771633);
#464=VECTOR('',#1706,0.499999999999985);
#465=VECTOR('',#1713,10.);
#466=VECTOR('',#1716,27.8);
#467=VECTOR('',#1719,10.);
#468=CIRCLE('',#1251,12.);
#469=CIRCLE('',#1252,12.);
#470=CIRCLE('',#1254,2.);
#471=CIRCLE('',#1255,2.);
#472=CIRCLE('',#1256,12.);
#473=CIRCLE('',#1257,0.750000000000002);
#474=CIRCLE('',#1258,0.750000000000001);
#475=CIRCLE('',#1259,0.750000000000001);
#476=CIRCLE('',#1260,0.750000000000002);
#477=CIRCLE('',#1263,12.);
#478=CIRCLE('',#1264,3.);
#479=CIRCLE('',#1280,0.750000000000002);
#480=CIRCLE('',#1283,0.750000000000001);
#481=CIRCLE('',#1286,0.750000000000001);
#482=CIRCLE('',#1289,0.750000000000002);
#483=CIRCLE('',#1292,3.);
#484=CIRCLE('',#1293,1.25);
#485=CIRCLE('',#1296,1.25);
#486=CIRCLE('',#1300,2.);
#487=CIRCLE('',#1301,1.);
#488=CIRCLE('',#1305,1.42264973081037);
#489=CIRCLE('',#1306,2.);
#490=CIRCLE('',#1311,1.5);
#491=CIRCLE('',#1312,1.5);
#492=CIRCLE('',#1315,3.);
#493=CIRCLE('',#1317,3.);
#494=CIRCLE('',#1319,1.);
#495=CIRCLE('',#1321,1.);
#496=CIRCLE('',#1323,1.);
#497=CIRCLE('',#1325,1.);
#498=CIRCLE('',#1327,0.750000000000002);
#499=CIRCLE('',#1329,0.750000000000002);
#500=CIRCLE('',#1331,0.750000000000002);
#501=CIRCLE('',#1333,0.750000000000002);
#502=CIRCLE('',#1335,0.750000000000001);
#503=CIRCLE('',#1337,0.750000000000001);
#504=CIRCLE('',#1339,0.750000000000001);
#505=CIRCLE('',#1341,0.750000000000001);
#506=CIRCLE('',#1343,1.);
#507=CIRCLE('',#1345,1.);
#508=CIRCLE('',#1347,1.);
#509=CIRCLE('',#1349,1.);
#510=CIRCLE('',#1351,12.);
#511=CIRCLE('',#1355,12.);
#512=CIRCLE('',#1356,12.);
#513=CIRCLE('',#1357,12.);
#514=VERTEX_POINT('',#1724);
#515=VERTEX_POINT('',#1725);
#516=VERTEX_POINT('',#1727);
#517=VERTEX_POINT('',#1729);
#518=VERTEX_POINT('',#1733);
#519=VERTEX_POINT('',#1734);
#520=VERTEX_POINT('',#1736);
#521=VERTEX_POINT('',#1738);
#522=VERTEX_POINT('',#1740);
#523=VERTEX_POINT('',#1742);
#524=VERTEX_POINT('',#1744);
#525=VERTEX_POINT('',#1746);
#526=VERTEX_POINT('',#1748);
#527=VERTEX_POINT('',#1750);
#528=VERTEX_POINT('',#1752);
#529=VERTEX_POINT('',#1754);
#530=VERTEX_POINT('',#1756);
#531=VERTEX_POINT('',#1758);
#532=VERTEX_POINT('',#1760);
#533=VERTEX_POINT('',#1762);
#534=VERTEX_POINT('',#1764);
#535=VERTEX_POINT('',#1766);
#536=VERTEX_POINT('',#1770);
#537=VERTEX_POINT('',#1772);
#538=VERTEX_POINT('',#1774);
#539=VERTEX_POINT('',#1776);
#540=VERTEX_POINT('',#1779);
#541=VERTEX_POINT('',#1783);
#542=VERTEX_POINT('',#1784);
#543=VERTEX_POINT('',#1786);
#544=VERTEX_POINT('',#1789);
#545=VERTEX_POINT('',#1791);
#546=VERTEX_POINT('',#1793);
#547=VERTEX_POINT('',#1795);
#548=VERTEX_POINT('',#1797);
#549=VERTEX_POINT('',#1799);
#550=VERTEX_POINT('',#1802);
#551=VERTEX_POINT('',#1810);
#552=VERTEX_POINT('',#1811);
#553=VERTEX_POINT('',#1816);
#554=VERTEX_POINT('',#1820);
#555=VERTEX_POINT('',#1828);
#556=VERTEX_POINT('',#1830);
#557=VERTEX_POINT('',#1834);
#558=VERTEX_POINT('',#1838);
#559=VERTEX_POINT('',#1849);
#560=VERTEX_POINT('',#1854);
#561=VERTEX_POINT('',#1859);
#562=VERTEX_POINT('',#1864);
#563=VERTEX_POINT('',#1869);
#564=VERTEX_POINT('',#1871);
#565=VERTEX_POINT('',#1876);
#566=VERTEX_POINT('',#1881);
#567=VERTEX_POINT('',#1882);
#568=VERTEX_POINT('',#1884);
#569=VERTEX_POINT('',#1886);
#570=VERTEX_POINT('',#1890);
#571=VERTEX_POINT('',#1891);
#572=VERTEX_POINT('',#1896);
#573=VERTEX_POINT('',#1897);
#574=VERTEX_POINT('',#1902);
#575=VERTEX_POINT('',#1903);
#576=VERTEX_POINT('',#1905);
#577=VERTEX_POINT('',#1907);
#578=VERTEX_POINT('',#1911);
#579=VERTEX_POINT('',#1912);
#580=VERTEX_POINT('',#1917);
#581=VERTEX_POINT('',#1918);
#582=VERTEX_POINT('',#1923);
#583=VERTEX_POINT('',#1925);
#584=VERTEX_POINT('',#1929);
#585=VERTEX_POINT('',#1931);
#586=VERTEX_POINT('',#1935);
#587=VERTEX_POINT('',#1937);
#588=VERTEX_POINT('',#1942);
#589=VERTEX_POINT('',#1945);
#590=VERTEX_POINT('',#1949);
#591=VERTEX_POINT('',#1952);
#592=VERTEX_POINT('',#1956);
#593=VERTEX_POINT('',#1959);
#594=VERTEX_POINT('',#1963);
#595=VERTEX_POINT('',#1966);
#596=VERTEX_POINT('',#1970);
#597=VERTEX_POINT('',#1973);
#598=VERTEX_POINT('',#1977);
#599=VERTEX_POINT('',#1980);
#600=VERTEX_POINT('',#1984);
#601=VERTEX_POINT('',#1987);
#602=VERTEX_POINT('',#1991);
#603=VERTEX_POINT('',#1997);
#604=VERTEX_POINT('',#2000);
#605=VERTEX_POINT('',#2004);
#606=VERTEX_POINT('',#2005);
#607=VERTEX_POINT('',#2007);
#608=VERTEX_POINT('',#2009);
#609=VERTEX_POINT('',#2013);
#610=VERTEX_POINT('',#2019);
#611=VERTEX_POINT('',#2023);
#612=VERTEX_POINT('',#2024);
#613=VERTEX_POINT('',#2026);
#614=VERTEX_POINT('',#2029);
#615=VERTEX_POINT('',#2033);
#616=VERTEX_POINT('',#2036);
#617=EDGE_CURVE('',#514,#515,#468,.F.);
#618=EDGE_CURVE('',#516,#515,#242,.T.);
#619=EDGE_CURVE('',#516,#517,#469,.T.);
#620=EDGE_CURVE('',#514,#517,#243,.T.);
#621=EDGE_CURVE('',#518,#519,#244,.T.);
#622=EDGE_CURVE('',#518,#520,#470,.F.);
#623=EDGE_CURVE('',#521,#520,#245,.T.);
#624=EDGE_CURVE('',#521,#522,#471,.F.);
#625=EDGE_CURVE('',#522,#523,#246,.T.);
#626=EDGE_CURVE('',#523,#524,#247,.T.);
#627=EDGE_CURVE('',#525,#524,#472,.F.);
#628=EDGE_CURVE('',#526,#525,#248,.T.);
#629=EDGE_CURVE('',#527,#526,#249,.T.);
#630=EDGE_CURVE('',#528,#527,#250,.T.);
#631=EDGE_CURVE('',#529,#528,#251,.T.);
#632=EDGE_CURVE('',#530,#529,#252,.T.);
#633=EDGE_CURVE('',#531,#530,#253,.T.);
#634=EDGE_CURVE('',#532,#531,#254,.T.);
#635=EDGE_CURVE('',#533,#532,#255,.T.);
#636=EDGE_CURVE('',#534,#533,#256,.T.);
#637=EDGE_CURVE('',#535,#534,#257,.T.);
#638=EDGE_CURVE('',#515,#535,#258,.T.);
#639=EDGE_CURVE('',#514,#519,#259,.T.);
#640=EDGE_CURVE('',#536,#536,#473,.T.);
#641=EDGE_CURVE('',#537,#537,#474,.T.);
#642=EDGE_CURVE('',#538,#538,#475,.T.);
#643=EDGE_CURVE('',#539,#539,#476,.T.);
#644=EDGE_CURVE('',#517,#540,#260,.T.);
#645=EDGE_CURVE('',#519,#540,#261,.T.);
#646=EDGE_CURVE('',#541,#542,#262,.T.);
#647=EDGE_CURVE('',#541,#543,#263,.F.);
#648=EDGE_CURVE('',#540,#543,#264,.T.);
#649=EDGE_CURVE('',#544,#516,#265,.T.);
#650=EDGE_CURVE('',#545,#544,#266,.T.);
#651=EDGE_CURVE('',#546,#545,#267,.T.);
#652=EDGE_CURVE('',#547,#546,#477,.T.);
#653=EDGE_CURVE('',#548,#547,#268,.T.);
#654=EDGE_CURVE('',#549,#548,#269,.T.);
#655=EDGE_CURVE('',#549,#542,#270,.F.);
#656=EDGE_CURVE('',#550,#550,#478,.T.);
#657=EDGE_CURVE('',#547,#524,#271,.F.);
#658=EDGE_CURVE('',#523,#548,#272,.T.);
#659=EDGE_CURVE('',#546,#525,#273,.T.);
#660=EDGE_CURVE('',#551,#552,#274,.T.);
#661=EDGE_CURVE('',#532,#551,#275,.T.);
#662=EDGE_CURVE('',#552,#531,#276,.T.);
#663=EDGE_CURVE('',#553,#530,#277,.T.);
#664=EDGE_CURVE('',#552,#553,#278,.T.);
#665=EDGE_CURVE('',#554,#529,#279,.T.);
#666=EDGE_CURVE('',#553,#554,#280,.T.);
#667=EDGE_CURVE('',#554,#551,#281,.T.);
#668=EDGE_CURVE('',#529,#532,#282,.T.);
#669=EDGE_CURVE('',#555,#528,#283,.T.);
#670=EDGE_CURVE('',#556,#555,#284,.T.);
#671=EDGE_CURVE('',#556,#533,#285,.T.);
#672=EDGE_CURVE('',#557,#556,#286,.T.);
#673=EDGE_CURVE('',#557,#534,#287,.T.);
#674=EDGE_CURVE('',#558,#557,#288,.T.);
#675=EDGE_CURVE('',#558,#527,#289,.T.);
#676=EDGE_CURVE('',#545,#526,#290,.T.);
#677=EDGE_CURVE('',#544,#535,#291,.T.);
#678=EDGE_CURVE('',#555,#558,#292,.T.);
#679=EDGE_CURVE('',#559,#559,#479,.T.);
#680=EDGE_CURVE('',#559,#539,#293,.T.);
#681=EDGE_CURVE('',#560,#560,#480,.T.);
#682=EDGE_CURVE('',#560,#538,#294,.T.);
#683=EDGE_CURVE('',#561,#561,#481,.T.);
#684=EDGE_CURVE('',#561,#537,#295,.T.);
#685=EDGE_CURVE('',#562,#562,#482,.T.);
#686=EDGE_CURVE('',#562,#536,#296,.T.);
#687=EDGE_CURVE('',#563,#563,#483,.T.);
#688=EDGE_CURVE('',#564,#564,#484,.T.);
#689=EDGE_CURVE('',#550,#563,#297,.T.);
#690=EDGE_CURVE('',#564,#565,#298,.T.);
#691=EDGE_CURVE('',#565,#565,#485,.F.);
#692=EDGE_CURVE('',#566,#567,#299,.T.);
#693=EDGE_CURVE('',#568,#567,#300,.T.);
#694=EDGE_CURVE('',#569,#568,#301,.F.);
#695=EDGE_CURVE('',#566,#569,#302,.T.);
#696=EDGE_CURVE('',#570,#571,#303,.T.);
#697=EDGE_CURVE('',#567,#571,#486,.T.);
#698=EDGE_CURVE('',#570,#566,#487,.T.);
#699=EDGE_CURVE('',#572,#573,#304,.F.);
#700=EDGE_CURVE('',#571,#572,#305,.T.);
#701=EDGE_CURVE('',#573,#570,#306,.T.);
#702=EDGE_CURVE('',#574,#575,#307,.F.);
#703=EDGE_CURVE('',#576,#574,#308,.T.);
#704=EDGE_CURVE('',#576,#577,#309,.T.);
#705=EDGE_CURVE('',#575,#577,#310,.T.);
#706=EDGE_CURVE('',#578,#579,#311,.T.);
#707=EDGE_CURVE('',#577,#579,#488,.F.);
#708=EDGE_CURVE('',#578,#576,#489,.T.);
#709=EDGE_CURVE('',#580,#581,#312,.F.);
#710=EDGE_CURVE('',#579,#580,#313,.T.);
#711=EDGE_CURVE('',#581,#578,#314,.T.);
#712=EDGE_CURVE('',#582,#549,#315,.T.);
#713=EDGE_CURVE('',#583,#582,#316,.F.);
#714=EDGE_CURVE('',#583,#542,#317,.T.);
#715=EDGE_CURVE('',#584,#541,#318,.T.);
#716=EDGE_CURVE('',#585,#584,#319,.F.);
#717=EDGE_CURVE('',#585,#543,#320,.T.);
#718=EDGE_CURVE('',#586,#586,#490,.F.);
#719=EDGE_CURVE('',#586,#587,#321,.T.);
#720=EDGE_CURVE('',#587,#587,#491,.T.);
#721=EDGE_CURVE('',#588,#588,#492,.T.);
#722=EDGE_CURVE('',#589,#589,#493,.F.);
#723=EDGE_CURVE('',#589,#588,#322,.T.);
#724=EDGE_CURVE('',#590,#590,#494,.T.);
#725=EDGE_CURVE('',#590,#591,#323,.T.);
#726=EDGE_CURVE('',#591,#591,#495,.F.);
#727=EDGE_CURVE('',#592,#592,#496,.T.);
#728=EDGE_CURVE('',#592,#593,#324,.T.);
#729=EDGE_CURVE('',#593,#593,#497,.F.);
#730=EDGE_CURVE('',#594,#594,#498,.T.);
#731=EDGE_CURVE('',#594,#595,#325,.T.);
#732=EDGE_CURVE('',#595,#595,#499,.T.);
#733=EDGE_CURVE('',#596,#596,#500,.T.);
#734=EDGE_CURVE('',#596,#597,#326,.T.);
#735=EDGE_CURVE('',#597,#597,#501,.T.);
#736=EDGE_CURVE('',#598,#598,#502,.T.);
#737=EDGE_CURVE('',#598,#599,#327,.T.);
#738=EDGE_CURVE('',#599,#599,#503,.T.);
#739=EDGE_CURVE('',#600,#600,#504,.T.);
#740=EDGE_CURVE('',#600,#601,#328,.T.);
#741=EDGE_CURVE('',#601,#601,#505,.T.);
#742=EDGE_CURVE('',#602,#602,#506,.T.);
#743=EDGE_CURVE('',#602,#566,#329,.T.);
#744=EDGE_CURVE('',#566,#570,#507,.T.);
#745=EDGE_CURVE('',#603,#603,#508,.T.);
#746=EDGE_CURVE('',#603,#604,#330,.T.);
#747=EDGE_CURVE('',#604,#604,#509,.T.);
#748=EDGE_CURVE('',#605,#606,#331,.T.);
#749=EDGE_CURVE('',#606,#607,#332,.T.);
#750=EDGE_CURVE('',#607,#608,#510,.T.);
#751=EDGE_CURVE('',#608,#605,#333,.T.);
#752=EDGE_CURVE('',#609,#569,#334,.T.);
#753=EDGE_CURVE('',#605,#568,#335,.T.);
#754=EDGE_CURVE('',#608,#609,#336,.T.);
#755=EDGE_CURVE('',#606,#574,#337,.T.);
#756=EDGE_CURVE('',#575,#610,#338,.T.);
#757=EDGE_CURVE('',#607,#610,#339,.T.);
#758=EDGE_CURVE('',#611,#612,#511,.T.);
#759=EDGE_CURVE('',#613,#611,#340,.T.);
#760=EDGE_CURVE('',#613,#609,#512,.F.);
#761=EDGE_CURVE('',#610,#614,#513,.F.);
#762=EDGE_CURVE('',#612,#614,#341,.F.);
#763=EDGE_CURVE('',#615,#585,#342,.T.);
#764=EDGE_CURVE('',#584,#583,#343,.T.);
#765=EDGE_CURVE('',#582,#616,#344,.T.);
#766=EDGE_CURVE('',#616,#611,#345,.T.);
#767=EDGE_CURVE('',#612,#615,#346,.T.);
#768=EDGE_CURVE('',#522,#571,#347,.F.);
#769=EDGE_CURVE('',#572,#616,#348,.T.);
#770=EDGE_CURVE('',#573,#613,#349,.T.);
#771=EDGE_CURVE('',#614,#580,#350,.T.);
#772=EDGE_CURVE('',#581,#615,#351,.T.);
#773=EDGE_CURVE('',#578,#518,#352,.T.);
#774=EDGE_CURVE('',#520,#576,#353,.F.);
#775=EDGE_CURVE('',#567,#521,#354,.T.);
#776=ORIENTED_EDGE('',*,*,#617,.T.);
#777=ORIENTED_EDGE('',*,*,#618,.F.);
#778=ORIENTED_EDGE('',*,*,#619,.T.);
#779=ORIENTED_EDGE('',*,*,#620,.F.);
#780=ORIENTED_EDGE('',*,*,#621,.F.);
#781=ORIENTED_EDGE('',*,*,#622,.T.);
#782=ORIENTED_EDGE('',*,*,#623,.F.);
#783=ORIENTED_EDGE('',*,*,#624,.T.);
#784=ORIENTED_EDGE('',*,*,#625,.T.);
#785=ORIENTED_EDGE('',*,*,#626,.T.);
#786=ORIENTED_EDGE('',*,*,#627,.F.);
#787=ORIENTED_EDGE('',*,*,#628,.F.);
#788=ORIENTED_EDGE('',*,*,#629,.F.);
#789=ORIENTED_EDGE('',*,*,#630,.F.);
#790=ORIENTED_EDGE('',*,*,#631,.F.);
#791=ORIENTED_EDGE('',*,*,#632,.F.);
#792=ORIENTED_EDGE('',*,*,#633,.F.);
#793=ORIENTED_EDGE('',*,*,#634,.F.);
#794=ORIENTED_EDGE('',*,*,#635,.F.);
#795=ORIENTED_EDGE('',*,*,#636,.F.);
#796=ORIENTED_EDGE('',*,*,#637,.F.);
#797=ORIENTED_EDGE('',*,*,#638,.F.);
#798=ORIENTED_EDGE('',*,*,#617,.F.);
#799=ORIENTED_EDGE('',*,*,#639,.T.);
#800=ORIENTED_EDGE('',*,*,#640,.F.);
#801=ORIENTED_EDGE('',*,*,#641,.F.);
#802=ORIENTED_EDGE('',*,*,#642,.F.);
#803=ORIENTED_EDGE('',*,*,#643,.F.);
#804=ORIENTED_EDGE('',*,*,#639,.F.);
#805=ORIENTED_EDGE('',*,*,#620,.T.);
#806=ORIENTED_EDGE('',*,*,#644,.T.);
#807=ORIENTED_EDGE('',*,*,#645,.F.);
#808=ORIENTED_EDGE('',*,*,#646,.F.);
#809=ORIENTED_EDGE('',*,*,#647,.T.);
#810=ORIENTED_EDGE('',*,*,#648,.F.);
#811=ORIENTED_EDGE('',*,*,#644,.F.);
#812=ORIENTED_EDGE('',*,*,#619,.F.);
#813=ORIENTED_EDGE('',*,*,#649,.F.);
#814=ORIENTED_EDGE('',*,*,#650,.F.);
#815=ORIENTED_EDGE('',*,*,#651,.F.);
#816=ORIENTED_EDGE('',*,*,#652,.F.);
#817=ORIENTED_EDGE('',*,*,#653,.F.);
#818=ORIENTED_EDGE('',*,*,#654,.F.);
#819=ORIENTED_EDGE('',*,*,#655,.T.);
#820=ORIENTED_EDGE('',*,*,#656,.F.);
#821=ORIENTED_EDGE('',*,*,#653,.T.);
#822=ORIENTED_EDGE('',*,*,#657,.T.);
#823=ORIENTED_EDGE('',*,*,#626,.F.);
#824=ORIENTED_EDGE('',*,*,#658,.T.);
#825=ORIENTED_EDGE('',*,*,#652,.T.);
#826=ORIENTED_EDGE('',*,*,#659,.T.);
#827=ORIENTED_EDGE('',*,*,#627,.T.);
#828=ORIENTED_EDGE('',*,*,#657,.F.);
#829=ORIENTED_EDGE('',*,*,#660,.F.);
#830=ORIENTED_EDGE('',*,*,#661,.F.);
#831=ORIENTED_EDGE('',*,*,#634,.T.);
#832=ORIENTED_EDGE('',*,*,#662,.F.);
#833=ORIENTED_EDGE('',*,*,#633,.T.);
#834=ORIENTED_EDGE('',*,*,#663,.F.);
#835=ORIENTED_EDGE('',*,*,#664,.F.);
#836=ORIENTED_EDGE('',*,*,#662,.T.);
#837=ORIENTED_EDGE('',*,*,#632,.T.);
#838=ORIENTED_EDGE('',*,*,#665,.F.);
#839=ORIENTED_EDGE('',*,*,#666,.F.);
#840=ORIENTED_EDGE('',*,*,#663,.T.);
#841=ORIENTED_EDGE('',*,*,#666,.T.);
#842=ORIENTED_EDGE('',*,*,#667,.T.);
#843=ORIENTED_EDGE('',*,*,#660,.T.);
#844=ORIENTED_EDGE('',*,*,#664,.T.);
#845=ORIENTED_EDGE('',*,*,#665,.T.);
#846=ORIENTED_EDGE('',*,*,#668,.T.);
#847=ORIENTED_EDGE('',*,*,#661,.T.);
#848=ORIENTED_EDGE('',*,*,#667,.F.);
#849=ORIENTED_EDGE('',*,*,#669,.F.);
#850=ORIENTED_EDGE('',*,*,#670,.F.);
#851=ORIENTED_EDGE('',*,*,#671,.T.);
#852=ORIENTED_EDGE('',*,*,#635,.T.);
#853=ORIENTED_EDGE('',*,*,#668,.F.);
#854=ORIENTED_EDGE('',*,*,#631,.T.);
#855=ORIENTED_EDGE('',*,*,#671,.F.);
#856=ORIENTED_EDGE('',*,*,#672,.F.);
#857=ORIENTED_EDGE('',*,*,#673,.T.);
#858=ORIENTED_EDGE('',*,*,#636,.T.);
#859=ORIENTED_EDGE('',*,*,#673,.F.);
#860=ORIENTED_EDGE('',*,*,#674,.F.);
#861=ORIENTED_EDGE('',*,*,#675,.T.);
#862=ORIENTED_EDGE('',*,*,#629,.T.);
#863=ORIENTED_EDGE('',*,*,#676,.F.);
#864=ORIENTED_EDGE('',*,*,#650,.T.);
#865=ORIENTED_EDGE('',*,*,#677,.T.);
#866=ORIENTED_EDGE('',*,*,#637,.T.);
#867=ORIENTED_EDGE('',*,*,#649,.T.);
#868=ORIENTED_EDGE('',*,*,#618,.T.);
#869=ORIENTED_EDGE('',*,*,#638,.T.);
#870=ORIENTED_EDGE('',*,*,#677,.F.);
#871=ORIENTED_EDGE('',*,*,#651,.T.);
#872=ORIENTED_EDGE('',*,*,#676,.T.);
#873=ORIENTED_EDGE('',*,*,#628,.T.);
#874=ORIENTED_EDGE('',*,*,#659,.F.);
#875=ORIENTED_EDGE('',*,*,#675,.F.);
#876=ORIENTED_EDGE('',*,*,#678,.F.);
#877=ORIENTED_EDGE('',*,*,#669,.T.);
#878=ORIENTED_EDGE('',*,*,#630,.T.);
#879=ORIENTED_EDGE('',*,*,#674,.T.);
#880=ORIENTED_EDGE('',*,*,#672,.T.);
#881=ORIENTED_EDGE('',*,*,#670,.T.);
#882=ORIENTED_EDGE('',*,*,#678,.T.);
#883=ORIENTED_EDGE('',*,*,#679,.F.);
#884=ORIENTED_EDGE('',*,*,#680,.T.);
#885=ORIENTED_EDGE('',*,*,#643,.T.);
#886=ORIENTED_EDGE('',*,*,#680,.F.);
#887=ORIENTED_EDGE('',*,*,#679,.T.);
#888=ORIENTED_EDGE('',*,*,#681,.F.);
#889=ORIENTED_EDGE('',*,*,#682,.T.);
#890=ORIENTED_EDGE('',*,*,#642,.T.);
#891=ORIENTED_EDGE('',*,*,#682,.F.);
#892=ORIENTED_EDGE('',*,*,#681,.T.);
#893=ORIENTED_EDGE('',*,*,#683,.F.);
#894=ORIENTED_EDGE('',*,*,#684,.T.);
#895=ORIENTED_EDGE('',*,*,#641,.T.);
#896=ORIENTED_EDGE('',*,*,#684,.F.);
#897=ORIENTED_EDGE('',*,*,#683,.T.);
#898=ORIENTED_EDGE('',*,*,#685,.F.);
#899=ORIENTED_EDGE('',*,*,#686,.T.);
#900=ORIENTED_EDGE('',*,*,#640,.T.);
#901=ORIENTED_EDGE('',*,*,#686,.F.);
#902=ORIENTED_EDGE('',*,*,#685,.T.);
#903=ORIENTED_EDGE('',*,*,#687,.T.);
#904=ORIENTED_EDGE('',*,*,#688,.F.);
#905=ORIENTED_EDGE('',*,*,#656,.T.);
#906=ORIENTED_EDGE('',*,*,#689,.T.);
#907=ORIENTED_EDGE('',*,*,#687,.F.);
#908=ORIENTED_EDGE('',*,*,#689,.F.);
#909=ORIENTED_EDGE('',*,*,#688,.T.);
#910=ORIENTED_EDGE('',*,*,#690,.T.);
#911=ORIENTED_EDGE('',*,*,#691,.T.);
#912=ORIENTED_EDGE('',*,*,#690,.F.);
#913=ORIENTED_EDGE('',*,*,#691,.F.);
#914=ORIENTED_EDGE('',*,*,#692,.T.);
#915=ORIENTED_EDGE('',*,*,#693,.F.);
#916=ORIENTED_EDGE('',*,*,#694,.F.);
#917=ORIENTED_EDGE('',*,*,#695,.F.);
#918=ORIENTED_EDGE('',*,*,#696,.T.);
#919=ORIENTED_EDGE('',*,*,#697,.F.);
#920=ORIENTED_EDGE('',*,*,#692,.F.);
#921=ORIENTED_EDGE('',*,*,#698,.F.);
#922=ORIENTED_EDGE('',*,*,#699,.F.);
#923=ORIENTED_EDGE('',*,*,#700,.F.);
#924=ORIENTED_EDGE('',*,*,#696,.F.);
#925=ORIENTED_EDGE('',*,*,#701,.F.);
#926=ORIENTED_EDGE('',*,*,#702,.F.);
#927=ORIENTED_EDGE('',*,*,#703,.F.);
#928=ORIENTED_EDGE('',*,*,#704,.T.);
#929=ORIENTED_EDGE('',*,*,#705,.F.);
#930=ORIENTED_EDGE('',*,*,#706,.T.);
#931=ORIENTED_EDGE('',*,*,#707,.F.);
#932=ORIENTED_EDGE('',*,*,#704,.F.);
#933=ORIENTED_EDGE('',*,*,#708,.F.);
#934=ORIENTED_EDGE('',*,*,#709,.F.);
#935=ORIENTED_EDGE('',*,*,#710,.F.);
#936=ORIENTED_EDGE('',*,*,#706,.F.);
#937=ORIENTED_EDGE('',*,*,#711,.F.);
#938=ORIENTED_EDGE('',*,*,#712,.F.);
#939=ORIENTED_EDGE('',*,*,#713,.F.);
#940=ORIENTED_EDGE('',*,*,#714,.T.);
#941=ORIENTED_EDGE('',*,*,#655,.F.);
#942=ORIENTED_EDGE('',*,*,#715,.F.);
#943=ORIENTED_EDGE('',*,*,#716,.F.);
#944=ORIENTED_EDGE('',*,*,#717,.T.);
#945=ORIENTED_EDGE('',*,*,#647,.F.);
#946=ORIENTED_EDGE('',*,*,#718,.F.);
#947=ORIENTED_EDGE('',*,*,#719,.T.);
#948=ORIENTED_EDGE('',*,*,#720,.T.);
#949=ORIENTED_EDGE('',*,*,#719,.F.);
#950=ORIENTED_EDGE('',*,*,#718,.T.);
#951=ORIENTED_EDGE('',*,*,#721,.T.);
#952=ORIENTED_EDGE('',*,*,#720,.F.);
#953=ORIENTED_EDGE('',*,*,#722,.T.);
#954=ORIENTED_EDGE('',*,*,#723,.T.);
#955=ORIENTED_EDGE('',*,*,#721,.F.);
#956=ORIENTED_EDGE('',*,*,#723,.F.);
#957=ORIENTED_EDGE('',*,*,#724,.F.);
#958=ORIENTED_EDGE('',*,*,#724,.T.);
#959=ORIENTED_EDGE('',*,*,#725,.T.);
#960=ORIENTED_EDGE('',*,*,#726,.T.);
#961=ORIENTED_EDGE('',*,*,#725,.F.);
#962=ORIENTED_EDGE('',*,*,#727,.F.);
#963=ORIENTED_EDGE('',*,*,#727,.T.);
#964=ORIENTED_EDGE('',*,*,#728,.T.);
#965=ORIENTED_EDGE('',*,*,#729,.T.);
#966=ORIENTED_EDGE('',*,*,#728,.F.);
#967=ORIENTED_EDGE('',*,*,#730,.T.);
#968=ORIENTED_EDGE('',*,*,#730,.F.);
#969=ORIENTED_EDGE('',*,*,#731,.T.);
#970=ORIENTED_EDGE('',*,*,#732,.T.);
#971=ORIENTED_EDGE('',*,*,#731,.F.);
#972=ORIENTED_EDGE('',*,*,#733,.T.);
#973=ORIENTED_EDGE('',*,*,#733,.F.);
#974=ORIENTED_EDGE('',*,*,#734,.T.);
#975=ORIENTED_EDGE('',*,*,#735,.T.);
#976=ORIENTED_EDGE('',*,*,#734,.F.);
#977=ORIENTED_EDGE('',*,*,#736,.T.);
#978=ORIENTED_EDGE('',*,*,#736,.F.);
#979=ORIENTED_EDGE('',*,*,#737,.T.);
#980=ORIENTED_EDGE('',*,*,#738,.T.);
#981=ORIENTED_EDGE('',*,*,#737,.F.);
#982=ORIENTED_EDGE('',*,*,#739,.T.);
#983=ORIENTED_EDGE('',*,*,#739,.F.);
#984=ORIENTED_EDGE('',*,*,#740,.T.);
#985=ORIENTED_EDGE('',*,*,#741,.T.);
#986=ORIENTED_EDGE('',*,*,#740,.F.);
#987=ORIENTED_EDGE('',*,*,#742,.T.);
#988=ORIENTED_EDGE('',*,*,#742,.F.);
#989=ORIENTED_EDGE('',*,*,#743,.T.);
#990=ORIENTED_EDGE('',*,*,#744,.T.);
#991=ORIENTED_EDGE('',*,*,#698,.T.);
#992=ORIENTED_EDGE('',*,*,#743,.F.);
#993=ORIENTED_EDGE('',*,*,#745,.T.);
#994=ORIENTED_EDGE('',*,*,#745,.F.);
#995=ORIENTED_EDGE('',*,*,#746,.T.);
#996=ORIENTED_EDGE('',*,*,#747,.T.);
#997=ORIENTED_EDGE('',*,*,#746,.F.);
#998=ORIENTED_EDGE('',*,*,#748,.T.);
#999=ORIENTED_EDGE('',*,*,#749,.T.);
#1000=ORIENTED_EDGE('',*,*,#750,.T.);
#1001=ORIENTED_EDGE('',*,*,#751,.T.);
#1002=ORIENTED_EDGE('',*,*,#752,.T.);
#1003=ORIENTED_EDGE('',*,*,#694,.T.);
#1004=ORIENTED_EDGE('',*,*,#753,.F.);
#1005=ORIENTED_EDGE('',*,*,#751,.F.);
#1006=ORIENTED_EDGE('',*,*,#754,.T.);
#1007=ORIENTED_EDGE('',*,*,#755,.T.);
#1008=ORIENTED_EDGE('',*,*,#702,.T.);
#1009=ORIENTED_EDGE('',*,*,#756,.T.);
#1010=ORIENTED_EDGE('',*,*,#757,.F.);
#1011=ORIENTED_EDGE('',*,*,#749,.F.);
#1012=ORIENTED_EDGE('',*,*,#758,.F.);
#1013=ORIENTED_EDGE('',*,*,#759,.F.);
#1014=ORIENTED_EDGE('',*,*,#760,.T.);
#1015=ORIENTED_EDGE('',*,*,#754,.F.);
#1016=ORIENTED_EDGE('',*,*,#750,.F.);
#1017=ORIENTED_EDGE('',*,*,#757,.T.);
#1018=ORIENTED_EDGE('',*,*,#761,.T.);
#1019=ORIENTED_EDGE('',*,*,#762,.F.);
#1020=ORIENTED_EDGE('',*,*,#763,.T.);
#1021=ORIENTED_EDGE('',*,*,#716,.T.);
#1022=ORIENTED_EDGE('',*,*,#764,.T.);
#1023=ORIENTED_EDGE('',*,*,#713,.T.);
#1024=ORIENTED_EDGE('',*,*,#765,.T.);
#1025=ORIENTED_EDGE('',*,*,#766,.T.);
#1026=ORIENTED_EDGE('',*,*,#758,.T.);
#1027=ORIENTED_EDGE('',*,*,#767,.T.);
#1028=ORIENTED_EDGE('',*,*,#722,.F.);
#1029=ORIENTED_EDGE('',*,*,#726,.F.);
#1030=ORIENTED_EDGE('',*,*,#729,.F.);
#1031=ORIENTED_EDGE('',*,*,#768,.T.);
#1032=ORIENTED_EDGE('',*,*,#700,.T.);
#1033=ORIENTED_EDGE('',*,*,#769,.T.);
#1034=ORIENTED_EDGE('',*,*,#765,.F.);
#1035=ORIENTED_EDGE('',*,*,#712,.T.);
#1036=ORIENTED_EDGE('',*,*,#654,.T.);
#1037=ORIENTED_EDGE('',*,*,#658,.F.);
#1038=ORIENTED_EDGE('',*,*,#625,.F.);
#1039=ORIENTED_EDGE('',*,*,#714,.F.);
#1040=ORIENTED_EDGE('',*,*,#764,.F.);
#1041=ORIENTED_EDGE('',*,*,#715,.T.);
#1042=ORIENTED_EDGE('',*,*,#646,.T.);
#1043=ORIENTED_EDGE('',*,*,#769,.F.);
#1044=ORIENTED_EDGE('',*,*,#699,.T.);
#1045=ORIENTED_EDGE('',*,*,#770,.T.);
#1046=ORIENTED_EDGE('',*,*,#759,.T.);
#1047=ORIENTED_EDGE('',*,*,#766,.F.);
#1048=ORIENTED_EDGE('',*,*,#771,.T.);
#1049=ORIENTED_EDGE('',*,*,#709,.T.);
#1050=ORIENTED_EDGE('',*,*,#772,.T.);
#1051=ORIENTED_EDGE('',*,*,#767,.F.);
#1052=ORIENTED_EDGE('',*,*,#762,.T.);
#1053=ORIENTED_EDGE('',*,*,#756,.F.);
#1054=ORIENTED_EDGE('',*,*,#705,.T.);
#1055=ORIENTED_EDGE('',*,*,#707,.T.);
#1056=ORIENTED_EDGE('',*,*,#710,.T.);
#1057=ORIENTED_EDGE('',*,*,#771,.F.);
#1058=ORIENTED_EDGE('',*,*,#761,.F.);
#1059=ORIENTED_EDGE('',*,*,#735,.F.);
#1060=ORIENTED_EDGE('',*,*,#741,.F.);
#1061=ORIENTED_EDGE('',*,*,#747,.F.);
#1062=ORIENTED_EDGE('',*,*,#744,.F.);
#1063=ORIENTED_EDGE('',*,*,#695,.T.);
#1064=ORIENTED_EDGE('',*,*,#752,.F.);
#1065=ORIENTED_EDGE('',*,*,#760,.F.);
#1066=ORIENTED_EDGE('',*,*,#770,.F.);
#1067=ORIENTED_EDGE('',*,*,#701,.T.);
#1068=ORIENTED_EDGE('',*,*,#732,.F.);
#1069=ORIENTED_EDGE('',*,*,#738,.F.);
#1070=ORIENTED_EDGE('',*,*,#717,.F.);
#1071=ORIENTED_EDGE('',*,*,#763,.F.);
#1072=ORIENTED_EDGE('',*,*,#772,.F.);
#1073=ORIENTED_EDGE('',*,*,#711,.T.);
#1074=ORIENTED_EDGE('',*,*,#773,.T.);
#1075=ORIENTED_EDGE('',*,*,#621,.T.);
#1076=ORIENTED_EDGE('',*,*,#645,.T.);
#1077=ORIENTED_EDGE('',*,*,#648,.T.);
#1078=ORIENTED_EDGE('',*,*,#773,.F.);
#1079=ORIENTED_EDGE('',*,*,#708,.T.);
#1080=ORIENTED_EDGE('',*,*,#774,.F.);
#1081=ORIENTED_EDGE('',*,*,#622,.F.);
#1082=ORIENTED_EDGE('',*,*,#774,.T.);
#1083=ORIENTED_EDGE('',*,*,#703,.T.);
#1084=ORIENTED_EDGE('',*,*,#755,.F.);
#1085=ORIENTED_EDGE('',*,*,#748,.F.);
#1086=ORIENTED_EDGE('',*,*,#753,.T.);
#1087=ORIENTED_EDGE('',*,*,#693,.T.);
#1088=ORIENTED_EDGE('',*,*,#775,.T.);
#1089=ORIENTED_EDGE('',*,*,#623,.T.);
#1090=ORIENTED_EDGE('',*,*,#775,.F.);
#1091=ORIENTED_EDGE('',*,*,#697,.T.);
#1092=ORIENTED_EDGE('',*,*,#768,.F.);
#1093=ORIENTED_EDGE('',*,*,#624,.F.);
#1094=CYLINDRICAL_SURFACE('',#1250,12.);
#1095=CYLINDRICAL_SURFACE('',#1266,12.);
#1096=CYLINDRICAL_SURFACE('',#1279,0.750000000000002);
#1097=CYLINDRICAL_SURFACE('',#1282,0.750000000000001);
#1098=CYLINDRICAL_SURFACE('',#1285,0.750000000000001);
#1099=CYLINDRICAL_SURFACE('',#1288,0.750000000000002);
#1100=CYLINDRICAL_SURFACE('',#1294,3.);
#1101=CYLINDRICAL_SURFACE('',#1295,1.25);
#1102=CYLINDRICAL_SURFACE('',#1310,1.5);
#1103=CYLINDRICAL_SURFACE('',#1316,3.);
#1104=CYLINDRICAL_SURFACE('',#1320,1.);
#1105=CYLINDRICAL_SURFACE('',#1324,1.);
#1106=CYLINDRICAL_SURFACE('',#1328,0.750000000000002);
#1107=CYLINDRICAL_SURFACE('',#1332,0.750000000000002);
#1108=CYLINDRICAL_SURFACE('',#1336,0.750000000000001);
#1109=CYLINDRICAL_SURFACE('',#1340,0.750000000000001);
#1110=CYLINDRICAL_SURFACE('',#1344,1.);
#1111=CYLINDRICAL_SURFACE('',#1348,1.);
#1112=CYLINDRICAL_SURFACE('',#1354,12.);
#1113=CYLINDRICAL_SURFACE('',#1366,2.);
#1114=CYLINDRICAL_SURFACE('',#1368,2.);
#1115=STYLED_ITEM('',(#2078),#1163);
#1116=STYLED_ITEM('',(#2078),#1164);
#1117=STYLED_ITEM('',(#2079),#1165);
#1118=STYLED_ITEM('',(#2078),#1166);
#1119=STYLED_ITEM('',(#2079),#1167);
#1120=STYLED_ITEM('',(#2078),#1168);
#1121=STYLED_ITEM('',(#2078),#1169);
#1122=STYLED_ITEM('',(#2078),#1170);
#1123=STYLED_ITEM('',(#2078),#1171);
#1124=STYLED_ITEM('',(#2078),#1172);
#1125=STYLED_ITEM('',(#2078),#1173);
#1126=STYLED_ITEM('',(#2080),#1174);
#1127=STYLED_ITEM('',(#2080),#1175);
#1128=STYLED_ITEM('',(#2080),#1176);
#1129=STYLED_ITEM('',(#2078),#1177);
#1130=STYLED_ITEM('',(#2078),#1178);
#1131=STYLED_ITEM('',(#2080),#1179);
#1132=STYLED_ITEM('',(#2080),#1180);
#1133=STYLED_ITEM('',(#2078),#1189);
#1134=STYLED_ITEM('',(#2078),#1190);
#1135=STYLED_ITEM('',(#2078),#1192);
#1136=STYLED_ITEM('',(#2078),#1193);
#1137=STYLED_ITEM('',(#2078),#1194);
#1138=STYLED_ITEM('',(#2078),#1195);
#1139=STYLED_ITEM('',(#2078),#1196);
#1140=STYLED_ITEM('',(#2078),#1197);
#1141=STYLED_ITEM('',(#2078),#1198);
#1142=STYLED_ITEM('',(#2078),#1199);
#1143=STYLED_ITEM('',(#2078),#1200);
#1144=STYLED_ITEM('',(#2081),#1201);
#1145=STYLED_ITEM('',(#2081),#1203);
#1146=STYLED_ITEM('',(#2081),#1204);
#1147=STYLED_ITEM('',(#2078),#1221);
#1148=STYLED_ITEM('',(#2079),#1222);
#1149=STYLED_ITEM('',(#2078),#1223);
#1150=STYLED_ITEM('',(#2078),#1224);
#1151=STYLED_ITEM('',(#2078),#1225);
#1152=STYLED_ITEM('',(#2078),#1226);
#1153=STYLED_ITEM('',(#2078),#1227);
#1154=STYLED_ITEM('',(#2079),#1228);
#1155=STYLED_ITEM('',(#2079),#1229);
#1156=STYLED_ITEM('',(#2078),#1230);
#1157=STYLED_ITEM('',(#2078),#1231);
#1158=STYLED_ITEM('',(#2078),#1232);
#1159=STYLED_ITEM('',(#2078),#1233);
#1160=STYLED_ITEM('',(#2078),#1234);
#1161=STYLED_ITEM('',(#2078),#1235);
#1162=STYLED_ITEM('',(#2077),#13);
#1163=ADVANCED_FACE('',(#81),#1094,.F.);
#1164=ADVANCED_FACE('',(#82,#16,#17,#18,#19),#31,.F.);
#1165=ADVANCED_FACE('',(#83),#32,.F.);
#1166=ADVANCED_FACE('',(#84,#20),#33,.T.);
#1167=ADVANCED_FACE('',(#85),#34,.F.);
#1168=ADVANCED_FACE('',(#86),#1095,.F.);
#1169=ADVANCED_FACE('',(#87),#35,.F.);
#1170=ADVANCED_FACE('',(#88),#36,.F.);
#1171=ADVANCED_FACE('',(#89),#37,.F.);
#1172=ADVANCED_FACE('',(#90),#38,.F.);
#1173=ADVANCED_FACE('',(#91),#39,.F.);
#1174=ADVANCED_FACE('',(#92),#40,.F.);
#1175=ADVANCED_FACE('',(#93),#41,.F.);
#1176=ADVANCED_FACE('',(#94),#42,.F.);
#1177=ADVANCED_FACE('',(#95),#43,.F.);
#1178=ADVANCED_FACE('',(#96),#44,.F.);
#1179=ADVANCED_FACE('',(#97),#45,.F.);
#1180=ADVANCED_FACE('',(#98),#46,.F.);
#1181=ADVANCED_FACE('',(#99),#1096,.F.);
#1182=ADVANCED_FACE('',(#100),#47,.T.);
#1183=ADVANCED_FACE('',(#101),#1097,.F.);
#1184=ADVANCED_FACE('',(#102),#48,.T.);
#1185=ADVANCED_FACE('',(#103),#1098,.F.);
#1186=ADVANCED_FACE('',(#104),#49,.T.);
#1187=ADVANCED_FACE('',(#105),#1099,.F.);
#1188=ADVANCED_FACE('',(#106),#50,.T.);
#1189=ADVANCED_FACE('',(#107,#21),#51,.T.);
#1190=ADVANCED_FACE('',(#108),#1100,.T.);
#1191=ADVANCED_FACE('',(#109),#1101,.F.);
#1192=ADVANCED_FACE('',(#110),#52,.T.);
#1193=ADVANCED_FACE('',(#111),#53,.F.);
#1194=ADVANCED_FACE('',(#112),#14,.T.);
#1195=ADVANCED_FACE('',(#113),#54,.F.);
#1196=ADVANCED_FACE('',(#114),#55,.F.);
#1197=ADVANCED_FACE('',(#115),#15,.T.);
#1198=ADVANCED_FACE('',(#116),#56,.F.);
#1199=ADVANCED_FACE('',(#117),#57,.F.);
#1200=ADVANCED_FACE('',(#118),#58,.F.);
#1201=ADVANCED_FACE('',(#119),#1102,.F.);
#1202=ADVANCED_FACE('',(#120),#59,.F.);
#1203=ADVANCED_FACE('',(#121,#22),#60,.T.);
#1204=ADVANCED_FACE('',(#122),#1103,.T.);
#1205=ADVANCED_FACE('',(#123),#61,.T.);
#1206=ADVANCED_FACE('',(#124),#1104,.F.);
#1207=ADVANCED_FACE('',(#125),#62,.T.);
#1208=ADVANCED_FACE('',(#126),#1105,.F.);
#1209=ADVANCED_FACE('',(#127),#63,.T.);
#1210=ADVANCED_FACE('',(#128),#1106,.F.);
#1211=ADVANCED_FACE('',(#129),#64,.T.);
#1212=ADVANCED_FACE('',(#130),#1107,.F.);
#1213=ADVANCED_FACE('',(#131),#65,.T.);
#1214=ADVANCED_FACE('',(#132),#1108,.F.);
#1215=ADVANCED_FACE('',(#133),#66,.T.);
#1216=ADVANCED_FACE('',(#134),#1109,.F.);
#1217=ADVANCED_FACE('',(#135),#67,.T.);
#1218=ADVANCED_FACE('',(#136),#1110,.F.);
#1219=ADVANCED_FACE('',(#137),#68,.T.);
#1220=ADVANCED_FACE('',(#138),#1111,.F.);
#1221=ADVANCED_FACE('',(#139),#69,.T.);
#1222=ADVANCED_FACE('',(#140),#70,.F.);
#1223=ADVANCED_FACE('',(#141),#71,.F.);
#1224=ADVANCED_FACE('',(#142),#1112,.F.);
#1225=ADVANCED_FACE('',(#143,#23,#24,#25),#72,.F.);
#1226=ADVANCED_FACE('',(#144),#73,.F.);
#1227=ADVANCED_FACE('',(#145),#74,.F.);
#1228=ADVANCED_FACE('',(#146),#75,.T.);
#1229=ADVANCED_FACE('',(#147),#76,.T.);
#1230=ADVANCED_FACE('',(#148,#26,#27,#28),#77,.F.);
#1231=ADVANCED_FACE('',(#149,#29,#30),#78,.F.);
#1232=ADVANCED_FACE('',(#150),#79,.F.);
#1233=ADVANCED_FACE('',(#151),#1113,.T.);
#1234=ADVANCED_FACE('',(#152),#80,.F.);
#1235=ADVANCED_FACE('',(#153),#1114,.T.);
#1236=CLOSED_SHELL('',(#1163,#1164,#1165,#1166,#1167,#1168,#1169,#1170,
#1171,#1172,#1173,#1174,#1175,#1176,#1177,#1178,#1179,#1180,#1181,#1182,
#1183,#1184,#1185,#1186,#1187,#1188,#1189,#1190,#1191,#1192,#1193,#1194,
#1195,#1196,#1197,#1198,#1199,#1200,#1201,#1202,#1203,#1204,#1205,#1206,
#1207,#1208,#1209,#1210,#1211,#1212,#1213,#1214,#1215,#1216,#1217,#1218,
#1219,#1220,#1221,#1222,#1223,#1224,#1225,#1226,#1227,#1228,#1229,#1230,
#1231,#1232,#1233,#1234,#1235));
#1237=DERIVED_UNIT_ELEMENT(#1239,1.);
#1238=DERIVED_UNIT_ELEMENT(#2063,-3.);
#1239=(
MASS_UNIT()
NAMED_UNIT(*)
SI_UNIT(.KILO.,.GRAM.)
);
#1240=DERIVED_UNIT((#1237,#1238));
#1241=MEASURE_REPRESENTATION_ITEM('density measure',
POSITIVE_RATIO_MEASURE(7850.),#1240);
#1242=PROPERTY_DEFINITION_REPRESENTATION(#1247,#1244);
#1243=PROPERTY_DEFINITION_REPRESENTATION(#1248,#1245);
#1244=REPRESENTATION('material name',(#1246),#2060);
#1245=REPRESENTATION('density',(#1241),#2060);
#1246=DESCRIPTIVE_REPRESENTATION_ITEM('Steel','Steel');
#1247=PROPERTY_DEFINITION('material property','material name',#2070);
#1248=PROPERTY_DEFINITION('material property','density of part',#2070);
#1249=AXIS2_PLACEMENT_3D('',#1722,#1369,#1370);
#1250=AXIS2_PLACEMENT_3D('',#1723,#1371,#1372);
#1251=AXIS2_PLACEMENT_3D('',#1726,#1373,#1374);
#1252=AXIS2_PLACEMENT_3D('',#1730,#1376,#1377);
#1253=AXIS2_PLACEMENT_3D('',#1732,#1379,#1380);
#1254=AXIS2_PLACEMENT_3D('',#1737,#1382,#1383);
#1255=AXIS2_PLACEMENT_3D('',#1741,#1385,#1386);
#1256=AXIS2_PLACEMENT_3D('',#1747,#1389,#1390);
#1257=AXIS2_PLACEMENT_3D('',#1771,#1403,#1404);
#1258=AXIS2_PLACEMENT_3D('',#1773,#1405,#1406);
#1259=AXIS2_PLACEMENT_3D('',#1775,#1407,#1408);
#1260=AXIS2_PLACEMENT_3D('',#1777,#1409,#1410);
#1261=AXIS2_PLACEMENT_3D('',#1778,#1411,#1412);
#1262=AXIS2_PLACEMENT_3D('',#1782,#1415,#1416);
#1263=AXIS2_PLACEMENT_3D('',#1796,#1423,#1424);
#1264=AXIS2_PLACEMENT_3D('',#1803,#1428,#1429);
#1265=AXIS2_PLACEMENT_3D('',#1804,#1430,#1431);
#1266=AXIS2_PLACEMENT_3D('',#1807,#1434,#1435);
#1267=AXIS2_PLACEMENT_3D('',#1809,#1437,#1438);
#1268=AXIS2_PLACEMENT_3D('',#1815,#1442,#1443);
#1269=AXIS2_PLACEMENT_3D('',#1819,#1446,#1447);
#1270=AXIS2_PLACEMENT_3D('',#1823,#1450,#1451);
#1271=AXIS2_PLACEMENT_3D('',#1825,#1453,#1454);
#1272=AXIS2_PLACEMENT_3D('',#1827,#1456,#1457);
#1273=AXIS2_PLACEMENT_3D('',#1833,#1461,#1462);
#1274=AXIS2_PLACEMENT_3D('',#1837,#1465,#1466);
#1275=AXIS2_PLACEMENT_3D('',#1843,#1471,#1472);
#1276=AXIS2_PLACEMENT_3D('',#1844,#1473,#1474);
#1277=AXIS2_PLACEMENT_3D('',#1845,#1475,#1476);
#1278=AXIS2_PLACEMENT_3D('',#1847,#1478,#1479);
#1279=AXIS2_PLACEMENT_3D('',#1848,#1480,#1481);
#1280=AXIS2_PLACEMENT_3D('',#1850,#1482,#1483);
#1281=AXIS2_PLACEMENT_3D('',#1852,#1485,#1486);
#1282=AXIS2_PLACEMENT_3D('',#1853,#1487,#1488);
#1283=AXIS2_PLACEMENT_3D('',#1855,#1489,#1490);
#1284=AXIS2_PLACEMENT_3D('',#1857,#1492,#1493);
#1285=AXIS2_PLACEMENT_3D('',#1858,#1494,#1495);
#1286=AXIS2_PLACEMENT_3D('',#1860,#1496,#1497);
#1287=AXIS2_PLACEMENT_3D('',#1862,#1499,#1500);
#1288=AXIS2_PLACEMENT_3D('',#1863,#1501,#1502);
#1289=AXIS2_PLACEMENT_3D('',#1865,#1503,#1504);
#1290=AXIS2_PLACEMENT_3D('',#1867,#1506,#1507);
#1291=AXIS2_PLACEMENT_3D('',#1868,#1508,#1509);
#1292=AXIS2_PLACEMENT_3D('',#1870,#1510,#1511);
#1293=AXIS2_PLACEMENT_3D('',#1872,#1512,#1513);
#1294=AXIS2_PLACEMENT_3D('',#1873,#1514,#1515);
#1295=AXIS2_PLACEMENT_3D('',#1875,#1517,#1518);
#1296=AXIS2_PLACEMENT_3D('',#1878,#1520,#1521);
#1297=AXIS2_PLACEMENT_3D('',#1879,#1522,#1523);
#1298=AXIS2_PLACEMENT_3D('',#1880,#1524,#1525);
#1299=AXIS2_PLACEMENT_3D('',#1889,#1530,#1531);
#1300=AXIS2_PLACEMENT_3D('',#1893,#1533,#1534);
#1301=AXIS2_PLACEMENT_3D('',#1894,#1535,#1536);
#1302=AXIS2_PLACEMENT_3D('',#1895,#1537,#1538);
#1303=AXIS2_PLACEMENT_3D('',#1901,#1542,#1543);
#1304=AXIS2_PLACEMENT_3D('',#1910,#1548,#1549);
#1305=AXIS2_PLACEMENT_3D('',#1914,#1551,#1552);
#1306=AXIS2_PLACEMENT_3D('',#1915,#1553,#1554);
#1307=AXIS2_PLACEMENT_3D('',#1916,#1555,#1556);
#1308=AXIS2_PLACEMENT_3D('',#1922,#1560,#1561);
#1309=AXIS2_PLACEMENT_3D('',#1928,#1565,#1566);
#1310=AXIS2_PLACEMENT_3D('',#1934,#1570,#1571);
#1311=AXIS2_PLACEMENT_3D('',#1936,#1572,#1573);
#1312=AXIS2_PLACEMENT_3D('',#1939,#1575,#1576);
#1313=AXIS2_PLACEMENT_3D('',#1940,#1577,#1578);
#1314=AXIS2_PLACEMENT_3D('',#1941,#1579,#1580);
#1315=AXIS2_PLACEMENT_3D('',#1943,#1581,#1582);
#1316=AXIS2_PLACEMENT_3D('',#1944,#1583,#1584);
#1317=AXIS2_PLACEMENT_3D('',#1946,#1585,#1586);
#1318=AXIS2_PLACEMENT_3D('',#1948,#1588,#1589);
#1319=AXIS2_PLACEMENT_3D('',#1950,#1590,#1591);
#1320=AXIS2_PLACEMENT_3D('',#1951,#1592,#1593);
#1321=AXIS2_PLACEMENT_3D('',#1954,#1595,#1596);
#1322=AXIS2_PLACEMENT_3D('',#1955,#1597,#1598);
#1323=AXIS2_PLACEMENT_3D('',#1957,#1599,#1600);
#1324=AXIS2_PLACEMENT_3D('',#1958,#1601,#1602);
#1325=AXIS2_PLACEMENT_3D('',#1961,#1604,#1605);
#1326=AXIS2_PLACEMENT_3D('',#1962,#1606,#1607);
#1327=AXIS2_PLACEMENT_3D('',#1964,#1608,#1609);
#1328=AXIS2_PLACEMENT_3D('',#1965,#1610,#1611);
#1329=AXIS2_PLACEMENT_3D('',#1968,#1613,#1614);
#1330=AXIS2_PLACEMENT_3D('',#1969,#1615,#1616);
#1331=AXIS2_PLACEMENT_3D('',#1971,#1617,#1618);
#1332=AXIS2_PLACEMENT_3D('',#1972,#1619,#1620);
#1333=AXIS2_PLACEMENT_3D('',#1975,#1622,#1623);
#1334=AXIS2_PLACEMENT_3D('',#1976,#1624,#1625);
#1335=AXIS2_PLACEMENT_3D('',#1978,#1626,#1627);
#1336=AXIS2_PLACEMENT_3D('',#1979,#1628,#1629);
#1337=AXIS2_PLACEMENT_3D('',#1982,#1631,#1632);
#1338=AXIS2_PLACEMENT_3D('',#1983,#1633,#1634);
#1339=AXIS2_PLACEMENT_3D('',#1985,#1635,#1636);
#1340=AXIS2_PLACEMENT_3D('',#1986,#1637,#1638);
#1341=AXIS2_PLACEMENT_3D('',#1989,#1640,#1641);
#1342=AXIS2_PLACEMENT_3D('',#1990,#1642,#1643);
#1343=AXIS2_PLACEMENT_3D('',#1992,#1644,#1645);
#1344=AXIS2_PLACEMENT_3D('',#1993,#1646,#1647);
#1345=AXIS2_PLACEMENT_3D('',#1995,#1649,#1650);
#1346=AXIS2_PLACEMENT_3D('',#1996,#1651,#1652);
#1347=AXIS2_PLACEMENT_3D('',#1998,#1653,#1654);
#1348=AXIS2_PLACEMENT_3D('',#1999,#1655,#1656);
#1349=AXIS2_PLACEMENT_3D('',#2002,#1658,#1659);
#1350=AXIS2_PLACEMENT_3D('',#2003,#1660,#1661);
#1351=AXIS2_PLACEMENT_3D('',#2010,#1664,#1665);
#1352=AXIS2_PLACEMENT_3D('',#2012,#1667,#1668);
#1353=AXIS2_PLACEMENT_3D('',#2017,#1672,#1673);
#1354=AXIS2_PLACEMENT_3D('',#2022,#1677,#1678);
#1355=AXIS2_PLACEMENT_3D('',#2025,#1679,#1680);
#1356=AXIS2_PLACEMENT_3D('',#2028,#1682,#1683);
#1357=AXIS2_PLACEMENT_3D('',#2030,#1684,#1685);
#1358=AXIS2_PLACEMENT_3D('',#2032,#1687,#1688);
#1359=AXIS2_PLACEMENT_3D('',#2040,#1694,#1695);
#1360=AXIS2_PLACEMENT_3D('',#2043,#1698,#1699);
#1361=AXIS2_PLACEMENT_3D('',#2044,#1700,#1701);
#1362=AXIS2_PLACEMENT_3D('',#2046,#1703,#1704);
#1363=AXIS2_PLACEMENT_3D('',#2049,#1707,#1708);
#1364=AXIS2_PLACEMENT_3D('',#2050,#1709,#1710);
#1365=AXIS2_PLACEMENT_3D('',#2051,#1711,#1712);
#1366=AXIS2_PLACEMENT_3D('',#2053,#1714,#1715);
#1367=AXIS2_PLACEMENT_3D('',#2055,#1717,#1718);
#1368=AXIS2_PLACEMENT_3D('',#2057,#1720,#1721);
#1369=DIRECTION('axis',(0.,0.,1.));
#1370=DIRECTION('refdir',(1.,0.,0.));
#1371=DIRECTION('center_axis',(1.,0.,0.));
#1372=DIRECTION('ref_axis',(0.,0.,-1.));
#1373=DIRECTION('center_axis',(1.,0.,0.));
#1374=DIRECTION('ref_axis',(0.,0.,-1.));
#1375=DIRECTION('',(-1.,0.,0.));
#1376=DIRECTION('center_axis',(1.,0.,0.));
#1377=DIRECTION('ref_axis',(0.,0.,-1.));
#1378=DIRECTION('',(1.,0.,0.));
#1379=DIRECTION('center_axis',(1.,0.,0.));
#1380=DIRECTION('ref_axis',(0.,0.,-1.));
#1381=DIRECTION('',(0.,0.,-1.));
#1382=DIRECTION('center_axis',(1.,0.,0.));
#1383=DIRECTION('ref_axis',(0.,0.,-1.));
#1384=DIRECTION('',(0.,-1.,-2.22044604925031E-16));
#1385=DIRECTION('center_axis',(1.,0.,0.));
#1386=DIRECTION('ref_axis',(0.,0.,-1.));
#1387=DIRECTION('',(0.,0.,-1.));
#1388=DIRECTION('',(0.,-1.,0.));
#1389=DIRECTION('center_axis',(1.,0.,0.));
#1390=DIRECTION('ref_axis',(0.,0.,-1.));
#1391=DIRECTION('',(0.,5.55111512312578E-16,-1.));
#1392=DIRECTION('',(0.,-1.,0.));
#1393=DIRECTION('',(0.,3.70074341541719E-16,-1.));
#1394=DIRECTION('',(0.,1.,0.));
#1395=DIRECTION('',(0.,0.,-1.));
#1396=DIRECTION('',(0.,1.,0.));
#1397=DIRECTION('',(0.,0.,1.));
#1398=DIRECTION('',(0.,1.,0.));
#1399=DIRECTION('',(0.,0.,1.));
#1400=DIRECTION('',(0.,-1.,-5.12527442110792E-16));
#1401=DIRECTION('',(0.,0.,1.));
#1402=DIRECTION('',(0.,-1.,0.));
#1403=DIRECTION('center_axis',(-1.,0.,0.));
#1404=DIRECTION('ref_axis',(0.,0.,1.));
#1405=DIRECTION('center_axis',(-1.,0.,0.));
#1406=DIRECTION('ref_axis',(0.,0.,1.));
#1407=DIRECTION('center_axis',(-1.,0.,0.));
#1408=DIRECTION('ref_axis',(0.,0.,1.));
#1409=DIRECTION('center_axis',(-1.,0.,0.));
#1410=DIRECTION('ref_axis',(0.,0.,1.));
#1411=DIRECTION('center_axis',(0.,-1.44560289664734E-16,1.));
#1412=DIRECTION('ref_axis',(1.,0.,0.));
#1413=DIRECTION('',(0.,-1.,0.));
#1414=DIRECTION('',(1.,0.,0.));
#1415=DIRECTION('center_axis',(-1.,0.,0.));
#1416=DIRECTION('ref_axis',(0.,0.,1.));
#1417=DIRECTION('',(0.,1.,0.));
#1418=DIRECTION('',(0.,0.707106781186545,-0.70710678118655));
#1419=DIRECTION('',(0.,0.,-1.));
#1420=DIRECTION('',(0.,0.,-1.));
#1421=DIRECTION('',(0.,-1.,0.));
#1422=DIRECTION('',(0.,-5.55111512312578E-16,1.));
#1423=DIRECTION('center_axis',(1.,0.,0.));
#1424=DIRECTION('ref_axis',(0.,0.,-1.));
#1425=DIRECTION('',(0.,-1.,0.));
#1426=DIRECTION('',(0.,0.,1.));
#1427=DIRECTION('',(0.,0.707106781186548,0.707106781186547));
#1428=DIRECTION('center_axis',(-1.,0.,0.));
#1429=DIRECTION('ref_axis',(0.,0.,1.));
#1430=DIRECTION('center_axis',(0.,-1.44560289664734E-16,1.));
#1431=DIRECTION('ref_axis',(1.,0.,0.));
#1432=DIRECTION('',(1.,0.,0.));
#1433=DIRECTION('',(1.,0.,0.));
#1434=DIRECTION('center_axis',(1.,0.,0.));
#1435=DIRECTION('ref_axis',(0.,0.,-1.));
#1436=DIRECTION('',(-1.,0.,0.));
#1437=DIRECTION('center_axis',(0.,1.,0.));
#1438=DIRECTION('ref_axis',(0.,0.,1.));
#1439=DIRECTION('',(0.,0.,1.));
#1440=DIRECTION('',(-0.6,0.,0.8));
#1441=DIRECTION('',(1.,0.,0.));
#1442=DIRECTION('center_axis',(0.,0.,-1.));
#1443=DIRECTION('ref_axis',(-1.,0.,0.));
#1444=DIRECTION('',(1.,0.,0.));
#1445=DIRECTION('',(0.,1.,0.));
#1446=DIRECTION('center_axis',(0.,-1.,0.));
#1447=DIRECTION('ref_axis',(0.,0.,-1.));
#1448=DIRECTION('',(0.6,0.,-0.8));
#1449=DIRECTION('',(0.,0.,-1.));
#1450=DIRECTION('center_axis',(1.,0.,0.));
#1451=DIRECTION('ref_axis',(0.,0.,-1.));
#1452=DIRECTION('',(0.,-1.,0.));
#1453=DIRECTION('center_axis',(0.8,0.,0.6));
#1454=DIRECTION('ref_axis',(0.6,0.,-0.8));
#1455=DIRECTION('',(0.,-1.,0.));
#1456=DIRECTION('center_axis',(0.,0.,1.));
#1457=DIRECTION('ref_axis',(1.,0.,0.));
#1458=DIRECTION('',(-1.,0.,0.));
#1459=DIRECTION('',(0.,1.,0.));
#1460=DIRECTION('',(-1.,0.,0.));
#1461=DIRECTION('center_axis',(0.,-1.,0.));
#1462=DIRECTION('ref_axis',(0.,0.,-1.));
#1463=DIRECTION('',(0.,0.,1.));
#1464=DIRECTION('',(-1.,0.,0.));
#1465=DIRECTION('center_axis',(0.,4.92814848183454E-16,-1.));
#1466=DIRECTION('ref_axis',(-1.,0.,0.));
#1467=DIRECTION('',(0.,-1.,0.));
#1468=DIRECTION('',(-1.,0.,0.));
#1469=DIRECTION('',(-1.,0.,0.));
#1470=DIRECTION('',(-1.,0.,0.));
#1471=DIRECTION('center_axis',(0.,-1.,0.));
#1472=DIRECTION('ref_axis',(0.,0.,-1.));
#1473=DIRECTION('center_axis',(0.,1.,4.33680868994202E-16));
#1474=DIRECTION('ref_axis',(0.,-4.33680868994202E-16,1.));
#1475=DIRECTION('center_axis',(0.,1.,2.89120579329468E-16));
#1476=DIRECTION('ref_axis',(0.,-2.89120579329468E-16,1.));
#1477=DIRECTION('',(0.,0.,-1.));
#1478=DIRECTION('center_axis',(1.,0.,0.));
#1479=DIRECTION('ref_axis',(0.,0.,-1.));
#1480=DIRECTION('center_axis',(-1.,0.,0.));
#1481=DIRECTION('ref_axis',(0.,0.,1.));
#1482=DIRECTION('center_axis',(-1.,0.,0.));
#1483=DIRECTION('ref_axis',(0.,0.,1.));
#1484=DIRECTION('',(-1.,0.,0.));
#1485=DIRECTION('center_axis',(-1.,0.,0.));
#1486=DIRECTION('ref_axis',(0.,0.,1.));
#1487=DIRECTION('center_axis',(-1.,0.,0.));
#1488=DIRECTION('ref_axis',(0.,0.,1.));
#1489=DIRECTION('center_axis',(-1.,0.,0.));
#1490=DIRECTION('ref_axis',(0.,0.,1.));
#1491=DIRECTION('',(-1.,0.,0.));
#1492=DIRECTION('center_axis',(-1.,0.,0.));
#1493=DIRECTION('ref_axis',(0.,0.,1.));
#1494=DIRECTION('center_axis',(-1.,0.,0.));
#1495=DIRECTION('ref_axis',(0.,0.,1.));
#1496=DIRECTION('center_axis',(-1.,0.,0.));
#1497=DIRECTION('ref_axis',(0.,0.,1.));
#1498=DIRECTION('',(-1.,0.,0.));
#1499=DIRECTION('center_axis',(-1.,0.,0.));
#1500=DIRECTION('ref_axis',(0.,0.,1.));
#1501=DIRECTION('center_axis',(-1.,0.,0.));
#1502=DIRECTION('ref_axis',(0.,0.,1.));
#1503=DIRECTION('center_axis',(-1.,0.,0.));
#1504=DIRECTION('ref_axis',(0.,0.,1.));
#1505=DIRECTION('',(-1.,0.,0.));
#1506=DIRECTION('center_axis',(-1.,0.,0.));
#1507=DIRECTION('ref_axis',(0.,0.,1.));
#1508=DIRECTION('center_axis',(-1.,0.,0.));
#1509=DIRECTION('ref_axis',(0.,0.,1.));
#1510=DIRECTION('center_axis',(-1.,0.,0.));
#1511=DIRECTION('ref_axis',(0.,0.,1.));
#1512=DIRECTION('center_axis',(-1.,0.,0.));
#1513=DIRECTION('ref_axis',(0.,0.,1.));
#1514=DIRECTION('center_axis',(1.,0.,0.));
#1515=DIRECTION('ref_axis',(0.,0.,-1.));
#1516=DIRECTION('',(-1.,0.,0.));
#1517=DIRECTION('center_axis',(1.,0.,0.));
#1518=DIRECTION('ref_axis',(0.,0.,-1.));
#1519=DIRECTION('',(1.,0.,0.));
#1520=DIRECTION('center_axis',(-1.,0.,0.));
#1521=DIRECTION('ref_axis',(0.,0.,1.));
#1522=DIRECTION('center_axis',(-1.,0.,0.));
#1523=DIRECTION('ref_axis',(0.,0.,1.));
#1524=DIRECTION('center_axis',(-0.866025403784441,0.,-0.499999999999996));
#1525=DIRECTION('ref_axis',(-0.499999999999996,0.,0.866025403784441));
#1526=DIRECTION('',(-0.499999999999995,0.,0.866025403784442));
#1527=DIRECTION('',(0.,1.,0.));
#1528=DIRECTION('',(0.499999999999994,0.,-0.866025403784442));
#1529=DIRECTION('',(0.,-1.,0.));
#1530=DIRECTION('center_axis',(-1.,0.,0.));
#1531=DIRECTION('ref_axis',(0.,0.,1.));
#1532=DIRECTION('',(-0.499999999999994,0.866025403784442,0.));
#1533=DIRECTION('center_axis',(-1.,0.,0.));
#1534=DIRECTION('ref_axis',(0.,0.,1.));
#1535=DIRECTION('center_axis',(1.,0.,0.));
#1536=DIRECTION('ref_axis',(0.,0.,-1.));
#1537=DIRECTION('center_axis',(-0.866025403784441,-0.499999999999996,0.));
#1538=DIRECTION('ref_axis',(0.,0.,1.));
#1539=DIRECTION('',(-0.499999999999994,0.866025403784442,0.));
#1540=DIRECTION('',(0.,0.,-1.));
#1541=DIRECTION('',(0.,0.,1.));
#1542=DIRECTION('center_axis',(-0.499999999999997,0.,-0.86602540378444));
#1543=DIRECTION('ref_axis',(-0.86602540378444,0.,0.499999999999997));
#1544=DIRECTION('',(-0.866025403784439,0.,0.499999999999998));
#1545=DIRECTION('',(0.,1.,0.));
#1546=DIRECTION('',(0.866025403784439,0.,-0.499999999999998));
#1547=DIRECTION('',(0.,-1.,0.));
#1548=DIRECTION('center_axis',(-1.,0.,0.));
#1549=DIRECTION('ref_axis',(0.,0.,1.));
#1550=DIRECTION('',(0.86602540378444,0.499999999999997,0.));
#1551=DIRECTION('center_axis',(-1.,0.,0.));
#1552=DIRECTION('ref_axis',(0.,0.,1.));
#1553=DIRECTION('center_axis',(-1.,0.,0.));
#1554=DIRECTION('ref_axis',(0.,0.,1.));
#1555=DIRECTION('center_axis',(-0.499999999999997,0.86602540378444,0.));
#1556=DIRECTION('ref_axis',(0.,0.,1.));
#1557=DIRECTION('',(0.86602540378444,0.499999999999997,0.));
#1558=DIRECTION('',(0.,0.,-1.));
#1559=DIRECTION('',(0.,0.,1.));
#1560=DIRECTION('center_axis',(0.,-0.707106781186547,0.707106781186548));
#1561=DIRECTION('ref_axis',(1.,0.,0.));
#1562=DIRECTION('',(-1.,0.,0.));
#1563=DIRECTION('',(0.,-0.707106781186548,-0.707106781186547));
#1564=DIRECTION('',(-1.,0.,0.));
#1565=DIRECTION('center_axis',(0.,0.70710678118655,0.707106781186545));
#1566=DIRECTION('ref_axis',(1.,0.,0.));
#1567=DIRECTION('',(-1.,0.,0.));
#1568=DIRECTION('',(0.,-0.707106781186545,0.70710678118655));
#1569=DIRECTION('',(-1.,0.,0.));
#1570=DIRECTION('center_axis',(1.,0.,0.));
#1571=DIRECTION('ref_axis',(0.,0.,-1.));
#1572=DIRECTION('center_axis',(-1.,0.,0.));
#1573=DIRECTION('ref_axis',(0.,0.,1.));
#1574=DIRECTION('',(1.,0.,0.));
#1575=DIRECTION('center_axis',(1.,0.,0.));
#1576=DIRECTION('ref_axis',(0.,0.,-1.));
#1577=DIRECTION('center_axis',(-1.,0.,0.));
#1578=DIRECTION('ref_axis',(0.,0.,1.));
#1579=DIRECTION('center_axis',(1.,0.,0.));
#1580=DIRECTION('ref_axis',(0.,0.,-1.));
#1581=DIRECTION('center_axis',(1.,0.,0.));
#1582=DIRECTION('ref_axis',(0.,0.,-1.));
#1583=DIRECTION('center_axis',(-1.,0.,0.));
#1584=DIRECTION('ref_axis',(0.,0.,1.));
#1585=DIRECTION('center_axis',(-1.,0.,0.));
#1586=DIRECTION('ref_axis',(0.,0.,1.));
#1587=DIRECTION('',(1.,0.,0.));
#1588=DIRECTION('center_axis',(1.,0.,0.));
#1589=DIRECTION('ref_axis',(0.,0.,-1.));
#1590=DIRECTION('center_axis',(-1.,0.,0.));
#1591=DIRECTION('ref_axis',(0.,0.,1.));
#1592=DIRECTION('center_axis',(1.,0.,0.));
#1593=DIRECTION('ref_axis',(0.,0.,-1.));
#1594=DIRECTION('',(1.,0.,0.));
#1595=DIRECTION('center_axis',(-1.,0.,0.));
#1596=DIRECTION('ref_axis',(0.,0.,1.));
#1597=DIRECTION('center_axis',(1.,0.,0.));
#1598=DIRECTION('ref_axis',(0.,0.,-1.));
#1599=DIRECTION('center_axis',(-1.,0.,0.));
#1600=DIRECTION('ref_axis',(0.,0.,1.));
#1601=DIRECTION('center_axis',(1.,0.,0.));
#1602=DIRECTION('ref_axis',(0.,0.,-1.));
#1603=DIRECTION('',(1.,0.,0.));
#1604=DIRECTION('center_axis',(-1.,0.,0.));
#1605=DIRECTION('ref_axis',(0.,0.,1.));
#1606=DIRECTION('center_axis',(1.,0.,0.));
#1607=DIRECTION('ref_axis',(0.,0.,-1.));
#1608=DIRECTION('center_axis',(1.,0.,0.));
#1609=DIRECTION('ref_axis',(0.,0.,-1.));
#1610=DIRECTION('center_axis',(1.,0.,0.));
#1611=DIRECTION('ref_axis',(0.,0.,-1.));
#1612=DIRECTION('',(1.,0.,0.));
#1613=DIRECTION('center_axis',(1.,0.,0.));
#1614=DIRECTION('ref_axis',(0.,0.,-1.));
#1615=DIRECTION('center_axis',(1.,0.,0.));
#1616=DIRECTION('ref_axis',(0.,0.,-1.));
#1617=DIRECTION('center_axis',(1.,0.,0.));
#1618=DIRECTION('ref_axis',(0.,0.,-1.));
#1619=DIRECTION('center_axis',(1.,0.,0.));
#1620=DIRECTION('ref_axis',(0.,0.,-1.));
#1621=DIRECTION('',(1.,0.,0.));
#1622=DIRECTION('center_axis',(1.,0.,0.));
#1623=DIRECTION('ref_axis',(0.,0.,-1.));
#1624=DIRECTION('center_axis',(1.,0.,0.));
#1625=DIRECTION('ref_axis',(0.,0.,-1.));
#1626=DIRECTION('center_axis',(1.,0.,0.));
#1627=DIRECTION('ref_axis',(0.,0.,-1.));
#1628=DIRECTION('center_axis',(1.,0.,0.));
#1629=DIRECTION('ref_axis',(0.,0.,-1.));
#1630=DIRECTION('',(1.,0.,0.));
#1631=DIRECTION('center_axis',(1.,0.,0.));
#1632=DIRECTION('ref_axis',(0.,0.,-1.));
#1633=DIRECTION('center_axis',(1.,0.,0.));
#1634=DIRECTION('ref_axis',(0.,0.,-1.));
#1635=DIRECTION('center_axis',(1.,0.,0.));
#1636=DIRECTION('ref_axis',(0.,0.,-1.));
#1637=DIRECTION('center_axis',(1.,0.,0.));
#1638=DIRECTION('ref_axis',(0.,0.,-1.));
#1639=DIRECTION('',(1.,0.,0.));
#1640=DIRECTION('center_axis',(1.,0.,0.));
#1641=DIRECTION('ref_axis',(0.,0.,-1.));
#1642=DIRECTION('center_axis',(1.,0.,0.));
#1643=DIRECTION('ref_axis',(0.,0.,-1.));
#1644=DIRECTION('center_axis',(1.,0.,0.));
#1645=DIRECTION('ref_axis',(0.,0.,-1.));
#1646=DIRECTION('center_axis',(1.,0.,0.));
#1647=DIRECTION('ref_axis',(0.,0.,-1.));
#1648=DIRECTION('',(1.,0.,0.));
#1649=DIRECTION('center_axis',(1.,0.,0.));
#1650=DIRECTION('ref_axis',(0.,0.,-1.));
#1651=DIRECTION('center_axis',(1.,0.,0.));
#1652=DIRECTION('ref_axis',(0.,0.,-1.));
#1653=DIRECTION('center_axis',(1.,0.,0.));
#1654=DIRECTION('ref_axis',(0.,0.,-1.));
#1655=DIRECTION('center_axis',(1.,0.,0.));
#1656=DIRECTION('ref_axis',(0.,0.,-1.));
#1657=DIRECTION('',(1.,0.,0.));
#1658=DIRECTION('center_axis',(1.,0.,0.));
#1659=DIRECTION('ref_axis',(0.,0.,-1.));
#1660=DIRECTION('center_axis',(1.,0.,0.));
#1661=DIRECTION('ref_axis',(0.,0.,-1.));
#1662=DIRECTION('',(0.,-1.,-3.17206578464331E-16));
#1663=DIRECTION('',(0.,-4.29433409315814E-17,-1.));
#1664=DIRECTION('center_axis',(-1.,0.,0.));
#1665=DIRECTION('ref_axis',(0.,0.,-1.));
#1666=DIRECTION('',(0.,0.,1.));
#1667=DIRECTION('center_axis',(0.,-1.,0.));
#1668=DIRECTION('ref_axis',(0.,0.,-1.));
#1669=DIRECTION('',(0.,0.,1.));
#1670=DIRECTION('',(-1.,0.,0.));
#1671=DIRECTION('',(-1.,0.,0.));
#1672=DIRECTION('center_axis',(0.,1.,-3.3549485102798E-17));
#1673=DIRECTION('ref_axis',(0.,3.3549485102798E-17,1.));
#1674=DIRECTION('',(-1.,0.,0.));
#1675=DIRECTION('',(0.,-4.39242513327574E-17,-1.));
#1676=DIRECTION('',(-1.,0.,0.));
#1677=DIRECTION('center_axis',(-1.,0.,0.));
#1678=DIRECTION('ref_axis',(0.,0.,1.));
#1679=DIRECTION('center_axis',(1.,0.,0.));
#1680=DIRECTION('ref_axis',(0.,0.,-1.));
#1681=DIRECTION('',(-1.,0.,0.));
#1682=DIRECTION('center_axis',(-1.,0.,0.));
#1683=DIRECTION('ref_axis',(0.,0.,1.));
#1684=DIRECTION('center_axis',(-1.,0.,0.));
#1685=DIRECTION('ref_axis',(0.,0.,1.));
#1686=DIRECTION('',(-1.,0.,0.));
#1687=DIRECTION('center_axis',(-1.,0.,0.));
#1688=DIRECTION('ref_axis',(0.,0.,1.));
#1689=DIRECTION('',(0.,0.,-1.));
#1690=DIRECTION('',(0.,1.,0.));
#1691=DIRECTION('',(0.,0.,1.));
#1692=DIRECTION('',(0.,-1.,0.));
#1693=DIRECTION('',(0.,-1.,0.));
#1694=DIRECTION('center_axis',(0.,-1.,0.));
#1695=DIRECTION('ref_axis',(0.,0.,-1.));
#1696=DIRECTION('',(-1.,0.,0.));
#1697=DIRECTION('',(-1.,0.,0.));
#1698=DIRECTION('center_axis',(0.,0.,1.));
#1699=DIRECTION('ref_axis',(1.,0.,0.));
#1700=DIRECTION('center_axis',(0.,1.44560289664734E-16,-1.));
#1701=DIRECTION('ref_axis',(-1.,0.,0.));
#1702=DIRECTION('',(0.,-1.,0.));
#1703=DIRECTION('center_axis',(0.,1.44560289664734E-16,-1.));
#1704=DIRECTION('ref_axis',(-1.,0.,0.));
#1705=DIRECTION('',(0.,-1.,0.));
#1706=DIRECTION('',(-1.,0.,0.));
#1707=DIRECTION('center_axis',(-1.,0.,0.));
#1708=DIRECTION('ref_axis',(0.,0.,1.));
#1709=DIRECTION('center_axis',(-1.,0.,0.));
#1710=DIRECTION('ref_axis',(0.,0.,1.));
#1711=DIRECTION('center_axis',(0.,1.,0.));
#1712=DIRECTION('ref_axis',(0.,0.,1.));
#1713=DIRECTION('',(-1.,0.,0.));
#1714=DIRECTION('center_axis',(-1.,0.,0.));
#1715=DIRECTION('ref_axis',(0.,0.,1.));
#1716=DIRECTION('',(-1.,0.,0.));
#1717=DIRECTION('center_axis',(0.,0.,-1.));
#1718=DIRECTION('ref_axis',(-1.,0.,0.));
#1719=DIRECTION('',(-1.,0.,0.));
#1720=DIRECTION('center_axis',(-1.,0.,0.));
#1721=DIRECTION('ref_axis',(0.,0.,1.));
#1722=CARTESIAN_POINT('',(0.,0.,0.));
#1723=CARTESIAN_POINT('Origin',(-66.2411254969543,-1.22464679914735E-15,
-12.8));
#1724=CARTESIAN_POINT('',(-6.5,-10.021975853094,-6.2));
#1725=CARTESIAN_POINT('',(-6.5,-6.47996913572896,-2.7));
#1726=CARTESIAN_POINT('Origin',(-6.5,-1.22464679914735E-15,-12.8));
#1727=CARTESIAN_POINT('',(-5.,-6.47996913572896,-2.69999999999999));
#1728=CARTESIAN_POINT('',(-5.,-6.47996913572896,-2.7));
#1729=CARTESIAN_POINT('',(-5.,-10.021975853094,-6.2));
#1730=CARTESIAN_POINT('Origin',(-5.,-1.22464679914735E-15,-12.8));
#1731=CARTESIAN_POINT('',(-6.5,-10.021975853094,-6.2));
#1732=CARTESIAN_POINT('Origin',(-6.5,0.,0.));
#1733=CARTESIAN_POINT('',(-6.5,-12.,20.8));
#1734=CARTESIAN_POINT('',(-6.5,-12.,-6.2));
#1735=CARTESIAN_POINT('',(-6.5,-12.,20.8));
#1736=CARTESIAN_POINT('',(-6.5,-10.,22.8));
#1737=CARTESIAN_POINT('Origin',(-6.5,-10.,20.8));
#1738=CARTESIAN_POINT('',(-6.5,10.,22.8));
#1739=CARTESIAN_POINT('',(-6.5,10.,22.8));
#1740=CARTESIAN_POINT('',(-6.5,12.,20.8));
#1741=CARTESIAN_POINT('Origin',(-6.5,10.,20.8));
#1742=CARTESIAN_POINT('',(-6.5,12.,-6.2));
#1743=CARTESIAN_POINT('',(-6.5,12.,20.8));
#1744=CARTESIAN_POINT('',(-6.5,10.021975853094,-6.2));
#1745=CARTESIAN_POINT('',(-6.5,12.,-6.2));
#1746=CARTESIAN_POINT('',(-6.5,6.47996913572896,-2.7));
#1747=CARTESIAN_POINT('Origin',(-6.5,-1.22464679914735E-15,-12.8));
#1748=CARTESIAN_POINT('',(-6.5,6.47996913572896,-0.699999999999998));
#1749=CARTESIAN_POINT('',(-6.5,6.47996913572896,-0.699999999999998));
#1750=CARTESIAN_POINT('',(-6.5,10.,-0.699999999999998));
#1751=CARTESIAN_POINT('',(-6.5,10.,-0.699999999999998));
#1752=CARTESIAN_POINT('',(-6.5,10.,5.3));
#1753=CARTESIAN_POINT('',(-6.5,10.,5.3));
#1754=CARTESIAN_POINT('',(-6.5,9.,5.3));
#1755=CARTESIAN_POINT('',(-6.5,9.,5.3));
#1756=CARTESIAN_POINT('',(-6.5,9.,17.3));
#1757=CARTESIAN_POINT('',(-6.5,9.,17.3));
#1758=CARTESIAN_POINT('',(-6.5,-9.,17.3));
#1759=CARTESIAN_POINT('',(-6.5,-9.,17.3));
#1760=CARTESIAN_POINT('',(-6.5,-9.,5.3));
#1761=CARTESIAN_POINT('',(-6.5,-9.,5.3));
#1762=CARTESIAN_POINT('',(-6.5,-10.,5.3));
#1763=CARTESIAN_POINT('',(-6.5,-10.,5.3));
#1764=CARTESIAN_POINT('',(-6.5,-10.,-0.699999999999998));
#1765=CARTESIAN_POINT('',(-6.5,-10.,-0.699999999999998));
#1766=CARTESIAN_POINT('',(-6.5,-6.47996913572896,-0.699999999999996));
#1767=CARTESIAN_POINT('',(-6.5,-6.47996913572896,-0.699999999999996));
#1768=CARTESIAN_POINT('',(-6.5,-6.47996913572896,-2.7));
#1769=CARTESIAN_POINT('',(-6.5,-10.021975853094,-6.2));
#1770=CARTESIAN_POINT('',(-6.5,-10.,20.05));
#1771=CARTESIAN_POINT('Origin',(-6.5,-10.,20.8));
#1772=CARTESIAN_POINT('',(-6.5,10.,-4.45));
#1773=CARTESIAN_POINT('Origin',(-6.5,10.,-3.7));
#1774=CARTESIAN_POINT('',(-6.5,-10.,-4.45));
#1775=CARTESIAN_POINT('Origin',(-6.5,-10.,-3.7));
#1776=CARTESIAN_POINT('',(-6.5,10.,20.05));
#1777=CARTESIAN_POINT('Origin',(-6.5,10.,20.8));
#1778=CARTESIAN_POINT('Origin',(-6.5,12.,-6.2));
#1779=CARTESIAN_POINT('',(-5.,-12.,-6.2));
#1780=CARTESIAN_POINT('',(-5.,-10.021975853094,-6.2));
#1781=CARTESIAN_POINT('',(-6.5,-12.,-6.2));
#1782=CARTESIAN_POINT('Origin',(-5.,0.,0.));
#1783=CARTESIAN_POINT('',(-5.,-9.99999999999999,-22.8));
#1784=CARTESIAN_POINT('',(-5.,9.99999999999999,-22.8));
#1785=CARTESIAN_POINT('',(-5.,-9.99999999999999,-22.8));
#1786=CARTESIAN_POINT('',(-5.,-12.,-20.8));
#1787=CARTESIAN_POINT('',(-5.,-12.,-20.8));
#1788=CARTESIAN_POINT('',(-5.,-12.,-6.2));
#1789=CARTESIAN_POINT('',(-5.,-6.47996913572896,-0.699999999999998));
#1790=CARTESIAN_POINT('',(-5.,-6.47996913572896,-0.699999999999998));
#1791=CARTESIAN_POINT('',(-5.,6.47996913572896,-0.699999999999998));
#1792=CARTESIAN_POINT('',(-5.,6.47996913572896,-0.699999999999998));
#1793=CARTESIAN_POINT('',(-5.,6.47996913572896,-2.7));
#1794=CARTESIAN_POINT('',(-5.,6.47996913572896,-2.7));
#1795=CARTESIAN_POINT('',(-5.,10.021975853094,-6.2));
#1796=CARTESIAN_POINT('Origin',(-5.,-1.22464679914735E-15,-12.8));
#1797=CARTESIAN_POINT('',(-5.,12.,-6.2));
#1798=CARTESIAN_POINT('',(-5.,12.,-6.2));
#1799=CARTESIAN_POINT('',(-5.,12.,-20.8));
#1800=CARTESIAN_POINT('',(-5.,12.,-20.8));
#1801=CARTESIAN_POINT('',(-5.,9.99999999999999,-22.8));
#1802=CARTESIAN_POINT('',(-5.,0.,-9.8));
#1803=CARTESIAN_POINT('Origin',(-5.,0.,-12.8));
#1804=CARTESIAN_POINT('Origin',(-6.5,12.,-6.2));
#1805=CARTESIAN_POINT('',(-6.5,10.021975853094,-6.2));
#1806=CARTESIAN_POINT('',(-6.5,12.,-6.2));
#1807=CARTESIAN_POINT('Origin',(-66.2411254969543,-1.22464679914735E-15,
-12.8));
#1808=CARTESIAN_POINT('',(-5.,6.47996913572896,-2.7));
#1809=CARTESIAN_POINT('Origin',(-8.,-9.,5.3));
#1810=CARTESIAN_POINT('',(-8.,-9.,7.3));
#1811=CARTESIAN_POINT('',(-8.,-9.,17.3));
#1812=CARTESIAN_POINT('',(-8.,-9.,7.3));
#1813=CARTESIAN_POINT('',(-6.5,-9.,5.3));
#1814=CARTESIAN_POINT('',(-8.,-9.,17.3));
#1815=CARTESIAN_POINT('Origin',(-8.,-9.,17.3));
#1816=CARTESIAN_POINT('',(-8.,9.,17.3));
#1817=CARTESIAN_POINT('',(-8.,9.,17.3));
#1818=CARTESIAN_POINT('',(-8.,-9.,17.3));
#1819=CARTESIAN_POINT('Origin',(-8.,9.,5.3));
#1820=CARTESIAN_POINT('',(-8.,9.,7.3));
#1821=CARTESIAN_POINT('',(-8.,9.,7.3));
#1822=CARTESIAN_POINT('',(-8.,9.,17.3));
#1823=CARTESIAN_POINT('Origin',(-8.,0.,0.));
#1824=CARTESIAN_POINT('',(-8.,9.,7.3));
#1825=CARTESIAN_POINT('Origin',(-8.,11.5,7.3));
#1826=CARTESIAN_POINT('',(-6.5,9.,5.3));
#1827=CARTESIAN_POINT('Origin',(16.540659228538,-10.,5.3));
#1828=CARTESIAN_POINT('',(0.,10.,5.3));
#1829=CARTESIAN_POINT('',(1.11022302462516E-15,10.,5.3));
#1830=CARTESIAN_POINT('',(0.,-10.,5.3));
#1831=CARTESIAN_POINT('',(0.,-10.,5.3));
#1832=CARTESIAN_POINT('',(1.11022302462516E-15,-10.,5.3));
#1833=CARTESIAN_POINT('Origin',(16.540659228538,-10.,5.3));
#1834=CARTESIAN_POINT('',(0.,-10.,-0.699999999999998));
#1835=CARTESIAN_POINT('',(0.,-10.,-0.699999999999998));
#1836=CARTESIAN_POINT('',(1.11022302462516E-15,-10.,-0.699999999999998));
#1837=CARTESIAN_POINT('Origin',(16.540659228538,-10.,-0.699999999999998));
#1838=CARTESIAN_POINT('',(0.,10.,-0.699999999999998));
#1839=CARTESIAN_POINT('',(0.,10.,-0.699999999999998));
#1840=CARTESIAN_POINT('',(1.11022302462516E-15,10.,-0.699999999999998));
#1841=CARTESIAN_POINT('',(-5.,6.47996913572896,-0.699999999999998));
#1842=CARTESIAN_POINT('',(-5.,-6.47996913572896,-0.699999999999996));
#1843=CARTESIAN_POINT('Origin',(16.540659228538,-6.47996913572896,-2.7));
#1844=CARTESIAN_POINT('Origin',(16.540659228538,6.47996913572896,-2.7));
#1845=CARTESIAN_POINT('Origin',(16.540659228538,10.,5.3));
#1846=CARTESIAN_POINT('',(0.,10.,5.3));
#1847=CARTESIAN_POINT('Origin',(0.,0.,0.));
#1848=CARTESIAN_POINT('Origin',(-1.5,10.,20.8));
#1849=CARTESIAN_POINT('',(-1.5,10.,20.05));
#1850=CARTESIAN_POINT('Origin',(-1.5,10.,20.8));
#1851=CARTESIAN_POINT('',(-1.5,10.,20.05));
#1852=CARTESIAN_POINT('Origin',(-1.5,10.,20.8));
#1853=CARTESIAN_POINT('Origin',(-1.5,-10.,-3.7));
#1854=CARTESIAN_POINT('',(-1.5,-10.,-4.45));
#1855=CARTESIAN_POINT('Origin',(-1.5,-10.,-3.7));
#1856=CARTESIAN_POINT('',(-1.5,-10.,-4.45));
#1857=CARTESIAN_POINT('Origin',(-1.5,-10.,-3.7));
#1858=CARTESIAN_POINT('Origin',(-1.5,10.,-3.7));
#1859=CARTESIAN_POINT('',(-1.5,10.,-4.45));
#1860=CARTESIAN_POINT('Origin',(-1.5,10.,-3.7));
#1861=CARTESIAN_POINT('',(-1.5,10.,-4.45));
#1862=CARTESIAN_POINT('Origin',(-1.5,10.,-3.7));
#1863=CARTESIAN_POINT('Origin',(-1.5,-10.,20.8));
#1864=CARTESIAN_POINT('',(-1.5,-10.,20.05));
#1865=CARTESIAN_POINT('Origin',(-1.5,-10.,20.8));
#1866=CARTESIAN_POINT('',(-1.5,-10.,20.05));
#1867=CARTESIAN_POINT('Origin',(-1.5,-10.,20.8));
#1868=CARTESIAN_POINT('Origin',(-8.,0.,-12.8));
#1869=CARTESIAN_POINT('',(-8.,0.,-9.8));
#1870=CARTESIAN_POINT('Origin',(-8.,0.,-12.8));
#1871=CARTESIAN_POINT('',(-8.,0.,-11.55));
#1872=CARTESIAN_POINT('Origin',(-8.,0.,-12.8));
#1873=CARTESIAN_POINT('Origin',(-8.,0.,-12.8));
#1874=CARTESIAN_POINT('',(-8.,-3.67394039744206E-16,-9.8));
#1875=CARTESIAN_POINT('Origin',(-8.,0.,-12.8));
#1876=CARTESIAN_POINT('',(-5.,0.,-11.55));
#1877=CARTESIAN_POINT('',(-8.,-1.53080849893419E-16,-11.55));
#1878=CARTESIAN_POINT('Origin',(-5.,0.,-12.8));
#1879=CARTESIAN_POINT('Origin',(-5.,0.,0.));
#1880=CARTESIAN_POINT('Origin',(27.3,0.,21.8));
#1881=CARTESIAN_POINT('',(27.3,10.,21.8));
#1882=CARTESIAN_POINT('',(26.7226497308104,10.,22.8));
#1883=CARTESIAN_POINT('',(27.3,10.,21.8));
#1884=CARTESIAN_POINT('',(26.7226497308104,7.,22.8));
#1885=CARTESIAN_POINT('',(26.7226497308104,7.,22.8));
#1886=CARTESIAN_POINT('',(27.3,7.,21.8));
#1887=CARTESIAN_POINT('',(26.7226497308104,7.,22.8));
#1888=CARTESIAN_POINT('',(27.3,10.,21.8));
#1889=CARTESIAN_POINT('Origin',(27.3,10.,20.8));
#1890=CARTESIAN_POINT('',(27.3,11.,20.8));
#1891=CARTESIAN_POINT('',(26.7226497308104,12.,20.8));
#1892=CARTESIAN_POINT('',(27.3,11.,20.8));
#1893=CARTESIAN_POINT('Origin',(26.7226497308104,10.,20.8));
#1894=CARTESIAN_POINT('Origin',(27.3,10.,20.8));
#1895=CARTESIAN_POINT('Origin',(26.7226497308104,12.,22.8));
#1896=CARTESIAN_POINT('',(26.7226497308104,12.,-6.2));
#1897=CARTESIAN_POINT('',(27.3,11.,-6.2));
#1898=CARTESIAN_POINT('',(27.3,11.,-6.2));
#1899=CARTESIAN_POINT('',(26.7226497308104,12.,20.8));
#1900=CARTESIAN_POINT('',(27.3,11.,-6.2));
#1901=CARTESIAN_POINT('Origin',(27.3,0.,22.2226497308104));
#1902=CARTESIAN_POINT('',(26.3,-7.,22.8));
#1903=CARTESIAN_POINT('',(27.3,-7.,22.2226497308104));
#1904=CARTESIAN_POINT('',(27.3,-7.,22.2226497308104));
#1905=CARTESIAN_POINT('',(26.3,-10.,22.8));
#1906=CARTESIAN_POINT('',(26.3,-10.,22.8));
#1907=CARTESIAN_POINT('',(27.3,-10.,22.2226497308104));
#1908=CARTESIAN_POINT('',(26.3,-10.,22.8));
#1909=CARTESIAN_POINT('',(27.3,-7.,22.2226497308104));
#1910=CARTESIAN_POINT('Origin',(27.3,-10.,20.8));
#1911=CARTESIAN_POINT('',(26.3,-12.,20.8));
#1912=CARTESIAN_POINT('',(27.3,-11.4226497308104,20.8));
#1913=CARTESIAN_POINT('',(26.3,-12.,20.8));
#1914=CARTESIAN_POINT('Origin',(27.3,-10.,20.8));
#1915=CARTESIAN_POINT('Origin',(26.3,-10.,20.8));
#1916=CARTESIAN_POINT('Origin',(27.3,-11.4226497308104,0.));
#1917=CARTESIAN_POINT('',(27.3,-11.4226497308104,-6.2));
#1918=CARTESIAN_POINT('',(26.3,-12.,-6.2));
#1919=CARTESIAN_POINT('',(26.3,-12.,-6.2));
#1920=CARTESIAN_POINT('',(27.3,-11.4226497308104,20.8));
#1921=CARTESIAN_POINT('',(26.3,-12.,-6.2));
#1922=CARTESIAN_POINT('Origin',(25.8,12.,-20.8));
#1923=CARTESIAN_POINT('',(25.8,12.,-20.8));
#1924=CARTESIAN_POINT('',(12.9,12.,-20.8));
#1925=CARTESIAN_POINT('',(25.8,9.99999999999999,-22.8));
#1926=CARTESIAN_POINT('',(25.8,12.,-20.8));
#1927=CARTESIAN_POINT('',(12.9,9.99999999999999,-22.8));
#1928=CARTESIAN_POINT('Origin',(25.8,-9.99999999999999,-22.8));
#1929=CARTESIAN_POINT('',(25.8,-9.99999999999999,-22.8));
#1930=CARTESIAN_POINT('',(12.9,-9.99999999999999,-22.8));
#1931=CARTESIAN_POINT('',(25.8,-12.,-20.8));
#1932=CARTESIAN_POINT('',(25.8,-9.99999999999999,-22.8));
#1933=CARTESIAN_POINT('',(12.9,-12.,-20.8));
#1934=CARTESIAN_POINT('Origin',(21.5573593128807,-1.22464679914735E-15,
-12.8));
#1935=CARTESIAN_POINT('',(25.8,-1.22464679914735E-15,-11.3));
#1936=CARTESIAN_POINT('Origin',(25.8,-1.22464679914735E-15,-12.8));
#1937=CARTESIAN_POINT('',(28.8,-1.40834381901946E-15,-11.3));
#1938=CARTESIAN_POINT('',(21.5573593128807,-1.40834381901946E-15,-11.3));
#1939=CARTESIAN_POINT('Origin',(28.8,-1.22464679914735E-15,-12.8));
#1940=CARTESIAN_POINT('Origin',(25.8,0.,0.));
#1941=CARTESIAN_POINT('Origin',(28.8,-1.22464679914735E-15,-12.8));
#1942=CARTESIAN_POINT('',(28.8,-1.22464679914735E-15,-15.8));
#1943=CARTESIAN_POINT('Origin',(28.8,-1.22464679914735E-15,-12.8));
#1944=CARTESIAN_POINT('Origin',(28.8,-1.22464679914735E-15,-12.8));
#1945=CARTESIAN_POINT('',(25.8,-1.59204083889156E-15,-15.8));
#1946=CARTESIAN_POINT('Origin',(25.8,-1.22464679914735E-15,-12.8));
#1947=CARTESIAN_POINT('',(28.8,-1.59204083889156E-15,-15.8));
#1948=CARTESIAN_POINT('Origin',(22.3,10.,-20.8));
#1949=CARTESIAN_POINT('',(22.3,10.,-19.8));
#1950=CARTESIAN_POINT('Origin',(22.3,10.,-20.8));
#1951=CARTESIAN_POINT('Origin',(22.3,10.,-20.8));
#1952=CARTESIAN_POINT('',(25.8,10.,-19.8));
#1953=CARTESIAN_POINT('',(22.3,10.,-19.8));
#1954=CARTESIAN_POINT('Origin',(25.8,10.,-20.8));
#1955=CARTESIAN_POINT('Origin',(22.3,-10.,-20.8));
#1956=CARTESIAN_POINT('',(22.3,-10.,-19.8));
#1957=CARTESIAN_POINT('Origin',(22.3,-10.,-20.8));
#1958=CARTESIAN_POINT('Origin',(22.3,-10.,-20.8));
#1959=CARTESIAN_POINT('',(25.8,-10.,-19.8));
#1960=CARTESIAN_POINT('',(22.3,-10.,-19.8));
#1961=CARTESIAN_POINT('Origin',(25.8,-10.,-20.8));
#1962=CARTESIAN_POINT('Origin',(22.3,10.,16.8));
#1963=CARTESIAN_POINT('',(22.3,10.,17.55));
#1964=CARTESIAN_POINT('Origin',(22.3,10.,16.8));
#1965=CARTESIAN_POINT('Origin',(22.3,10.,16.8));
#1966=CARTESIAN_POINT('',(27.3,10.,17.55));
#1967=CARTESIAN_POINT('',(22.3,10.,17.55));
#1968=CARTESIAN_POINT('Origin',(27.3,10.,16.8));
#1969=CARTESIAN_POINT('Origin',(22.3,-10.,16.8));
#1970=CARTESIAN_POINT('',(22.3,-10.,17.55));
#1971=CARTESIAN_POINT('Origin',(22.3,-10.,16.8));
#1972=CARTESIAN_POINT('Origin',(22.3,-10.,16.8));
#1973=CARTESIAN_POINT('',(27.3,-10.,17.55));
#1974=CARTESIAN_POINT('',(22.3,-10.,17.55));
#1975=CARTESIAN_POINT('Origin',(27.3,-10.,16.8));
#1976=CARTESIAN_POINT('Origin',(22.3,10.,-3.7));
#1977=CARTESIAN_POINT('',(22.3,10.,-2.95));
#1978=CARTESIAN_POINT('Origin',(22.3,10.,-3.7));
#1979=CARTESIAN_POINT('Origin',(22.3,10.,-3.7));
#1980=CARTESIAN_POINT('',(27.3,10.,-2.95));
#1981=CARTESIAN_POINT('',(22.3,10.,-2.95));
#1982=CARTESIAN_POINT('Origin',(27.3,10.,-3.7));
#1983=CARTESIAN_POINT('Origin',(22.3,-10.,-3.7));
#1984=CARTESIAN_POINT('',(22.3,-10.,-2.95));
#1985=CARTESIAN_POINT('Origin',(22.3,-10.,-3.7));
#1986=CARTESIAN_POINT('Origin',(22.3,-10.,-3.7));
#1987=CARTESIAN_POINT('',(27.3,-10.,-2.95));
#1988=CARTESIAN_POINT('',(22.3,-10.,-2.95));
#1989=CARTESIAN_POINT('Origin',(27.3,-10.,-3.7));
#1990=CARTESIAN_POINT('Origin',(22.3,10.,20.8));
#1991=CARTESIAN_POINT('',(22.3,10.,21.8));
#1992=CARTESIAN_POINT('Origin',(22.3,10.,20.8));
#1993=CARTESIAN_POINT('Origin',(22.3,10.,20.8));
#1994=CARTESIAN_POINT('',(22.3,10.,21.8));
#1995=CARTESIAN_POINT('Origin',(27.3,10.,20.8));
#1996=CARTESIAN_POINT('Origin',(22.3,-10.,20.8));
#1997=CARTESIAN_POINT('',(22.3,-10.,21.8));
#1998=CARTESIAN_POINT('Origin',(22.3,-10.,20.8));
#1999=CARTESIAN_POINT('Origin',(22.3,-10.,20.8));
#2000=CARTESIAN_POINT('',(27.3,-10.,21.8));
#2001=CARTESIAN_POINT('',(22.3,-10.,21.8));
#2002=CARTESIAN_POINT('Origin',(27.3,-10.,20.8));
#2003=CARTESIAN_POINT('Origin',(28.3,-1.22464679914735E-15,-12.8));
#2004=CARTESIAN_POINT('',(28.3,7.,22.8));
#2005=CARTESIAN_POINT('',(28.3,-7.,22.8));
#2006=CARTESIAN_POINT('',(28.3,7.,22.8));
#2007=CARTESIAN_POINT('',(28.3,-7.,-3.05320565519103));
#2008=CARTESIAN_POINT('',(28.3,-7.,22.8));
#2009=CARTESIAN_POINT('',(28.3,7.,-3.05320565519103));
#2010=CARTESIAN_POINT('Origin',(28.3,-1.22464679914735E-15,-12.8));
#2011=CARTESIAN_POINT('',(28.3,7.,-3.05320565519103));
#2012=CARTESIAN_POINT('Origin',(28.3,7.,22.8));
#2013=CARTESIAN_POINT('',(27.3,7.,-3.05320565519104));
#2014=CARTESIAN_POINT('',(27.3,7.,-3.05320565519104));
#2015=CARTESIAN_POINT('',(28.3,7.,22.8));
#2016=CARTESIAN_POINT('',(28.3,7.,-3.05320565519103));
#2017=CARTESIAN_POINT('Origin',(28.3,-7.,22.8));
#2018=CARTESIAN_POINT('',(28.3,-7.,22.8));
#2019=CARTESIAN_POINT('',(27.3,-7.,-3.05320565519103));
#2020=CARTESIAN_POINT('',(27.3,-7.,22.2226497308104));
#2021=CARTESIAN_POINT('',(28.3,-7.,-3.05320565519103));
#2022=CARTESIAN_POINT('Origin',(61.2411254969543,-1.22464679914735E-15,
-12.8));
#2023=CARTESIAN_POINT('',(25.8,10.021975853094,-6.2));
#2024=CARTESIAN_POINT('',(25.8,-10.021975853094,-6.2));
#2025=CARTESIAN_POINT('Origin',(25.8,-1.22464679914735E-15,-12.8));
#2026=CARTESIAN_POINT('',(27.3,10.021975853094,-6.2));
#2027=CARTESIAN_POINT('',(27.3,10.021975853094,-6.2));
#2028=CARTESIAN_POINT('Origin',(27.3,-1.22464679914735E-15,-12.8));
#2029=CARTESIAN_POINT('',(27.3,-10.021975853094,-6.2));
#2030=CARTESIAN_POINT('Origin',(27.3,-1.22464679914735E-15,-12.8));
#2031=CARTESIAN_POINT('',(27.3,-10.021975853094,-6.2));
#2032=CARTESIAN_POINT('Origin',(25.8,0.,0.));
#2033=CARTESIAN_POINT('',(25.8,-12.,-6.2));
#2034=CARTESIAN_POINT('',(25.8,-12.,-6.2));
#2035=CARTESIAN_POINT('',(25.8,-9.99999999999999,-22.8));
#2036=CARTESIAN_POINT('',(25.8,12.,-6.2));
#2037=CARTESIAN_POINT('',(25.8,12.,-20.8));
#2038=CARTESIAN_POINT('',(25.8,12.,-6.2));
#2039=CARTESIAN_POINT('',(25.8,-10.021975853094,-6.2));
#2040=CARTESIAN_POINT('Origin',(25.8,12.,22.8));
#2041=CARTESIAN_POINT('',(26.7226497308104,12.,20.8));
#2042=CARTESIAN_POINT('',(26.7226497308104,12.,-6.2));
#2043=CARTESIAN_POINT('Origin',(25.8,-12.,-22.8));
#2044=CARTESIAN_POINT('Origin',(27.3,12.,-6.2));
#2045=CARTESIAN_POINT('',(27.3,11.,-6.2));
#2046=CARTESIAN_POINT('Origin',(27.3,12.,-6.2));
#2047=CARTESIAN_POINT('',(27.3,-10.021975853094,-6.2));
#2048=CARTESIAN_POINT('',(26.3,-12.,-6.2));
#2049=CARTESIAN_POINT('Origin',(27.3,0.,0.));
#2050=CARTESIAN_POINT('Origin',(27.3,0.,0.));
#2051=CARTESIAN_POINT('Origin',(25.8,-12.,22.8));
#2052=CARTESIAN_POINT('',(12.9,-12.,20.8));
#2053=CARTESIAN_POINT('Origin',(25.8,-10.,20.8));
#2054=CARTESIAN_POINT('',(26.3,-10.,22.8));
#2055=CARTESIAN_POINT('Origin',(25.8,-12.,22.8));
#2056=CARTESIAN_POINT('',(12.9,10.,22.8));
#2057=CARTESIAN_POINT('Origin',(25.8,10.,20.8));
#2058=UNCERTAINTY_MEASURE_WITH_UNIT(LENGTH_MEASURE(0.01),#2062,
'DISTANCE_ACCURACY_VALUE',
'Maximum model space distance between geometric entities at asserted c
onnectivities');
#2059=UNCERTAINTY_MEASURE_WITH_UNIT(LENGTH_MEASURE(0.01),#2062,
'DISTANCE_ACCURACY_VALUE',
'Maximum model space distance between geometric entities at asserted c
onnectivities');
#2060=(
GEOMETRIC_REPRESENTATION_CONTEXT(3)
GLOBAL_UNCERTAINTY_ASSIGNED_CONTEXT((#2058))
GLOBAL_UNIT_ASSIGNED_CONTEXT((#2062,#2064,#2065))
REPRESENTATION_CONTEXT('','3D')
);
#2061=(
GEOMETRIC_REPRESENTATION_CONTEXT(3)
GLOBAL_UNCERTAINTY_ASSIGNED_CONTEXT((#2059))
GLOBAL_UNIT_ASSIGNED_CONTEXT((#2062,#2064,#2065))
REPRESENTATION_CONTEXT('','3D')
);
#2062=(
LENGTH_UNIT()
NAMED_UNIT(*)
SI_UNIT(.MILLI.,.METRE.)
);
#2063=(
LENGTH_UNIT()
NAMED_UNIT(*)
SI_UNIT($,.METRE.)
);
#2064=(
NAMED_UNIT(*)
PLANE_ANGLE_UNIT()
SI_UNIT($,.RADIAN.)
);
#2065=(
NAMED_UNIT(*)
SI_UNIT($,.STERADIAN.)
SOLID_ANGLE_UNIT()
);
#2066=SHAPE_DEFINITION_REPRESENTATION(#2067,#2068);
#2067=PRODUCT_DEFINITION_SHAPE('',$,#2070);
#2068=SHAPE_REPRESENTATION('',(#1249),#2060);
#2069=PRODUCT_DEFINITION_CONTEXT('part definition',#2074,'design');
#2070=PRODUCT_DEFINITION('Servo - Feetech STS3215',
'Servo - Feetech STS3215 v2',#2071,#2069);
#2071=PRODUCT_DEFINITION_FORMATION('',$,#2076);
#2072=PRODUCT_RELATED_PRODUCT_CATEGORY('Servo - Feetech STS3215 v2',
'Servo - Feetech STS3215 v2',(#2076));
#2073=APPLICATION_PROTOCOL_DEFINITION('international standard',
'automotive_design',2009,#2074);
#2074=APPLICATION_CONTEXT(
'Core Data for Automotive Mechanical Design Process');
#2075=PRODUCT_CONTEXT('part definition',#2074,'mechanical');
#2076=PRODUCT('Servo - Feetech STS3215','Servo - Feetech STS3215 v2',$,
(#2075));
#2077=PRESENTATION_STYLE_ASSIGNMENT((#2082));
#2078=PRESENTATION_STYLE_ASSIGNMENT((#2083));
#2079=PRESENTATION_STYLE_ASSIGNMENT((#2084));
#2080=PRESENTATION_STYLE_ASSIGNMENT((#2085));
#2081=PRESENTATION_STYLE_ASSIGNMENT((#2086));
#2082=SURFACE_STYLE_USAGE(.BOTH.,#2087);
#2083=SURFACE_STYLE_USAGE(.BOTH.,#2088);
#2084=SURFACE_STYLE_USAGE(.BOTH.,#2089);
#2085=SURFACE_STYLE_USAGE(.BOTH.,#2090);
#2086=SURFACE_STYLE_USAGE(.BOTH.,#2091);
#2087=SURFACE_SIDE_STYLE('',(#2092));
#2088=SURFACE_SIDE_STYLE('',(#2093));
#2089=SURFACE_SIDE_STYLE('',(#2094));
#2090=SURFACE_SIDE_STYLE('',(#2095));
#2091=SURFACE_SIDE_STYLE('',(#2096));
#2092=SURFACE_STYLE_FILL_AREA(#2097);
#2093=SURFACE_STYLE_FILL_AREA(#2098);
#2094=SURFACE_STYLE_FILL_AREA(#2099);
#2095=SURFACE_STYLE_FILL_AREA(#2100);
#2096=SURFACE_STYLE_FILL_AREA(#2101);
#2097=FILL_AREA_STYLE('Steel - Satin',(#2102));
#2098=FILL_AREA_STYLE('Opaque(64,64,64)',(#2103));
#2099=FILL_AREA_STYLE('Opaque(63,63,63)',(#2104));
#2100=FILL_AREA_STYLE('Opaque(255,255,255)',(#2105));
#2101=FILL_AREA_STYLE('Opaque(192,192,0)',(#2106));
#2102=FILL_AREA_STYLE_COLOUR('Steel - Satin',#2107);
#2103=FILL_AREA_STYLE_COLOUR('Opaque(64,64,64)',#2108);
#2104=FILL_AREA_STYLE_COLOUR('Opaque(63,63,63)',#2109);
#2105=FILL_AREA_STYLE_COLOUR('Opaque(255,255,255)',#2110);
#2106=FILL_AREA_STYLE_COLOUR('Opaque(192,192,0)',#2111);
#2107=COLOUR_RGB('Steel - Satin',0.627450980392157,0.627450980392157,0.627450980392157);
#2108=COLOUR_RGB('Opaque(64,64,64)',0.250980392156863,0.250980392156863,
0.250980392156863);
#2109=COLOUR_RGB('Opaque(63,63,63)',0.250980392156863,0.250980392156863,
0.250980392156863);
#2110=COLOUR_RGB('Opaque(255,255,255)',1.,1.,1.);
#2111=COLOUR_RGB('Opaque(192,192,0)',0.752941176470588,0.752941176470588,
0.);
ENDSEC;
END-ISO-10303-21;
