ISO-10303-21;
HEADER;
/* Generated by software containing ST-Developer
 * from STEP Tools, Inc. (www.steptools.com) 
 */

FILE_DESCRIPTION(
/* description */ (''),
/* implementation_level */ '2;1');

FILE_NAME(
/* name */ 'Servo Adapter.step',
/* time_stamp */ '2026-03-10T17:19:11Z',
/* author */ (''),
/* organization */ (''),
/* preprocessor_version */ 'ST-DEVELOPER v20.1',
/* originating_system */ 'Autodesk Translation Framework v14.21.0.0',
/* authorisation */ '');

FILE_SCHEMA (('AUTOMOTIVE_DESIGN { 1 0 10303 214 3 1 1 }'));
ENDSEC;

DATA;
#10=MECHANICAL_DESIGN_GEOMETRIC_PRESENTATION_REPRESENTATION('',(#13),#371);
#11=SHAPE_REPRESENTATION_RELATIONSHIP('SRR','None',#378,#12);
#12=ADVANCED_BREP_SHAPE_REPRESENTATION('',(#14),#370);
#13=STYLED_ITEM('',(#387),#14);
#14=MANIFOLD_SOLID_BREP('Body1',#207);
#15=FACE_BOUND('',#45,.T.);
#16=FACE_BOUND('',#48,.T.);
#17=FACE_BOUND('',#56,.T.);
#18=FACE_BOUND('',#57,.T.);
#19=FACE_BOUND('',#58,.T.);
#20=FACE_BOUND('',#59,.T.);
#21=FACE_BOUND('',#60,.T.);
#22=FACE_BOUND('',#62,.T.);
#23=FACE_BOUND('',#63,.T.);
#24=FACE_BOUND('',#64,.T.);
#25=FACE_BOUND('',#65,.T.);
#26=FACE_BOUND('',#66,.T.);
#27=PLANE('',#224);
#28=PLANE('',#229);
#29=PLANE('',#247);
#30=PLANE('',#248);
#31=FACE_OUTER_BOUND('',#43,.T.);
#32=FACE_OUTER_BOUND('',#44,.T.);
#33=FACE_OUTER_BOUND('',#46,.T.);
#34=FACE_OUTER_BOUND('',#47,.T.);
#35=FACE_OUTER_BOUND('',#49,.T.);
#36=FACE_OUTER_BOUND('',#50,.T.);
#37=FACE_OUTER_BOUND('',#51,.T.);
#38=FACE_OUTER_BOUND('',#52,.T.);
#39=FACE_OUTER_BOUND('',#53,.T.);
#40=FACE_OUTER_BOUND('',#54,.T.);
#41=FACE_OUTER_BOUND('',#55,.T.);
#42=FACE_OUTER_BOUND('',#61,.T.);
#43=EDGE_LOOP('',(#139,#140,#141,#142));
#44=EDGE_LOOP('',(#143));
#45=EDGE_LOOP('',(#144));
#46=EDGE_LOOP('',(#145,#146,#147,#148));
#47=EDGE_LOOP('',(#149));
#48=EDGE_LOOP('',(#150));
#49=EDGE_LOOP('',(#151,#152,#153,#154));
#50=EDGE_LOOP('',(#155,#156,#157,#158));
#51=EDGE_LOOP('',(#159,#160,#161,#162));
#52=EDGE_LOOP('',(#163,#164,#165,#166));
#53=EDGE_LOOP('',(#167,#168,#169,#170));
#54=EDGE_LOOP('',(#171,#172,#173,#174));
#55=EDGE_LOOP('',(#175));
#56=EDGE_LOOP('',(#176));
#57=EDGE_LOOP('',(#177));
#58=EDGE_LOOP('',(#178));
#59=EDGE_LOOP('',(#179));
#60=EDGE_LOOP('',(#180));
#61=EDGE_LOOP('',(#181));
#62=EDGE_LOOP('',(#182));
#63=EDGE_LOOP('',(#183));
#64=EDGE_LOOP('',(#184));
#65=EDGE_LOOP('',(#185));
#66=EDGE_LOOP('',(#186));
#67=LINE('',#320,#75);
#68=LINE('',#329,#76);
#69=LINE('',#338,#77);
#70=LINE('',#341,#78);
#71=LINE('',#346,#79);
#72=LINE('',#352,#80);
#73=LINE('',#358,#81);
#74=LINE('',#364,#82);
#75=VECTOR('',#255,1.5);
#76=VECTOR('',#266,4.5);
#77=VECTOR('',#277,1.5);
#78=VECTOR('',#282,3.);
#79=VECTOR('',#287,1.5);
#80=VECTOR('',#294,1.5);
#81=VECTOR('',#301,1.5);
#82=VECTOR('',#308,10.);
#83=CIRCLE('',#222,1.5);
#84=CIRCLE('',#223,1.5);
#85=CIRCLE('',#225,3.);
#86=CIRCLE('',#227,4.5);
#87=CIRCLE('',#228,4.5);
#88=CIRCLE('',#230,3.);
#89=CIRCLE('',#232,1.5);
#90=CIRCLE('',#233,1.5);
#91=CIRCLE('',#236,1.5);
#92=CIRCLE('',#237,1.5);
#93=CIRCLE('',#239,1.5);
#94=CIRCLE('',#240,1.5);
#95=CIRCLE('',#242,1.5);
#96=CIRCLE('',#243,1.5);
#97=CIRCLE('',#245,10.);
#98=CIRCLE('',#246,10.);
#99=VERTEX_POINT('',#317);
#100=VERTEX_POINT('',#319);
#101=VERTEX_POINT('',#323);
#102=VERTEX_POINT('',#326);
#103=VERTEX_POINT('',#328);
#104=VERTEX_POINT('',#332);
#105=VERTEX_POINT('',#335);
#106=VERTEX_POINT('',#337);
#107=VERTEX_POINT('',#343);
#108=VERTEX_POINT('',#345);
#109=VERTEX_POINT('',#349);
#110=VERTEX_POINT('',#351);
#111=VERTEX_POINT('',#355);
#112=VERTEX_POINT('',#357);
#113=VERTEX_POINT('',#361);
#114=VERTEX_POINT('',#363);
#115=EDGE_CURVE('',#99,#99,#83,.T.);
#116=EDGE_CURVE('',#99,#100,#67,.T.);
#117=EDGE_CURVE('',#100,#100,#84,.T.);
#118=EDGE_CURVE('',#101,#101,#85,.T.);
#119=EDGE_CURVE('',#102,#102,#86,.T.);
#120=EDGE_CURVE('',#102,#103,#68,.T.);
#121=EDGE_CURVE('',#103,#103,#87,.T.);
#122=EDGE_CURVE('',#104,#104,#88,.T.);
#123=EDGE_CURVE('',#105,#105,#89,.T.);
#124=EDGE_CURVE('',#105,#106,#69,.T.);
#125=EDGE_CURVE('',#106,#106,#90,.T.);
#126=EDGE_CURVE('',#104,#101,#70,.T.);
#127=EDGE_CURVE('',#107,#107,#91,.T.);
#128=EDGE_CURVE('',#107,#108,#71,.T.);
#129=EDGE_CURVE('',#108,#108,#92,.T.);
#130=EDGE_CURVE('',#109,#109,#93,.T.);
#131=EDGE_CURVE('',#109,#110,#72,.T.);
#132=EDGE_CURVE('',#110,#110,#94,.T.);
#133=EDGE_CURVE('',#111,#111,#95,.T.);
#134=EDGE_CURVE('',#111,#112,#73,.T.);
#135=EDGE_CURVE('',#112,#112,#96,.T.);
#136=EDGE_CURVE('',#113,#113,#97,.T.);
#137=EDGE_CURVE('',#113,#114,#74,.T.);
#138=EDGE_CURVE('',#114,#114,#98,.T.);
#139=ORIENTED_EDGE('',*,*,#115,.F.);
#140=ORIENTED_EDGE('',*,*,#116,.T.);
#141=ORIENTED_EDGE('',*,*,#117,.T.);
#142=ORIENTED_EDGE('',*,*,#116,.F.);
#143=ORIENTED_EDGE('',*,*,#118,.F.);
#144=ORIENTED_EDGE('',*,*,#115,.T.);
#145=ORIENTED_EDGE('',*,*,#119,.F.);
#146=ORIENTED_EDGE('',*,*,#120,.T.);
#147=ORIENTED_EDGE('',*,*,#121,.F.);
#148=ORIENTED_EDGE('',*,*,#120,.F.);
#149=ORIENTED_EDGE('',*,*,#119,.T.);
#150=ORIENTED_EDGE('',*,*,#122,.T.);
#151=ORIENTED_EDGE('',*,*,#123,.F.);
#152=ORIENTED_EDGE('',*,*,#124,.T.);
#153=ORIENTED_EDGE('',*,*,#125,.T.);
#154=ORIENTED_EDGE('',*,*,#124,.F.);
#155=ORIENTED_EDGE('',*,*,#122,.F.);
#156=ORIENTED_EDGE('',*,*,#126,.T.);
#157=ORIENTED_EDGE('',*,*,#118,.T.);
#158=ORIENTED_EDGE('',*,*,#126,.F.);
#159=ORIENTED_EDGE('',*,*,#127,.F.);
#160=ORIENTED_EDGE('',*,*,#128,.T.);
#161=ORIENTED_EDGE('',*,*,#129,.T.);
#162=ORIENTED_EDGE('',*,*,#128,.F.);
#163=ORIENTED_EDGE('',*,*,#130,.F.);
#164=ORIENTED_EDGE('',*,*,#131,.T.);
#165=ORIENTED_EDGE('',*,*,#132,.T.);
#166=ORIENTED_EDGE('',*,*,#131,.F.);
#167=ORIENTED_EDGE('',*,*,#133,.F.);
#168=ORIENTED_EDGE('',*,*,#134,.T.);
#169=ORIENTED_EDGE('',*,*,#135,.T.);
#170=ORIENTED_EDGE('',*,*,#134,.F.);
#171=ORIENTED_EDGE('',*,*,#136,.F.);
#172=ORIENTED_EDGE('',*,*,#137,.T.);
#173=ORIENTED_EDGE('',*,*,#138,.T.);
#174=ORIENTED_EDGE('',*,*,#137,.F.);
#175=ORIENTED_EDGE('',*,*,#136,.T.);
#176=ORIENTED_EDGE('',*,*,#121,.T.);
#177=ORIENTED_EDGE('',*,*,#133,.T.);
#178=ORIENTED_EDGE('',*,*,#130,.T.);
#179=ORIENTED_EDGE('',*,*,#127,.T.);
#180=ORIENTED_EDGE('',*,*,#123,.T.);
#181=ORIENTED_EDGE('',*,*,#138,.F.);
#182=ORIENTED_EDGE('',*,*,#117,.F.);
#183=ORIENTED_EDGE('',*,*,#135,.F.);
#184=ORIENTED_EDGE('',*,*,#132,.F.);
#185=ORIENTED_EDGE('',*,*,#129,.F.);
#186=ORIENTED_EDGE('',*,*,#125,.F.);
#187=CYLINDRICAL_SURFACE('',#221,1.5);
#188=CYLINDRICAL_SURFACE('',#226,4.5);
#189=CYLINDRICAL_SURFACE('',#231,1.5);
#190=CYLINDRICAL_SURFACE('',#234,3.);
#191=CYLINDRICAL_SURFACE('',#235,1.5);
#192=CYLINDRICAL_SURFACE('',#238,1.5);
#193=CYLINDRICAL_SURFACE('',#241,1.5);
#194=CYLINDRICAL_SURFACE('',#244,10.);
#195=ADVANCED_FACE('',(#31),#187,.F.);
#196=ADVANCED_FACE('',(#32,#15),#27,.T.);
#197=ADVANCED_FACE('',(#33),#188,.T.);
#198=ADVANCED_FACE('',(#34,#16),#28,.T.);
#199=ADVANCED_FACE('',(#35),#189,.F.);
#200=ADVANCED_FACE('',(#36),#190,.F.);
#201=ADVANCED_FACE('',(#37),#191,.F.);
#202=ADVANCED_FACE('',(#38),#192,.F.);
#203=ADVANCED_FACE('',(#39),#193,.F.);
#204=ADVANCED_FACE('',(#40),#194,.T.);
#205=ADVANCED_FACE('',(#41,#17,#18,#19,#20,#21),#29,.T.);
#206=ADVANCED_FACE('',(#42,#22,#23,#24,#25,#26),#30,.F.);
#207=CLOSED_SHELL('',(#195,#196,#197,#198,#199,#200,#201,#202,#203,#204,
#205,#206));
#208=DERIVED_UNIT_ELEMENT(#210,1.);
#209=DERIVED_UNIT_ELEMENT(#373,-3.);
#210=(
MASS_UNIT()
NAMED_UNIT(*)
SI_UNIT(.KILO.,.GRAM.)
);
#211=DERIVED_UNIT((#208,#209));
#212=MEASURE_REPRESENTATION_ITEM('density measure',
POSITIVE_RATIO_MEASURE(7850.),#211);
#213=PROPERTY_DEFINITION_REPRESENTATION(#218,#215);
#214=PROPERTY_DEFINITION_REPRESENTATION(#219,#216);
#215=REPRESENTATION('material name',(#217),#370);
#216=REPRESENTATION('density',(#212),#370);
#217=DESCRIPTIVE_REPRESENTATION_ITEM('Steel','Steel');
#218=PROPERTY_DEFINITION('material property','material name',#380);
#219=PROPERTY_DEFINITION('material property','density of part',#380);
#220=AXIS2_PLACEMENT_3D('',#315,#249,#250);
#221=AXIS2_PLACEMENT_3D('',#316,#251,#252);
#222=AXIS2_PLACEMENT_3D('',#318,#253,#254);
#223=AXIS2_PLACEMENT_3D('',#321,#256,#257);
#224=AXIS2_PLACEMENT_3D('',#322,#258,#259);
#225=AXIS2_PLACEMENT_3D('',#324,#260,#261);
#226=AXIS2_PLACEMENT_3D('',#325,#262,#263);
#227=AXIS2_PLACEMENT_3D('',#327,#264,#265);
#228=AXIS2_PLACEMENT_3D('',#330,#267,#268);
#229=AXIS2_PLACEMENT_3D('',#331,#269,#270);
#230=AXIS2_PLACEMENT_3D('',#333,#271,#272);
#231=AXIS2_PLACEMENT_3D('',#334,#273,#274);
#232=AXIS2_PLACEMENT_3D('',#336,#275,#276);
#233=AXIS2_PLACEMENT_3D('',#339,#278,#279);
#234=AXIS2_PLACEMENT_3D('',#340,#280,#281);
#235=AXIS2_PLACEMENT_3D('',#342,#283,#284);
#236=AXIS2_PLACEMENT_3D('',#344,#285,#286);
#237=AXIS2_PLACEMENT_3D('',#347,#288,#289);
#238=AXIS2_PLACEMENT_3D('',#348,#290,#291);
#239=AXIS2_PLACEMENT_3D('',#350,#292,#293);
#240=AXIS2_PLACEMENT_3D('',#353,#295,#296);
#241=AXIS2_PLACEMENT_3D('',#354,#297,#298);
#242=AXIS2_PLACEMENT_3D('',#356,#299,#300);
#243=AXIS2_PLACEMENT_3D('',#359,#302,#303);
#244=AXIS2_PLACEMENT_3D('',#360,#304,#305);
#245=AXIS2_PLACEMENT_3D('',#362,#306,#307);
#246=AXIS2_PLACEMENT_3D('',#365,#309,#310);
#247=AXIS2_PLACEMENT_3D('',#366,#311,#312);
#248=AXIS2_PLACEMENT_3D('',#367,#313,#314);
#249=DIRECTION('axis',(0.,0.,1.));
#250=DIRECTION('refdir',(1.,0.,0.));
#251=DIRECTION('center_axis',(0.,0.,1.));
#252=DIRECTION('ref_axis',(1.,0.,0.));
#253=DIRECTION('center_axis',(0.,0.,-1.));
#254=DIRECTION('ref_axis',(1.,0.,0.));
#255=DIRECTION('',(0.,0.,-1.));
#256=DIRECTION('center_axis',(0.,0.,-1.));
#257=DIRECTION('ref_axis',(1.,0.,0.));
#258=DIRECTION('center_axis',(0.,0.,1.));
#259=DIRECTION('ref_axis',(1.,0.,0.));
#260=DIRECTION('center_axis',(0.,0.,-1.));
#261=DIRECTION('ref_axis',(1.,0.,0.));
#262=DIRECTION('center_axis',(0.,0.,1.));
#263=DIRECTION('ref_axis',(1.,0.,0.));
#264=DIRECTION('center_axis',(0.,0.,1.));
#265=DIRECTION('ref_axis',(1.,0.,0.));
#266=DIRECTION('',(0.,0.,-1.));
#267=DIRECTION('center_axis',(0.,0.,-1.));
#268=DIRECTION('ref_axis',(1.,0.,0.));
#269=DIRECTION('center_axis',(0.,0.,1.));
#270=DIRECTION('ref_axis',(1.,0.,0.));
#271=DIRECTION('center_axis',(0.,0.,-1.));
#272=DIRECTION('ref_axis',(1.,0.,0.));
#273=DIRECTION('center_axis',(0.,0.,1.));
#274=DIRECTION('ref_axis',(1.,0.,0.));
#275=DIRECTION('center_axis',(0.,0.,-1.));
#276=DIRECTION('ref_axis',(1.,0.,0.));
#277=DIRECTION('',(0.,0.,-1.));
#278=DIRECTION('center_axis',(0.,0.,-1.));
#279=DIRECTION('ref_axis',(1.,0.,0.));
#280=DIRECTION('center_axis',(0.,0.,1.));
#281=DIRECTION('ref_axis',(1.,0.,0.));
#282=DIRECTION('',(0.,0.,-1.));
#283=DIRECTION('center_axis',(0.,0.,1.));
#284=DIRECTION('ref_axis',(1.,0.,0.));
#285=DIRECTION('center_axis',(0.,0.,-1.));
#286=DIRECTION('ref_axis',(1.,0.,0.));
#287=DIRECTION('',(0.,0.,-1.));
#288=DIRECTION('center_axis',(0.,0.,-1.));
#289=DIRECTION('ref_axis',(1.,0.,0.));
#290=DIRECTION('center_axis',(0.,0.,1.));
#291=DIRECTION('ref_axis',(1.,0.,0.));
#292=DIRECTION('center_axis',(0.,0.,-1.));
#293=DIRECTION('ref_axis',(1.,0.,0.));
#294=DIRECTION('',(0.,0.,-1.));
#295=DIRECTION('center_axis',(0.,0.,-1.));
#296=DIRECTION('ref_axis',(1.,0.,0.));
#297=DIRECTION('center_axis',(0.,0.,1.));
#298=DIRECTION('ref_axis',(1.,0.,0.));
#299=DIRECTION('center_axis',(0.,0.,-1.));
#300=DIRECTION('ref_axis',(1.,0.,0.));
#301=DIRECTION('',(0.,0.,-1.));
#302=DIRECTION('center_axis',(0.,0.,-1.));
#303=DIRECTION('ref_axis',(1.,0.,0.));
#304=DIRECTION('center_axis',(0.,0.,1.));
#305=DIRECTION('ref_axis',(1.,0.,0.));
#306=DIRECTION('center_axis',(0.,0.,1.));
#307=DIRECTION('ref_axis',(1.,0.,0.));
#308=DIRECTION('',(0.,0.,-1.));
#309=DIRECTION('center_axis',(0.,0.,1.));
#310=DIRECTION('ref_axis',(1.,0.,0.));
#311=DIRECTION('center_axis',(0.,0.,1.));
#312=DIRECTION('ref_axis',(1.,0.,0.));
#313=DIRECTION('center_axis',(0.,0.,1.));
#314=DIRECTION('ref_axis',(1.,0.,0.));
#315=CARTESIAN_POINT('',(0.,0.,0.));
#316=CARTESIAN_POINT('Origin',(-50.,0.,0.));
#317=CARTESIAN_POINT('',(-51.5,-1.83697019872103E-16,1.));
#318=CARTESIAN_POINT('Origin',(-50.,0.,1.));
#319=CARTESIAN_POINT('',(-51.5,-1.83697019872103E-16,0.));
#320=CARTESIAN_POINT('',(-51.5,-1.83697019872103E-16,0.));
#321=CARTESIAN_POINT('Origin',(-50.,0.,0.));
#322=CARTESIAN_POINT('Origin',(-50.,0.,1.));
#323=CARTESIAN_POINT('',(-53.,-3.67394039744206E-16,1.));
#324=CARTESIAN_POINT('Origin',(-50.,0.,1.));
#325=CARTESIAN_POINT('Origin',(-50.,0.,0.));
#326=CARTESIAN_POINT('',(-54.5,-5.51091059616309E-16,4.5));
#327=CARTESIAN_POINT('Origin',(-50.,0.,4.5));
#328=CARTESIAN_POINT('',(-54.5,5.51091059616309E-16,2.5));
#329=CARTESIAN_POINT('',(-54.5,-5.51091059616309E-16,0.));
#330=CARTESIAN_POINT('Origin',(-50.,0.,2.5));
#331=CARTESIAN_POINT('Origin',(-50.,0.,4.5));
#332=CARTESIAN_POINT('',(-53.,-3.67394039744206E-16,4.5));
#333=CARTESIAN_POINT('Origin',(-50.,0.,4.5));
#334=CARTESIAN_POINT('Origin',(-50.,6.75,0.));
#335=CARTESIAN_POINT('',(-51.5,6.75,2.5));
#336=CARTESIAN_POINT('Origin',(-50.,6.75,2.5));
#337=CARTESIAN_POINT('',(-51.5,6.75,0.));
#338=CARTESIAN_POINT('',(-51.5,6.75,0.));
#339=CARTESIAN_POINT('Origin',(-50.,6.75,0.));
#340=CARTESIAN_POINT('Origin',(-50.,0.,0.));
#341=CARTESIAN_POINT('',(-53.,-3.67394039744206E-16,0.));
#342=CARTESIAN_POINT('Origin',(-43.25,0.,0.));
#343=CARTESIAN_POINT('',(-44.75,0.,2.5));
#344=CARTESIAN_POINT('Origin',(-43.25,0.,2.5));
#345=CARTESIAN_POINT('',(-44.75,-1.83697019872103E-16,0.));
#346=CARTESIAN_POINT('',(-44.75,-1.83697019872103E-16,0.));
#347=CARTESIAN_POINT('Origin',(-43.25,0.,0.));
#348=CARTESIAN_POINT('Origin',(-56.75,0.,0.));
#349=CARTESIAN_POINT('',(-58.25,0.,2.5));
#350=CARTESIAN_POINT('Origin',(-56.75,0.,2.5));
#351=CARTESIAN_POINT('',(-58.25,-1.83697019872103E-16,0.));
#352=CARTESIAN_POINT('',(-58.25,-1.83697019872103E-16,0.));
#353=CARTESIAN_POINT('Origin',(-56.75,0.,0.));
#354=CARTESIAN_POINT('Origin',(-50.,-6.75,0.));
#355=CARTESIAN_POINT('',(-51.5,-6.75,2.5));
#356=CARTESIAN_POINT('Origin',(-50.,-6.75,2.5));
#357=CARTESIAN_POINT('',(-51.5,-6.75,0.));
#358=CARTESIAN_POINT('',(-51.5,-6.75,0.));
#359=CARTESIAN_POINT('Origin',(-50.,-6.75,0.));
#360=CARTESIAN_POINT('Origin',(-50.,0.,0.));
#361=CARTESIAN_POINT('',(-60.,-1.11022302462516E-15,2.5));
#362=CARTESIAN_POINT('Origin',(-50.,0.,2.5));
#363=CARTESIAN_POINT('',(-60.,-1.22464679914735E-15,0.));
#364=CARTESIAN_POINT('',(-60.,-1.22464679914735E-15,0.));
#365=CARTESIAN_POINT('Origin',(-50.,0.,0.));
#366=CARTESIAN_POINT('Origin',(-50.,0.,2.5));
#367=CARTESIAN_POINT('Origin',(-50.,0.,0.));
#368=UNCERTAINTY_MEASURE_WITH_UNIT(LENGTH_MEASURE(0.01),#372,
'DISTANCE_ACCURACY_VALUE',
'Maximum model space distance between geometric entities at asserted c
onnectivities');
#369=UNCERTAINTY_MEASURE_WITH_UNIT(LENGTH_MEASURE(0.01),#372,
'DISTANCE_ACCURACY_VALUE',
'Maximum model space distance between geometric entities at asserted c
onnectivities');
#370=(
GEOMETRIC_REPRESENTATION_CONTEXT(3)
GLOBAL_UNCERTAINTY_ASSIGNED_CONTEXT((#368))
GLOBAL_UNIT_ASSIGNED_CONTEXT((#372,#374,#375))
REPRESENTATION_CONTEXT('','3D')
);
#371=(
GEOMETRIC_REPRESENTATION_CONTEXT(3)
GLOBAL_UNCERTAINTY_ASSIGNED_CONTEXT((#369))
GLOBAL_UNIT_ASSIGNED_CONTEXT((#372,#374,#375))
REPRESENTATION_CONTEXT('','3D')
);
#372=(
LENGTH_UNIT()
NAMED_UNIT(*)
SI_UNIT(.MILLI.,.METRE.)
);
#373=(
LENGTH_UNIT()
NAMED_UNIT(*)
SI_UNIT($,.METRE.)
);
#374=(
NAMED_UNIT(*)
PLANE_ANGLE_UNIT()
SI_UNIT($,.RADIAN.)
);
#375=(
NAMED_UNIT(*)
SI_UNIT($,.STERADIAN.)
SOLID_ANGLE_UNIT()
);
#376=SHAPE_DEFINITION_REPRESENTATION(#377,#378);
#377=PRODUCT_DEFINITION_SHAPE('',$,#380);
#378=SHAPE_REPRESENTATION('',(#220),#370);
#379=PRODUCT_DEFINITION_CONTEXT('part definition',#384,'design');
#380=PRODUCT_DEFINITION('Servo Adapter','Servo Adapter v1',#381,#379);
#381=PRODUCT_DEFINITION_FORMATION('',$,#386);
#382=PRODUCT_RELATED_PRODUCT_CATEGORY('Servo Adapter v1',
'Servo Adapter v1',(#386));
#383=APPLICATION_PROTOCOL_DEFINITION('international standard',
'automotive_design',2009,#384);
#384=APPLICATION_CONTEXT(
'Core Data for Automotive Mechanical Design Process');
#385=PRODUCT_CONTEXT('part definition',#384,'mechanical');
#386=PRODUCT('Servo Adapter','Servo Adapter v1',$,(#385));
#387=PRESENTATION_STYLE_ASSIGNMENT((#388));
#388=SURFACE_STYLE_USAGE(.BOTH.,#389);
#389=SURFACE_SIDE_STYLE('',(#390));
#390=SURFACE_STYLE_FILL_AREA(#391);
#391=FILL_AREA_STYLE('Steel - Satin',(#392));
#392=FILL_AREA_STYLE_COLOUR('Steel - Satin',#393);
#393=COLOUR_RGB('Steel - Satin',0.627450980392157,0.627450980392157,0.627450980392157);
ENDSEC;
END-ISO-10303-21;
